<svg viewBox="0 0 32 32" fill="none" xmlns="http://www.w3.org/2000/svg" id="Fireworks-Flat--Streamline-Fluent-Emoji" height="32" width="32">
  <desc>
    Fireworks Flat Streamline Emoji: https://streamlinehq.com
  </desc>
  <path d="M26.32 2H5.67999C3.64999 2 2 3.65 2 5.68v20.64C2 28.35 3.64999 30 5.67999 30H26.32c2.03 0 3.68 -1.65 3.68 -3.68V5.68C30 3.65 28.35 2 26.32 2Z" fill="#533566" stroke-width="1"></path>
  <path d="M12 7.5c0 0.27614 -0.2239 0.50001 -0.5 0.50001 -0.2762 0 -0.5 -0.22387 -0.5 -0.50001 0 -0.27614 0.2238 -0.5 0.5 -0.5 0.2761 0 0.5 0.22386 0.5 0.5Z" fill="#fff478" stroke-width="1"></path>
  <path d="M21 25.5c0 0.2761 -0.2239 0.5 -0.5 0.5 -0.2762 0 -0.5 -0.2239 -0.5 -0.5s0.2238 -0.5 0.5 -0.5c0.2761 0 0.5 0.2239 0.5 0.5Z" fill="#fff478" stroke-width="1"></path>
  <path d="M6.5 13c0.27613 0 0.5 -0.2239 0.5 -0.5s-0.22387 -0.5 -0.5 -0.5 -0.5 0.2239 -0.5 0.5 0.22387 0.5 0.5 0.5Z" fill="#fff478" stroke-width="1"></path>
  <path d="M26 20.5c0 0.2761 -0.2239 0.5 -0.5 0.5 -0.2762 0 -0.5 -0.2239 -0.5 -0.5s0.2238 -0.5 0.5 -0.5c0.2761 0 0.5 0.2239 0.5 0.5Z" fill="#fff478" stroke-width="1"></path>
  <path d="M6.5 21c0.27613 0 0.5 -0.2239 0.5 -0.5s-0.22387 -0.5 -0.5 -0.5 -0.5 0.2239 -0.5 0.5 0.22387 0.5 0.5 0.5Z" fill="#fff478" stroke-width="1"></path>
  <path d="M26 12.5c0 0.2761 -0.2239 0.5 -0.5 0.5 -0.2762 0 -0.5 -0.2239 -0.5 -0.5s0.2238 -0.5 0.5 -0.5c0.2761 0 0.5 0.2239 0.5 0.5Z" fill="#fff478" stroke-width="1"></path>
  <path d="M11.5 26c0.2762 0 0.5 -0.2239 0.5 -0.5s-0.2238 -0.5 -0.5 -0.5c-0.2761 0 -0.5 0.2239 -0.5 0.5s0.2239 0.5 0.5 0.5Z" fill="#fff478" stroke-width="1"></path>
  <path d="M21 7.5c0 0.27614 -0.2238 0.5 -0.5 0.5 -0.2761 0 -0.5 -0.22386 -0.5 -0.5 0 -0.27615 0.2239 -0.5 0.5 -0.5 0.2762 0 0.5 0.22385 0.5 0.5Z" fill="#fff478" stroke-width="1"></path>
  <path d="M20.62 16.9444c-0.21 -0.19 -0.21 -0.52 0 -0.71l2.19 -1.98c0.33 -0.3 0.1 -0.86 -0.35 -0.83l-2.95 0.15c-0.28 0.01 -0.52 -0.22 -0.5 -0.5l0.15 -2.95c0.02 -0.45001 -0.53 -0.68002 -0.83 -0.35002l-1.98 2.19002c-0.19 0.21 -0.52 0.21 -0.71 0l-1.98 -2.19002c-0.3 -0.33 -0.86 -0.09999 -0.83 0.35002l0.15 2.95c0.01 0.28 -0.22 0.52 -0.5 0.5l-2.94997 -0.15c-0.45 -0.02 -0.68001 0.53 -0.35001 0.83l2.18998 1.98c0.21 0.19 0.21 0.52 0 0.71l-2.18998 1.98c-0.33 0.3 -0.09999 0.86 0.35001 0.83l2.94997 -0.15c0.28 -0.01 0.52 0.22 0.5 0.5l-0.15 2.95c-0.02 0.45 0.53 0.68 0.83 0.35l1.06 -1.17c0.13 -0.14 0.37 -0.05 0.37 0.14l0.55 4.73c0.02 0.18 0.18 0.32 0.36 0.32 0.19 0 0.34 -0.14 0.36 -0.32l0.55 -4.73c0 -0.19 0.24 -0.29 0.37 -0.14l1.06 1.17c0.3 0.33 0.86 0.1 0.83 -0.35l-0.15 -2.95c-0.01 -0.28 0.22 -0.52 0.5 -0.5l2.95 0.15c0.45 0.02 0.68 -0.53 0.35 -0.83l-2.2 -1.98Z" fill="#fcd53f" stroke-width="1"></path>
  <path d="M15.55 5.48438c0 0.25 0.2 0.45001 0.45 0.45001s0.45 -0.20001 0.45 -0.45001v-0.78999c0 -0.25 -0.2 -0.45001 -0.45 -0.45001s-0.45 0.20001 -0.45 0.45001v0.78999Z" fill="#f8312f" stroke-width="1"></path>
  <path d="M15.5 10.0844c0 0.25 0.2222 0.45 0.5 0.45s0.5 -0.21 0.5 -0.45V6.99437c0 -0.25 -0.2222 -0.45 -0.5 -0.45s-0.5 0.2 -0.5 0.45v3.09003Z" fill="#f8312f" stroke-width="1"></path>
  <path d="M8.52999 9.0344c-0.18 0.18 -0.45999 0.18 -0.63998 0l-0.56003 -0.56c-0.18 -0.18 -0.18 -0.46 0 -0.64s0.46001 -0.18 0.64001 0l0.56 0.56c0.17 0.17 0.17 0.46 0 0.64Z" fill="#f8312f" stroke-width="1"></path>
  <path d="M11.14 12.2844c0.18 0.18 0.46 0.18 0.64 0 0.17 -0.18 0.17 -0.47 0 -0.64L9.6 9.46441c-0.18 -0.18 -0.46002 -0.18 -0.64002 0 -0.18 0.18 -0.18 0.46 0 0.63999l2.18002 2.18Z" fill="#f8312f" stroke-width="1"></path>
  <path d="M23.46 23.9644c0.18 -0.18 0.46 -0.18 0.64 0l0.56 0.56c0.18 0.18 0.18 0.46 0 0.64s-0.46 0.18 -0.64 0l-0.56 -0.56c-0.17 -0.17 -0.17 -0.46 0 -0.64Z" fill="#f8312f" stroke-width="1"></path>
  <path d="M20.86 20.7244c-0.18 -0.18 -0.46 -0.18 -0.64 0 -0.18 0.17 -0.18 0.46 0 0.64l2.18 2.18c0.18 0.18 0.46 0.18 0.64 0s0.18 -0.46 0 -0.64l-2.18 -2.18Z" fill="#f8312f" stroke-width="1"></path>
  <path d="M5.42999 16.5001c0 0.2777 -0.19998 0.4998 -0.44998 0.4998H4.19c-0.25 0 -0.45001 -0.2221 -0.45001 -0.4998 0 -0.2776 0.20001 -0.4998 0.45001 -0.4998h0.79001c0.25 -0.0111 0.44998 0.2111 0.44998 0.4998Z" fill="#f8312f" stroke-width="1"></path>
  <path d="M9.54886 16.9999c0.25063 0 0.45114 -0.2221 0.45114 -0.4998 0 -0.2887 -0.21054 -0.5109 -0.45114 -0.4998H6.45111c-0.25063 0 -0.45111 0.2222 -0.45111 0.4998 0 0.2777 0.20048 0.4998 0.45111 0.4998h3.09775Z" fill="#f8312f" stroke-width="1"></path>
  <path d="M26.56 16.4999c0 -0.2777 0.2 -0.5 0.45 -0.5h0.79c0.25 0 0.45 0.2223 0.45 0.5 0 0.2778 -0.2 0.5 -0.45 0.5h-0.79c-0.25 0 -0.45 -0.2222 -0.45 -0.5Z" fill="#f8312f" stroke-width="1"></path>
  <path d="M22.4511 15.9999c-0.2506 0 -0.4511 0.2223 -0.4511 0.5 0 0.2778 0.2105 0.5 0.4511 0.5h3.0978c0.2506 0 0.4511 -0.2222 0.4511 -0.5 0 -0.2777 -0.2005 -0.5 -0.4511 -0.5h-3.0978Z" fill="#f8312f" stroke-width="1"></path>
  <path d="M8.52999 23.9644c0.18 0.18 0.18 0.46 0 0.64l-0.56 0.56c-0.18 0.18 -0.46001 0.18 -0.64001 0s-0.18 -0.46 0 -0.64l0.56003 -0.56c0.16999 -0.17 0.45998 -0.17 0.63998 0Z" fill="#f8312f" stroke-width="1"></path>
  <path d="M11.78 21.3644c0.18 -0.18 0.18 -0.46 0 -0.64s-0.47 -0.18 -0.64 0l-2.18002 2.18c-0.18 0.18 -0.18 0.46 0 0.64s0.46002 0.18 0.64002 0l2.18 -2.18Z" fill="#f8312f" stroke-width="1"></path>
  <path d="M23.46 9.0344c-0.18 -0.18 -0.18 -0.46 0 -0.64l0.56 -0.56c0.18 -0.18 0.46 -0.18 0.64 0s0.18 0.46 0 0.64l-0.56 0.56c-0.17 0.17 -0.46 0.17 -0.64 0Z" fill="#f8312f" stroke-width="1"></path>
  <path d="M20.22 11.6444c-0.18 0.18 -0.18 0.46 0 0.64 0.17 0.17 0.46 0.17 0.64 0l2.18 -2.18c0.18 -0.17999 0.18 -0.45999 0 -0.63999 -0.18 -0.18 -0.46 -0.18 -0.64 0l-2.18 2.17999Z" fill="#f8312f" stroke-width="1"></path>
</svg>