<?xml version="1.0" encoding="UTF-8"?>
<svg id="Layer_2" data-name="Layer 2" xmlns="http://www.w3.org/2000/svg" viewBox="0 0 90.64 112.07">
  <defs>
    <style>
      .cls-1 {
        fill: #4689fa;
      }
    </style>
  </defs>
  <g id="Layer_1-2" data-name="Layer 1">
    <path class="cls-1" d="M56.1,111.92l-19.79-.29c4.33-2.73,7.47-5.99,11.01-9.91,2.87-3.19,19.64,3.74,29.07-12.41l-14.97.09c-6.61.04-13.18,2.98-17.36,8.19-11.8,14.69-25.73,15.48-44.05,13.91L.27,32.03C.33,13.95,15.82.46,33.57,0l.09,83.86c-3.01,4.5-6.16,8.26-11.22,10.16l-.08-79.53c-6.59,3.83-11.06,10.61-11.07,18.54l-.05,67.42c9.61,1.2,17.84-2.07,23.43-9.23,6.49-7.87,15.52-12.87,25.89-12.91l30.07-.11c-.2,18.83-15.02,33.99-34.53,33.7Z"/>
  </g>
</svg>