<?xml version="1.0" encoding="UTF-8"?>
<svg id="Layer_2" data-name="Layer 2" xmlns="http://www.w3.org/2000/svg" viewBox="0 0 79.84 79.84">
  <defs>
    <style>
      .cls-1 {
        fill: #fff;
      }
    </style>
  </defs>
  <g id="Layer_1-2" data-name="Layer 1">
    <g>
      <path d="M79.84,0v79.83s-79.84,0-79.84,0V0h79.84ZM25.29,43.44l3.79-.03-12.93-18.49-.02,29.97h9.16s0-11.46,0-11.46ZM54.56,54.9h9.16s-.01-29.93-.01-29.93l-12.88,18.43,3.73.04v11.46ZM46.19,43.43l5.24-7.47h-22.77s5.21,7.48,5.21,7.48h12.33Z"/>
      <polygon class="cls-1" points="25.29 43.44 25.29 54.9 16.12 54.9 16.14 24.93 29.08 43.42 25.29 43.44"/>
      <polygon class="cls-1" points="54.56 54.9 54.55 43.44 50.82 43.41 63.71 24.97 63.72 54.9 54.56 54.9"/>
      <polygon class="cls-1" points="46.19 43.43 33.87 43.43 28.66 35.97 51.43 35.96 46.19 43.43"/>
    </g>
  </g>
</svg>