<?xml version="1.0" encoding="UTF-8"?>
<svg id="Layer_2" data-name="Layer 2" xmlns="http://www.w3.org/2000/svg" viewBox="0 0 1251.21 1001.15">
  <g id="Layer_1-2" data-name="Layer 1">
    <g>
      <path d="M907.28,1001.15h-.57c-.32-.83.13-3.75.99-4.72,11.26-12.73,20.16-26.51,27.46-41.98,15.8-33.48,23.85-72.37,27.7-109.28,3.39-32.62,4.34-64.9,3.07-97.62-.56-14.43-2.2-28.06-4.9-42.08-3.95-20.49-13-38.15-25.85-54.34-7.57-9.54-16.14-16.91-28.05-20.92-9.04-3.04-18.2-5.42-28.03-6.24l-68.75-5.75c-40.91-2.56-81.21-3.73-122.09-3.52l-62.53.32-105.12,1.34c-54.15.69-107.88-.09-162-2.58l-114.48-6.72c-20.35-1.19-39.69-4.12-59.51-8.26-96.17-20.11-152.1-72.52-174.04-168.82-5.5-24.15-8.12-48.24-9.66-72.86l-.35-11.71c-.02-.53-.25-1.92-.56-1.86v-65.07c0,.09.62-1.19.62-1.48v-9.08s.38-5.27.38-5.27c1.4-20.26,3.12-40.03,6.99-60.03,7.04-36.33,19.57-69.41,41.61-99.2,20.49-27.7,49.33-47.95,80.58-62.07,14.94-6.75,29.8-11.88,45.62-16.37C227.88,10.22,279.68,4.82,333.44.48l5.64-.46,1.91.21c.22.02-.43.91-.54,1.14-9.93,21.06-18.56,42.26-25.39,64.59-3.83,12.5-6.6,24.39-9.22,37.23-14.15,69.54-23.41,160.26,2.9,226.93,3.96,10.03,9.15,18.89,16.59,26.67,16.58,17.33,40.23,20.6,63.75,22.13,62.31,4.06,124.32,5.7,186.82,5.7h72.25s65.87-.29,65.87-.29l65.78-.03c67.41,1.32,134.3,3.87,201.58,7.16,41.92,2.05,84.31,7.18,123.74,21.58,61.25,22.36,105.27,68.47,125.36,130.54,12.54,38.73,18.95,78.69,20.73,119.31l-.02,42.73c-1.94,46.39-10.1,91.94-24.56,136.03-17.77,54.17-54.91,92.77-106.04,116.79-36.14,16.98-81.94,27.07-121.61,32.95l-83.02,8.82-8.67.95Z"/>
      <path d="M360.45,1001.15l-4.34-.18-3.85-.46-54.41-6.22-59.48-8.13c-42.51-7.46-84.62-20.39-120.52-44.65-39.05-26.4-62.65-62.73-77.59-107.03-14.18-43.84-19.56-86.29-17.82-132.43,49.31,33.2,103.7,52.84,161.69,63.72,24.3,4.43,48.06,7.68,72.7,9.26l63.84,4.09c.52,55.95,8.1,113.38,24.87,166.83l7.83,21.64,9.51,26.24c.63,1.73.72,4.49.11,5.89l-2.53,1.42Z"/>
      <path d="M1229.09,301.89c-51.9-36.44-107.77-56.62-169.58-67.93-23.27-4.09-45.93-7.26-69.54-8.52l-58.82-3.16c-.58-55.05-7.58-109.55-23.26-162.03l-10.3-29.15-9.24-25.98c-.4-1.14.1-4.36,1.22-4.6,4.57-.99,8.8-.32,13.46.21l57.27,6.53,62.69,9.2c39.75,7.72,79.05,20.9,112.49,43.95,34.87,24.04,57.51,56.45,72.45,95.91,8.2,22.6,13.88,45.42,17.69,69.26,3.38,25.07,4.92,49.86,3.46,76.32Z"/>
    </g>
  </g>
</svg>