<svg xmlns="http://www.w3.org/2000/svg" viewBox="0 0 102.07 102.07"><defs><style>.cls-1{fill:#071d49;}.cls-1,.cls-2{fill-rule:evenodd;}.cls-2{fill:#00b5e2;}.cls-3{fill:none;}</style></defs><g id="Layer_2" data-name="Layer 2"><g id="Layer_1-2" data-name="Layer 1"><g id="Group_1" data-name="Group 1"><path id="Path_1" data-name="Path 1" class="cls-1" d="M51.29,87.74q-14,.08-21.87-9.18t-8-25.09q-.11-15.31,8-24.8a26.58,26.58,0,0,1,8.65-6.74V35.68c-3,4.35-4.47,10.24-4.42,17.71q.16,24.89,17.57,24.77a14.69,14.69,0,0,0,12.7-6.75q4.56-6.7,4.49-18.26C68.35,45.08,66.89,39,64.06,35V21.64A24.39,24.39,0,0,1,72.7,28q7.83,9,7.94,25.06T72.86,78.36Q65,87.65,51.29,87.74Z"/><path id="Path_2" data-name="Path 2" class="cls-2" d="M51.28,74.12a8.24,8.24,0,0,1-8-8.5L43,22.94a7.93,7.93,0,1,1,15.8-1.38,7.82,7.82,0,0,1,0,1.28l.27,42.66a8.25,8.25,0,0,1-7.85,8.61"/></g><rect class="cls-3" width="102.07" height="102.07"/></g></g></svg>