<?xml version="1.0" encoding="UTF-8"?>
<svg id="Layer_2" data-name="Layer 2" xmlns="http://www.w3.org/2000/svg" viewBox="0 0 510.7 510.57">
  <defs>
    <style>
      .cls-1 {
        fill: #fdfdfe;
      }

      .cls-2 {
        fill: #2abced;
      }

      .cls-3 {
        fill: #071d30;
      }
    </style>
  </defs>
  <g id="Layer_1-2" data-name="Layer 1">
    <g>
      <path class="cls-2" d="M340.46,168.56c-5.45-5.38-7.15-14.26-1.29-20.11l52.35-52.28c5.86-5.85,15.56-4.37,20.69,1.04s5.84,14.81,0,20.65l-51.82,51.76c-5.81,5.81-14.56,4.23-19.92-1.07Z"/>
      <path class="cls-3" d="M275.46,0c.63,1.68,2.4.71,3.57.81,121.19,10.59,218.18,105.55,231.66,226.49v56.39c-13.71,122.93-113.54,218.73-236.96,226.89h-36.51C115.93,502.59,16.76,409.46,1.01,288.94c-.08-.65-.39-1.27-1.01-1.5l.78-63.15C15.47,102.86,114.59,9.24,236.08.41l39.38-.41ZM316.8,135.88l6.88-73.9c.85-9.16-5.34-15.79-14.33-16.17-7.2-.31-14.59,3.91-15.27,11.7l-6.44,73.19c-.73,8.24,5.41,14.4,12.66,15.73,6.46,1.19,15.72-2.19,16.5-10.55ZM427.46,270.05c-7.52,87.5-79.15,155.72-165.63,160.35-106.47,5.71-193.47-83.96-184.68-190.12,7.05-85.13,75.48-154.01,161.56-160.65,8.61-.66,15.03-6.73,14.32-15.22-.73-8.72-7.76-13.46-16.6-12.78-52.43,4.03-100.63,28.39-135.34,66.8-68.72,76.02-69.94,190.52-4.79,267.79,78.76,93.41,220.92,97.61,304.88,7.98,31.78-33.93,51.64-78.11,54.44-125.61.51-8.65-7.24-14.57-14.8-14.14-8.42.48-12.6,6.61-13.38,15.61ZM340.46,168.56c5.36,5.3,14.11,6.87,19.92,1.07l51.82-51.76c5.85-5.84,5.15-15.23,0-20.65s-14.84-6.89-20.69-1.04l-52.35,52.28c-5.85,5.85-4.15,14.73,1.29,20.11ZM204.93,312.6c18.39,18.93,46.18,22.55,69.92,17.03,45.8-10.65,64.59-58.31,52.12-102.68-6.52-23.21-24-41.07-47.18-47.52-26.76-7.45-56.07-3.35-75.24,18.66l-3.43-20.12-25.01.05.04,193.01h28.37s.41-58.43.41-58.43ZM378.76,225.4l74.51-6.6c7.75-.69,12.04-8.09,11.73-15.04-.42-9.32-7.2-15.36-16.31-14.55l-71.35,6.32c-8.63.76-13.84,7.53-13.1,16.17.61,7.16,5.95,14.47,14.52,13.71Z"/>
      <path class="cls-2" d="M378.76,225.4c-8.57.76-13.9-6.54-14.52-13.71-.74-8.64,4.47-15.4,13.1-16.17l71.35-6.32c9.12-.81,15.9,5.23,16.31,14.55.31,6.96-3.99,14.36-11.73,15.04l-74.51,6.6Z"/>
      <path class="cls-2" d="M316.8,135.88c-.78,8.36-10.04,11.74-16.5,10.55-7.25-1.34-13.39-7.49-12.66-15.73l6.44-73.19c.69-7.79,8.07-12.01,15.27-11.7,8.99.39,15.18,7.01,14.33,16.17l-6.88,73.9Z"/>
      <path class="cls-3" d="M254.02,306.67c-20.39.49-37.71-10.25-45.06-28.63-5.52-13.81-6.11-28.69-1.92-42.86,6.21-21.03,24.64-34.08,46.5-33.66,20.12.39,37.32,11.78,44.01,30.98,5.12,14.69,4.95,30.74-.78,45.19-7.05,17.78-23.12,28.51-42.75,28.98Z"/>
      <g>
        <path class="cls-1" d="M427.46,270.05c.77-9,4.95-15.13,13.38-15.61,7.56-.43,15.31,5.49,14.8,14.14-2.81,47.5-22.66,91.68-54.44,125.61-83.96,89.63-226.12,85.42-304.88-7.98-65.15-77.27-63.92-191.77,4.79-267.79,34.71-38.4,82.91-62.76,135.34-66.8,8.84-.68,15.87,4.06,16.6,12.78.71,8.49-5.72,14.56-14.32,15.22-86.08,6.64-154.51,75.53-161.56,160.65-8.79,106.16,78.21,195.83,184.68,190.12,86.48-4.64,158.11-72.86,165.63-160.35Z"/>
        <path class="cls-1" d="M204.93,312.6l-.41,58.44h-28.37s-.04-193.01-.04-193.01l25.01-.05,3.43,20.12c19.17-22.01,48.49-26.11,75.24-18.66,23.18,6.45,40.66,24.31,47.18,47.52,12.47,44.36-6.32,92.03-52.12,102.68-23.74,5.52-51.53,1.9-69.92-17.03ZM254.02,306.67c19.63-.47,35.7-11.2,42.75-28.98,5.73-14.45,5.9-30.5.78-45.19-6.69-19.2-23.9-30.59-44.01-30.98-21.86-.42-40.29,12.62-46.5,33.66-4.18,14.17-3.6,29.05,1.92,42.86,7.35,18.38,24.67,29.12,45.06,28.63Z"/>
      </g>
    </g>
  </g>
</svg>