<?xml version="1.0" encoding="UTF-8"?>
<svg id="layer" xmlns="http://www.w3.org/2000/svg" version="1.1" viewBox="0 0 170.1 213.7">
  <!-- Generator: Adobe Illustrator 30.3.0, SVG Export Plug-In . SVG Version: 2.1.3 Build 182)  -->
  <defs>
    <style>
      .st0 {
        fill: none;
      }

      .st1 {
        fill: #c41e3a;
      }
    </style>
  </defs>
  <path class="st0" d="M-58.7,323.9c0-17.9-22.7-22.7-35.4-22.9-.3,0-.6.3-.6.6v13.7c0,.7.1,1.4.4,2.1l2.1,4.7c.4,1-.3,2-1.3,2h-19.3c-1,0-1.7-1-1.3-2l2-4.8c.3-.6.4-1.3.4-2v-13.8c0-.3-.3-.6-.6-.6h-35.2c-.3,0-.6.3-.6.6v40.4h0c48.2,14.1,89.3,5.7,89.3-18h.1ZM-166.4,234.3c0-.4-.4-.7-.8-.6-11.6,2.8-20.2,13-20.2,25s7.8,23.6,20.2,25.6c.4,0,.7-.3.7-.6v-49.4h0Z"/>
  <path class="st1" d="M169.6,197.6l-10-10.9c-.8-.8-2.3-.8-3.1,0-7.1,7.1-15.2,9.2-20.6,9.2h-70.9c-4.8,0-9-.4-9-5.4v-17.9c10.7,3,19.6,4.8,29.8,5.8,39.8,4.2,76.7-8,76.7-42.8s-21.3-37.8-52.7-38.4c-.3,0-.6-.3-.6-.6v-13.3c0-.3.3-.6.6-.6,7.9,0,14.7,2.1,14.7,2.1,2.8,1.1,2.4-2.3,2.4-3.4v-10.4c-.1-.7-.9-1.1-1.4-1.1h-49.8c-.6,0-1.3.4-1.3,1.3v10.4c0,1.3,0,4.1,2.4,3.4,0,0,5.4-2.3,14.7-2.1.3,0,.6.3.6.6v13.3c0,.3-.3.6-.6.6h-35c-.3,0-.6-.3-.6-.6v-50.1c0-.3.3-.6.6-.6,18.6-.3,52.5,2.3,79.3,11.6,1,.3,2,0,2.5-.8,2.3-3.8,5.2-8.6,9.6-16.1,1-1.8-.6-3.2-2.8-2.7-11.7,3.1-12.1,2-22.4-.6-11.7-3-39.1-8.8-66.4-8.3-.3,0-.7-.3-.7-.6v-7.1c0-4.7,3.8-8.5,8.5-8.5h2c1.1,0,2.1-1,2.1-2.1V2.1c0-1.1-1-2.1-2.1-2.1H27.3c-1.1,0-2.1,1-2.1,2.1v8.8c0,1.1,1,2.1,2.1,2.1h2c4.7,0,8.5,3.8,8.5,8.5v7.6c0,.3-.3.6-.6.6C16.3,32.9.2,51,.2,72.6s16.1,38.7,36.8,41.6c.3,0,.6.3.6.6v33.9c-5.5-2.3-10.9-4.7-16.1-7.3-1.8-1-3.7-2.1-5.5-3.1-.4-.3-.8-.3-1.3-.3s-1.3.1-1.7.7c-1.8,2.1-4.1,4.5-6.9,7.8-1.7,1.8-3.4,3.8-5.5,6.1-.4.4-.6,1-.6,1.4-.1,1.1,1,2.1,2.7,2,2.8-.3,5.2-.3,7.2-.4,5.5.3,7.5,1.8,14.5,5.2,3.1,1.6,7.6,3.5,12.8,5.8v23.4c0,6.8-8.3,5.5-11.6,5.8-.7.1-1,.8-1,1.4v14.4c0,1.1,1,2.1,2.1,2.1h109c13.8,0,24.7-4.5,33.7-13.4.9-.6,1-1.9.2-2.7h0ZM55.9,114.7c0-.3.3-.6.6-.6h35.2c.3,0,.6.3.6.6v13.8c0,.7,0,1.3-.4,2l-2,4.8c-.4.8.3,2,1.3,2h19.3c1,0,1.7-1,1.3-2l-2.1-4.7c-.3-.7-.4-1.4-.4-2.1v-13.7c0-.3.3-.7.6-.6,12.7.1,35.4,5.1,35.4,22.9s-40.9,32-89.4,18.2h0v-40.6h0ZM36.9,97.2c-12.4-2-20.2-12.6-20.2-25.6s8.6-22.2,20.2-25c.4-.1.8.1.8.6v49.3c0,.4-.4.7-.8.7Z"/>
</svg>