<svg height="196.66711" viewBox="0 0 286.75966 196.66711" width="286.75966" xmlns="http://www.w3.org/2000/svg"><path d="m275.22438 195.01956c5.45902.00182 9.88593-4.42213 9.88773-9.88116v-173.59985c.00363-5.45903-4.41885-9.88738-9.87789-9.89101-.00328 0-.00656 0-.00984 0h-263.68583c-5.46265 0-9.89101 4.42836-9.89101 9.89101v173.59328c.00181 5.46137 4.42964 9.88773 9.89101 9.88773z" fill="#fff" stroke="#0061aa" stroke-miterlimit="45.02633" stroke-width="3.29509"/><path d="m275.78245 97.19936-260.46543.10177c.67953 1.01766 1.34922 2.02219 2.1535 3.18101-.34797-.50226 15.37325 21.19362 22.67086 26.46575 1.80224 1.30326 3.27621 2.40956 4.92417 3.59136l-34.87951.71893.10505 6.35874 73.24533-1.94668c1.92371 3.2992-2.46208 11.5882-2.46208 11.5882l-70.47795 3.1843v.09848h-1.02423s.55807 2.86587 1.12928 5.74486c.76817 3.91308 1.70376 8.2529 2.46208 9.84833 2.46865 5.21962 7.6817 11.30917 10.97433 14.05686 3.29919 2.7444 9.38218 5.21962 13.23616 6.56556 5.49209 1.9237 10.39328 2.38986 13.43641 2.77067 6.59838.82069 11.2271.55807 18.36386-1.64139l13.23288-6.56556c3.29591-1.64467 6.81833-3.89338 11.48972-5.54133 4.66811-1.64795 8.83724-2.25855 17.85174-.82069 6.86757 1.09973 7.75392 2.24871 9.95009 3.89994 2.19946 1.64795 3.54541 2.72471 5.74486 4.92417 2.19617 2.19617 4.13301 2.56714 6.36202 4.10347 4.39236 3.02015 7.94433 3.56509 14.7725 1.12928 3.84084-1.37876 5.81052-3.8868 7.17944-6.36202 0 0 1.12928-3.30576 1.12928-6.05345h2.1535s2.72471 2.46208 4.92417 3.28278c1.95654.73534 3.54541 1.64139 6.56556 1.64139 4.70422 0 7.44534-1.83836 9.6448-2.66562 2.13709-.80428 8.74861-6.54258 9.84833-8.61729.89291.01314 1.93684.10176 2.76738.10176 10.99074 0 68.70854-1.12928 82.99518-1.12928v-72.01431h-.00326zm-184.96154 17.54316c3.34843.02626 7.58321 1.02423 8.61729 1.43457 1.36892.5515 4.68124 4.71079 5.23275 7.18272.54823 2.47193 6.04688 12.84552 6.87085 14.7725.82726 1.9237 4.24463 10.26852 4.92417 11.79502 1.09645 2.47522.00656 2.52774-1.64139 3.07924-1.30326.43333-4.97997 1.92042-8.00013.82069-3.02016-1.09645-4.63857-2.44895-8.20694-5.74486-3.57166-3.29591-7.69155-12.90132-9.33622-18.67244h-27.79856s12.09375-7.7211 14.56897-8.82082c2.46865-1.09973 8.77815-4.4416 11.7983-5.54133.75504-.27247 1.85805-.31515 2.9742-.30529zm128.3369 16.51237c1.31968 1.3722.85681 7.21226-.51539 8.312l-8.51225.41035-.30859-8.51553 9.33623-.20353v-.00328zm-25.75011.72222-.30859 8.92258-70.57972 3.69312-3.58807-10.66903s74.20063-1.94668 74.47638-1.94668zm-28.2122 16.30883 22.26051 9.23445s.32171 2.31765-2.56056 3.69312c-3.83428 1.82522-7.1302-.27903-6.87742-.20681-1.98608-.56464-12.82252-12.72076-12.82252-12.72076zm-6.66731.41035s13.33136 14.87098 14.15534 15.69825c.82726.82069 2.28809 2.87243 3.28278 3.79489 1.78583 1.64795 1.77926 3.02672.20681 4.41206-2.33405 2.0583-3.86054 2.59996-7.48801 2.35703-2.06487-.13788-3.7555-1.91058-5.13098-3.28278-1.99264-1.99264-6.93979-7.035-7.89836-8.41048-.96185-1.37548-11.18113-13.9518-11.18113-13.9518l14.05358-.61716h-.00003zm-20.61912 1.02751s6.59182 17.56614 7.69154 20.31055c1.09973 2.75097 2.46208 5.46255 2.46208 7.38625 0 1.92042-1.39518 3.58807-2.76738 4.41206-1.37548.82398-3.8868 1.3328-6.36202.51211-2.46865-.82069-4.30701-1.87118-5.1277-2.97419-.82726-1.09645-1.64139-3.07596-1.64139-3.07596l-10.77408-25.75011 16.51894-.82069zm-74.6832 4.61558c1.92042 3.57495 4.09362 4.98982 6.56556 5.54133 3.76206.83711 10.42282-.85352 12.61572-1.12928 2.19946-.27247 7.40923-1.06034 10.97761-1.3328 3.57166-.27575 8.2332-.27575 10.15691 0 1.92043.27247 5.77441 1.63155 6.87414 3.28278 1.09973 1.64795 1.6775 3.51257 1.12599 5.43627-.54822 1.92042-1.31968 3.80474-6.87085 3.59136-7.14004-.27575-13.25258 1.11614-17.64493 3.58807-3.33202 1.87774-7.60948 2.80021-12.00512 4.72063-4.39235 1.9237-7.76705 3.51913-14.36215 3.79489-6.58853.27575-10.42938.52196-17.84846-1.94998-7.41579-2.47193-8.74204-3.27293-12.31042-5.74486-3.57166-2.46865-6.04031-4.97669-8.51552-8.82082-2.41612-3.76206-3.59136-9.02764-3.59136-9.02764l44.83289-1.94998v.00003z" fill="#0061aa"/><path d="m206.53882 8.59718h42.80085l26.7612 79.31848h-34.14089l-3.23682-12.74702h-23.87893l-3.34186 12.74702h-31.60985l26.64631-79.32176v.00328zm27.34553 47.23918-6.58196-29.88312h-.22979l-7.26478 29.87984h14.07328l.00326.00328zm-122.75617-47.23918h48.4538c20.0709 0 29.52858 11.09579 29.52858 26.03242 0 15.82299-10.83973 26.5905-34.14088 26.5905h-10.84958v26.69555h-32.99191v-79.32175.00328zm34.61032 34.60048c8.53522 0 11.76547-2.96107 11.76547-8.56805 0-5.60042-2.76738-8.01654-9.92055-8.01654h-3.46333v16.58459zm-107.84909-34.60048h42.79757l26.76449 79.31848h-34.15074l-3.23354-12.74702h-23.87564l-3.34843 12.74702h-31.60002l26.64959-79.32175-.00328.00328zm27.33897 47.23918-6.5754-29.88312h-.22979l-7.26807 29.87984h14.07327v.00328zm-52.12723 38.11305c-1.33609-2.05174-2.11083-3.30248-2.11083-3.30248h264.78227v3.29263l-262.67145.00657v.00328z" fill="#ee3a43"/><path d="m247.75739 174.09842c15.44881-.0009 27.97181-12.52538 27.97088-27.97419-.0009-15.44881-12.52536-27.9718-27.97416-27.97091-15.44881.0009-27.97181 12.52538-27.97088 27.97419.0009 15.44881 12.52536 27.9718 27.97416 27.97089z" fill="#fff" stroke="#0061aa" stroke-miterlimit="45.02633" stroke-width="1.09973"/></svg>