<?xml version="1.0" encoding="UTF-8"?>
<svg id="Layer_2" data-name="Layer 2" xmlns="http://www.w3.org/2000/svg" viewBox="0 0 951.71 404.11">
  <g id="Layer_1-2" data-name="Layer 1">
    <g>
      <path d="M98.89,0l3.88.28c22.28,1.6,43.93,5.58,65.49,11.74,40.63,11.61,78.73,28.26,114.1,51.33,8.41,5.48,15.9,11.4,23.93,17.37s15.4,12.79,22.88,19.82c11.4,10.72,21.22,22.59,30.29,35.31,4.79,6.72,8.17,13.59,11.82,20.88,8.03,16.01,11.61,30.25,9.82,48.36-.63,6.34-1.68,12.3-3.87,18.35-5.59,15.44-15.7,30.54-27.89,41.53-19.04,17.16-48.61,27.57-73.83,32.21-24.97,4.59-50.29,4.59-75.28.32l-19.37-3.97c.08,9.61-1.15,17.78-10.66,19.2-4.73.71-9.41.92-13.72-1.36-10.13-5.37-9.36-20.05-11.07-31.67-16.44-7.73-32.15-16.46-46.53-27.65l-14.67-12.27c-4.88-4.08-9.13-8.67-13.37-13.42s-7.93-10.19-10.84-16.04c-4.03-8.09-3.14-17.34,2.47-24.48,8.36-10.65,25.83-18.49,38.99-22.85,9.8-3.25,19.27-6.57,29.42-8.4l15.63-2.81.58-16.19c.41-11.47,2.11-22.6,3.75-33.98.82-5.72,2.26-11.11,4.17-16.4.85-2.36,3.24-3.61,5.66-2.72,11.72,4.3,17.04,30.76,17.61,43.23l1.04,22.68c8.49-.04,16.34-.61,24.67,0,19.37,1.4,38.21,4.92,56.52,11.06,10.27,3.44,19.31,8.74,26.2,17.02,4.88,5.86,8.12,13.53,6.84,21.36-1.99,12.16-12.16,22.09-24.21,23.96-5.83.91-18.7-1.41-19.13-5.09-.08-.69.47-2.37,1.11-2.71l5.59-3c4.61-2.47,10.37-6.6,9.75-10.87-.68-4.6-8.74-7.4-14.36-9.01-18.68-5.38-37.71-8.75-57.12-10.34l-15.58-.71,1.86,86.95c17,3.5,33.7,4.69,50.79,4.17,14.27-.44,27.81-1.77,41.66-4.91,19.91-4.52,42.87-14.61,56.32-30.03,14.86-17.05,18.57-40.86,10.48-62.02-12.56-32.84-36.62-57.64-64.65-78.2-37.36-27.41-81.67-46.95-126.48-58.65-35.7-9.32-73.81-13.54-110.54-10.08-8.7.82-17.1,2.33-25.52,6.01,5.36,3.28,13.92.48,18.03,6.01.87,1.18,1.26,3.08.7,4.33-2.4,5.38-18.58,4.14-27.12,1.04C1.82,43.52-.05,40.63,0,37.2c.06-3.6,1.47-6.74,3.03-9.93,4.28-8.76,11.44-14.98,20.95-17.98C39.17,4.51,54.79,1.77,70.72.53L77.31.01h21.58ZM97.18,232.39c10.45,6.97,20.67,13.06,31.92,18.13l16.45,6.41-.12-75.45-14.73,1.21c-16.03,1.31-31.61,4.15-47.08,8.42-7.97,2.71-19.47,6.29-15.61,14.15,1.6,3.25,4.15,5.91,6.74,8.55,6.89,7.01,13.99,13.04,22.44,18.58Z"/>
      <path d="M951.7,200.74v13.9s-.29,3.37-.29,3.37c-1.86,15.74-8.46,30.03-18.99,41.94-17.03,19.26-45.64,34.83-71.92,32.39l-8.46,27.24-7.96,31.38-10.7,50.07c-.56,2.61-5.01,3.61-7.07,2.77-3.72-1.51-6.88-3.43-10.05-5.74-5.14-3.73-8.4-9.07-9.53-15.42s-1.26-12.2-.63-18.52c2.28-22.72,7.27-48.76,15.12-70.12l9.28-25.25c-17.21-36.72,1.89-74.33,25.03-103.91,3.94-5.04,8.01-9.49,12.99-13.45,1.17-.93,3.32-1.41,4.69-.95,6.66,2.22.37,19.55-3.8,26.79l-9.65,16.77c-6.29,10.94-11.3,22.19-13.85,34.58-.87,4.23-1.09,8.17,0,12.5l20.8-28.17c6.08-8.24,12.92-15.33,20.14-22.5l11.34-11.27c6.15-6.11,13.06-11.07,21.22-14.24,4.27-1.66,8.92-1.85,13.06.09,12.64,5.91,18.33,22.64,19.24,35.74ZM911.78,245.5c14.34-10.61,24.24-30.1,21.38-48.11-.49-3.08-2.01-6.91-4.17-7.43-.68-.16-2.35.27-2.92.85l-8.29,8.43c-8.6,9.82-15.87,20.22-22.98,31.17l-12.65,19.48-4.52,7.98c11.72.58,25.23-5.77,34.15-12.38Z"/>
      <path d="M521.82,224.14c5.66,1.58,10.54,3.81,15.53,6.3,2.08,1.04,3.36,3.86,2.11,5.94-3.56,5.93-16.56,9.05-24.17,9.71-5.6.49-10.76-1.1-15.9-3.15l-17.12-6.8c-4.74-1.88-9.9-1.95-14.62-.13-3.28,1.27-6.12,4.5-5.34,8.13.57,2.66,3.28,4.66,5.61,5.8,7.1,3.46,14.51,4.64,22.44,4.6,20.42-.1,43.56-3.5,59.8-16.05,2.96-2.29,4.57-6.53,2-9.47-4.64-5.31-11.79-7.67-18.94-9.34-9.09-2.12-18-3.51-27.33-4.34l-33.39-2.96c-5.68-.5-10.98-1.24-16.42-2.84-5.75-1.7-10.8-6.01-11.84-12.11-1.88-10.99,2.55-21.78,11.01-28.97,6.49-5.51,13.87-9.26,22.19-11.9,24.07-7.65,49.76-9.42,74.77-5.83,8.68,1.24,16.59,3.65,24.09,7.6,2.34,1.24,3.48,3.33,2.85,5.94-1.27,5.21-5.1,9.22-10.37,10.81-4.36,1.31-8.9,2.05-13.57,2.28l-29.25,1.46-30.61,1.93c-6.99.44-30.63,4.64-26.41,8.22,2.15,1.82,5.42,2.45,8.36,2.8l52.96,6.39c8.67,1.05,16.82,2.78,24.8,5.93,7.19,2.84,12.63,7.62,16.18,14.68,6.11,12.12,6.6,27.49-.15,39.63-5.4,9.7-14.73,16.24-25.08,19.97-20.5,7.39-42.83,6.31-62.97-1.79-12.29-4.94-28.39-15.49-31.79-28.09-2.16-8.02.29-16.06,6.63-21.3,15.43-12.76,44.68-8.45,63.95-3.06Z"/>
      <path d="M805.04,255.63c-.33,3.32-2.67,5.7-5.14,7.62-14.81,11.51-35.93,21.85-54.79,23.7-3.56.35-6.96-.25-10.39-1.08-5.89-1.43-11.18-4.16-15.18-8.84-10.44-12.24-10.7-29.3-4.36-43.91,1.46-3.37,3.85-7.14,4.06-10.8.4-6.77-5.15-15.86.61-20.5,2.42-1.95,5.46-2.64,8.72-2.76,1.67-1.17,2.96-2.97,3.68-4.98l6.34-17.67c-10.71-2.74-21.94-4.73-23.66-15.99.2-2.3,2.01-4.47,4.52-5.08,11.8-2.88,23.52-5.14,35.77-6.29l39.19-3.67c9.27-.31,17.45,3.76,23.06,10.78,2.48,3.1,4.67,6.25,5.88,9.9s-.17,7.43-3.75,8.5l-8.53,2.53-25.7,2.16-22.01.02-5.3,17.62,32.56-.2c3.72-.02,7.67,1.45,9.22,4.88,2.02,4.51,2.21,9.98.5,14.63-.79,2.14-3.78,3.44-6.05,3.49l-31.93.75-12.72,1.07-8.06,24.9c3.95.28,7.22-.21,11.01-.81l39.4-6.2c3.5-.55,6.36.84,8.37,3.37,2.88,3.63,5.17,7.74,4.66,12.86Z"/>
      <path d="M610.45,277.81c-1.58,4.08-5.51,6.19-9.46,5.59-10.83-1.64-14.41-12.54-15.39-22.98-2.45-26.11,4.33-60.26,13-85.21,2.89-8.31,6.89-18.5,15.46-15.16,3.14,1.22,5.75,3.34,7.7,6.25l35.98,53.54,9.19,13.89c.84,1.27,2.3,2.14,3.95,2.02.07-11.52-.98-22.41-2.95-33.67l-8.2-34.92-6.03-22.34c-1.37-5.06-2.38-12.05.91-14.22,3.96-2.61,10.36,1.87,14.07,6.04,7.26,8.16,13.42,17.07,17.93,27.08,11.38,25.24,16.74,54.13,11.33,81.37-1.55,7.79-4.58,14.62-9.46,20.84-7.48,9.54-22.16,12.6-28.7,4.68l-6.95-8.42c-6.37-9.02-11.84-18.22-17.03-28.02l-15.77-29.74c-.7-1.31-1.6-2.09-3.07-2.72l-1.12,5.7-1.53,33.05-1.21,25.42c-.19,4.05-1.14,8.04-2.64,11.91Z"/>
      <path d="M420.74,128.13c-6.14.52-16.8-.88-22.55-3.56l-2.23,3.89c-1.33,2.31-2.7,4.6-4.87,6.11s-4.66,1.34-6.61-.19c-5.21-4.1-7.55-10.43-7.08-17.12.2-2.91-.21-5.9-2.11-8.25-7.86-9.68-9.77-22.59-5.29-34.35,3.25-8.51,8.54-15.45,15.15-21.82,16.14-15.54,39.23-26.72,62.02-25.57,8.94.45,17.05,3.87,23.1,10.39.65.7,1.71,2.38,2.58,2.66,8.8,1.35,16.56,5.68,21.3,13.26,7.45,11.92,1.7,27.61-7.38,38.08l-7.93,7.92c-14.34,14.33-37.44,26.81-58.09,28.56ZM387.5,92.93l8.31-11.64c7.96-9.6,16.56-18.13,26.17-26.21-9.68-.14-20.04,6.79-26.76,13.15-7.11,6.71-13.32,16.53-7.72,24.71ZM470.41,85.23c6-5.32,11.05-13.73,8.41-20.69-2.19-5.77-8.61-8.26-14.38-6.78-5.64,1.44-10.64,3.39-15.49,6.71-11.2,7.66-21.38,16.45-30.06,26.91l-8.67,11.97c22.34,2.85,43.8-3.58,60.19-18.11Z"/>
      <path d="M425.09,281.69c-7.06,2.81-18.88,1.15-22.42-7.31-1.15-2.74-2.08-5.72-2.25-8.76l-1.53-26.77.96-38.44c.26-10.33,4.03-50.84,12.73-49.88,11.13,1.23,13.27,14.95,14.58,25.63,1.72,14,2.69,27.62,3.24,41.8l1.54,39.77c.2,5.09.03,9.85-.66,14.84-.52,3.75-2.55,7.66-6.19,9.11Z"/>
    </g>
  </g>
</svg>