<?xml version="1.0" encoding="UTF-8"?>
<svg id="Layer_2" data-name="Layer 2" xmlns="http://www.w3.org/2000/svg" viewBox="0 0 1919.15 177.96">
  <defs>
    <style>
      .cls-1 {
        fill: #ea1a03;
      }
    </style>
  </defs>
  <g id="Layer_1-2" data-name="Layer 1">
    <g>
      <path class="cls-1" d="M965.36.44c9.06,1.38,18.1,4.25,25.22,10.17,14.16,11.78,14.33,31.95.55,43.74l-16.02,11.36c11.95-3.24,22.51-6.37,34.31-5.24,14.65,1.4,25.52,11.52,27.01,26.1,1.91,18.58-8.23,37.07-20.4,51.74l31.88,35.22-39.11.33-14.62-15.79c-17.91,12.48-43.4,22.75-64.51,18.99-14.02-2.49-26.11-10.2-32.55-20.74-16.75-27.44-2.66-59.37,27.94-73.44-7.61-8.29-13.77-16.37-17.28-26.34-4.65-13.19-3.16-27.92,5.23-39.09,6.62-8.82,16.46-13.66,27.13-15.88,1.53-.32,2.71-.52,3.38-1.56l21.85.44ZM953.81,70.55c17.88-7.03,27.97-25.73,22.18-44.25-2.9-9.28-12.05-13.54-21.47-13.45-8.44.09-16.42,3.07-20.34,10.67-5.06,9.81-2.96,21.17,4.18,29.34l15.45,17.69ZM1014.8,93.69c-2.7-10.6-10.73-17.2-20.91-19.61-10.93-2.04-21.91-.88-33.18,3.65l47.67,52.3c7.07-11.14,9.64-23.69,6.42-36.34ZM957.84,159.78c10.69-.87,19.92-4.42,28.98-9.87l-55.09-59.91c-12.64,9.89-17.11,25.64-13.59,40.69,4.27,18.26,20.28,30.68,39.7,29.09Z"/>
      <path class="cls-1" d="M0,133.26v-22.87c1.69.26,3.42-.09,5.43-.59l24.7-6.11c.79,18.32-2.97,42.15,9.81,52.63,9.34,7.66,24.7,7.54,33.89-.14,6.68-5.58,8-13.7,9.1-22.09l.05-130.22h30.24s-.08,122.3-.08,122.3c-1.68,31.51-20.57,50.69-52.14,51.03-2.77.03-5.41,1.77-8.26-.14-27.23.05-46.47-14.05-51.46-41.1-.24-1.3-.44-2.2-1.27-2.7Z"/>
      <path class="cls-1" d="M1399.26,173.78l-.27-86.11c-.02-6.24-2.19-12.91-7.22-16.59-8.4-6.14-20.82-5.45-28.71,1.25-5.49,4.66-8.51,11.88-8.53,19.26l-.28,82.19-28.76-.02V3.92s28.72-.07,28.72-.07l.48,64.76c6.96-10.57,15.2-16.65,26.6-17.99,10.51-1.5,20.98-.5,30.31,4.79,9.96,6.52,15.96,17.5,16.03,29.85l.43,88.49-28.8.02Z"/>
      <path class="cls-1" d="M340.06,173.77l-.1-87.18c-.93-6.61-2.71-13.09-8.64-16.52-8.46-4.9-20.11-4.14-27.6,2.36-5.52,4.79-8.33,12.15-8.35,19.53l-.3,81.82-28.64-.02-.04-169.84,28.68-.06.4,64.87c7.15-11.06,16.15-17.12,28.12-18.36,10.52-1.09,20.78.04,29.92,5.72,9.11,6.55,14.9,16.91,14.96,28.69l.45,88.99h-28.86Z"/>
      <path class="cls-1" d="M1853.26,73.19c-5.77,5.46-7.82,12.99-7.84,20.44l-.18,80.27-28.75-.02V52.57s28.75.02,28.75.02c.49,5.56-.88,10.26.78,16.16,6.31-10.64,15.37-16.79,26.98-18.09,9.65-1.08,19.3-.62,28.07,4.17,10,5.45,17.28,16.21,17.38,28.38l.7,90.68h-28.98s0-85.35,0-85.35c-.66-6.14-1.61-12.56-6.58-16.67-8.35-6.9-22.13-6.45-30.33,1.33Z"/>
      <path class="cls-1" d="M796.06,71.58c-6.64,4.94-9.66,12.95-9.68,20.96l-.2,81.3h-28.75s-.02-121.26-.02-121.26l28.72-.1.83,16.1c6.89-11.82,17.7-17.86,30.9-18.4,10.73-.44,21.52,1.18,29.79,8.5,7.51,6.64,11.86,16.45,11.9,26.92l.33,88.24h-28.78s-.3-87.25-.3-87.25c-.02-6.61-3.13-13.31-8.65-16.51-7.85-4.55-18.47-4.18-26.09,1.49Z"/>
      <path class="cls-1" d="M429.86,72.12c-6.13,5.05-8.88,12.79-8.9,20.4l-.21,81.26-28.75-.02V52.56s28.42-.18,28.42-.18l1.15,16.19c6-10.2,14.43-16.17,25.33-17.78,10.43-1.54,21.18-.99,30.49,4.38,10.5,6.06,16.66,17.63,16.72,30.09l.45,88.51h-28.84s-.22-86.09-.22-86.09c-.02-6.24-2.21-12.91-7.26-16.59-8.08-5.9-20.34-5.58-28.38,1.04Z"/>
      <path class="cls-1" d="M1489.19,72.04c-5.95,4.74-8.98,12.1-9.01,19.52l-.3,82.28h-28.73s-.01-121.27-.01-121.27l28.66-.09.88,16.09c6.26-10.56,15.52-16.85,27.5-18.05,10.13-1.01,20.3-.31,29.13,5.17,9.74,6.05,15.79,16.95,15.85,28.97l.46,89.18h-28.73s-.29-86.49-.29-86.49c-.02-6.54-2.72-13.43-8.23-16.91-8.07-5.09-19.41-4.6-27.19,1.6Z"/>
      <path class="cls-1" d="M1095.38,175.19c-29.51-7.68-38.28-34.55-36.09-64.09l30.04-7.34.08,24.54c.02,5.63.62,11.31,2.4,16.43,3.08,11.51,13.02,17.39,24.55,17.2s21.13-6.42,23.93-17.99c1.22-5.06,1.94-10.09,1.79-15.76V3.89s30.28,0,30.28,0l-.14,123.16c-2.44,31.59-20.13,48.91-51.74,50.32-3.36.15-5.81.5-9.16.03l-15.95-2.21Z"/>
      <path class="cls-1" d="M735.06,141.05c-8.9,22.87-29.7,34.95-53.39,35.31-25.33.38-47.47-13.16-55.93-37.28-11.65-33.23-.44-74.58,34.39-85.81,11.9-3.84,24.14-4.17,36.35-1.39,38.85,8.85,52.48,53.45,38.58,89.18ZM710.03,113.37c.08-23.14-5.77-50.49-29.85-49.97-23.39.51-28.84,28.38-28.6,50.96s6.25,48.9,29.55,48.58c23.46-.32,28.83-27.07,28.91-49.57Z"/>
      <path class="cls-1" d="M244.5,139.85c-11.08,29.9-42.13,42.01-72.47,34.01-39.48-10.4-51.23-59.04-34.33-93.46,12.35-25.14,40.19-34.6,67.23-28.72,38.94,8.46,52.7,52.72,39.57,88.17ZM219.01,112.38c-.05-23.34-6.3-50.03-30.55-48.99-23.05.99-28.04,28.77-27.89,50.97.16,22.6,6.42,49.06,29.76,48.53s28.73-27.92,28.68-50.51Z"/>
      <path class="cls-1" d="M1794.7,139.85c-11.95,32.28-47.51,43.75-77.82,32.4-13.85-5.18-24.19-15.22-30.17-28.79-14.62-33.17-3.93-78.19,32.15-89.97,15.57-5.08,32.42-4.6,47.43,2.07,30.8,13.7,39.8,53.51,28.42,84.28ZM1769.14,110.4c-.34-22.09-6.83-47.23-29.53-46.93-23.73.31-29.05,28.1-28.89,50.89s6.55,49.83,30.77,48.61,28-30.08,27.65-52.57Z"/>
      <path class="cls-1" d="M1303.73,139.58c-11.69,31.56-44.8,43.21-75.46,33.48-36.41-11.56-47.25-56.85-32.6-90.1,12.24-27.77,42.47-38.11,71.04-30.54,36.9,9.78,49.64,53.06,37.01,87.16ZM1278.15,113.36c.04-22.18-5.37-49.33-28.32-49.95s-29.79,25.18-30.14,47.92c-.35,23.09,5.18,51.62,29.19,51.63,23.57,0,29.23-26.91,29.27-49.6Z"/>
      <path class="cls-1" d="M584.5,172.1c-28.09,9.5-72.84,4.29-76.4-29.33l25.88-7.53c1.65,12.47,6.25,24.12,18.57,27.06,7.11,1.7,14.58,1.51,21.41-.85,7.34-2.54,11.44-8.69,12-16.2.63-8.45-3.97-15.05-12.19-17.25l-35.97-9.6c-16.42-4.38-25.67-19.46-24.49-36.08,2.31-32.47,44.4-37.75,72.28-27.74,10.76,4.65,18.78,12.44,21.14,24.38l-24.46,7.25c-.7-8.34-3.76-15.98-11.18-19.99-7.83-4.24-17.48-4.27-25.63-.91-6.2,2.56-9.27,8.31-8.7,14.65.5,5.58,4.71,10.91,11.07,12.64l36.52,9.97c16.57,4.52,25.74,18.75,25.07,35.67-.61,15.65-9.42,28.62-24.92,33.86Z"/>
      <path class="cls-1" d="M1644.32,171.89c-28.91,10.27-74.45,3.94-76.99-29.35l25.93-7.23c1,8.45,3.18,17.15,9.93,22.77,10.43,8.7,34.62,7.16,40.1-5.6,2.89-6.71,2.62-14.63-2.52-19.77-3.2-3.2-7.74-4.82-12.03-5.95l-31.55-8.26c-16.09-4.21-25.57-18.57-24.81-35,.61-13.3,8.12-24.05,20.97-28.92,25.2-9.54,66.22-5.26,72.5,24.27l-24.52,7.17c-.71-9.4-4.78-17.18-12.87-20.7-7.24-3.15-15.57-2.98-22.88-.4-6.13,2.16-9.56,7.31-9.76,13.13s3.24,11.07,9.15,13.72l21.61,6.2c7.81,2.24,15.62,3.62,22.72,7.14,12.76,6.32,19.45,18.05,19.25,32.14-.22,15.55-8.5,29.03-24.22,34.62Z"/>
    </g>
  </g>
</svg>