<?xml version="1.0" encoding="UTF-8"?>
<svg id="Layer_2" data-name="Layer 2" xmlns="http://www.w3.org/2000/svg" viewBox="0 0 1279.01 216.22">
  <defs>
    <style>
      .cls-1 {
        fill: #e22928;
      }

      .cls-2 {
        fill: #1e3d6d;
      }
    </style>
  </defs>
  <g id="Layer_1-2" data-name="Layer 1">
    <g>
      <polygon class="cls-2" points="87.91 111.75 152.62 208.38 101.5 208.76 44.35 122.45 44.22 208.63 0 208.63 0 14.34 44.2 14.26 44.32 105.91 110.57 14.37 160.01 14.43 87.91 111.75"/>
      <g>
        <path class="cls-2" d="M437.88,101.17l-.08,107.46h-41.39s.07-107.43.07-107.43l-17.81-.14v-35.78s17.64,0,17.64,0c-.71-26.35,5.76-51.01,31.99-60.68,14.27-5.26,29.46-5.8,44.24-2.69v35.48c-6.67-.11-12.95-1.03-19.41.04-7.85,1.3-14.21,6.5-14.63,14.4l-.71,13.45,27.61.04.12,35.67-27.62.17Z"/>
        <path class="cls-2" d="M561.72,213.69c-23.32.88-46.43-5.02-57.59-26.88-4.46-8.75-6.86-18.08-6.9-28.02l-.23-57.41-16.89-.19v-35.83s16.9-.18,16.9-.18l.06-38.77,40.72-.07.02,38.85,30.85.22v35.75s-30.94.19-30.94.19l.74,58.14c1.54,20.04,10.08,38.41,23.26,54.21Z"/>
      </g>
      <g>
        <path class="cls-1" d="M1279.01,133.81l-3.48-5.95c-6.89-7.16-19.06-10.03-28.06-4.84-5.58,3.22-7.48,10.48-7.78,16.94,5.34-.77,9.91-1.67,14.32.58,4.39,2.24,6.27,6.71,6.85,10.59.78,5.16-1.56,8.57-4.47,12.63-3.25,4.56-7.12,8.83-13.36,8.84l-62.85.08c-.9,0-1.53-.88-1.69-1.24-.27-.57-.48-1.45.31-2.53l67.73-92.45c1.1-1.51,1.02-3.78.62-5-.36-1.09-2.18-2.06-4.13-2.05l-71.88.56c-8,.06-14.39,8.31-16.71,14.96l-10.13,28.98c7.95,1.02,8.27-8.62,15.8-8.57l41,.25c-1.21,5.51-4.32,9.44-7.73,13.36l-35.67,41.05c-8.94,10.29-36.68,41.73-34.86,46.63.31.83,1.74,1.87,3.41,1.87l102.72.29c3.83.01,8.65.68,11.2-2.52,14.78-18.56,32.72-43.32,38.86-64.76v-7.7Z"/>
        <path class="cls-1" d="M797.5,193.39c-7-5.33-7.85-12.7-5.74-20.71l25.57-96.9c3.87-14.68,8.69-28.19,14.98-41.76,3.64-7.85,8.2-14.36,15.3-19.97l-38.3-.18c-13.33-.06-23.89,18.35-26.68,32.33l-16.29,59.22h-34.9s23.58-84.65,23.58-84.65c.45-2.03.22-3.74-.79-5.01-.63-.79-2.2-1.86-3.89-1.89-28.14-.54-55.61-.82-83.55,2.45-15.63,1.83-30.22,7.58-40.12,19.85-14.26,17.67-11.31,43.85-2,64.26,1.5,3.29,4.29,4.74,7.8,4.54,10.44-.58,20.4-1.41,30.6-3.67-.88-4.76-2.58-8.04-4.61-11.6-8.02-14.04-10.52-30.34-4.92-45.73,7.72-21.25,33.3-27.29,54.08-20.03,2.73.96,2.99,6.39,2.17,9.26l-34.03,119.48c-4.09,14.34-11.58,26.89-20.76,37.84-7.03,8.38-16.56,10.29-26.46,6.83-6.65-2.32-11.75-5.54-15.36-11.82-8.74-15.17-12.15-32.29-10.98-50,.35-5.24,1.02-10.16-.35-15.42-14.66,3.15-27.95,8.47-39.43,17.33-5.08,20.59,2.18,43.34,14.6,60.29,19.89,27.13,54.94,20.02,83.99,6.41,13.28-6.22,25.52-12.8,36.78-21.56,8.51-6.61,15.04-16.38,18.15-26.47l11.01-35.68,34.72.09-17.8,66.11c-3.5,9.83-3.75,24.65.98,25.05,29.59,2.55,60.19-12.56,52.65-18.3Z"/>
        <path class="cls-1" d="M1107.54,184.13c-.36-5.16,1.06-9.95,2.46-15.02l23.04-83.25c1.72-6.22-.09-13.35-5.29-16.54-15.21-9.31-50.8,6.29-66.61,19.45,1.71-7.33,3.97-15.94.33-18.75-.83-.64-2.64-1.23-4.25-.97-15.91,2.57-31.21,7.39-44.97,15.63-8.2,4.91,5.07,8.78,1.47,20.57l-22.37,73.13c-3.24,10.6-8.91,27.44-.91,33.29,7.24,5.29,29.65-4.85,40.98-11.16,2.19-1.22,3.34-3.7,3.09-6.2-.93-9.44.51-18.31,3.29-27.36l14.88-48.53c4.5-14.66,24.48-26.97,30.76-22.5,4.12,2.93-.09,13.49-2.39,21.62l-17.35,61.34c-2.79,9.85-9.8,25.9-2.6,31.97,8.17,6.89,32.9-3.49,46.35-9.28,4.25-1.83,8.29-4.01,10.71-8.6-5.54-1.23-10.26-3.59-10.63-8.85Z"/>
        <path class="cls-1" d="M973.32,192.08c-6.14-1.11-9.92-7.22-7.95-13.94l25.64-87.38,2.79-15.64c.31-1.73-.74-3.71-1.68-4.68-.92-.95-2.96-1.67-4.85-1.39-15.74,2.31-31,6.95-44.67,14.86-1.58.91-2.77,2.42-3.05,3.58-.83,3.43,6.64,6.89,3.2,17.75l-25.84,81.56c-2.08,6.58-3.18,13.56-1.08,19.98,5.16,15.74,42.92-1.36,58.35-10.39.89-.52,1.48-2.02,1.42-2.64-.07-.69-.92-1.42-2.26-1.66Z"/>
        <path class="cls-1" d="M965.89,51.94c1.69,1.31,4.16,1.65,6.37,1.16,10.88-2.44,32.38-11.06,34.66-19.26l5.51-19.79c.72-2.59-1.56-5.08-4.23-5.04-12.78.23-33.03,4.77-37.95,13.98-4.56,8.54-9.27,25.14-4.36,28.95Z"/>
        <path class="cls-1" d="M894.24,183.75c-8.86,3.6-18.13,4.72-26.83,1.47-15.16-5.67-14.37-26.79-7.86-42.69,26.32-6.72,61.1-18.81,70.25-45.02,3.47-12.3-2.12-24.41-14.59-27.84-50.56-1.25-88.17,28.98-101.65,76.91-3.59,12.75-5.55,25.3-3.68,38.28,2.14,14.83,12.36,25.9,27.46,28.47,13.36,2.28,27.71.71,40.39-4.78,11.81-5.12,21.32-13.91,28.73-23.97,1.41-1.91,1.96-4.44.93-6.15l-13.12,5.33ZM890.81,86.87c5.63,3.44-5.46,26.72-10.55,37.29-6.39,1.78-11.45,3.95-18.41,4.45,4.78-14.47,17.72-48.62,28.96-41.74Z"/>
      </g>
      <g>
        <path class="cls-2" d="M243.58,166.92c-.61-19.59,9.79-35.93,27.26-43.34,11.33-4.81,23.51-6.3,35.8-4.72l15.47,1.99c-.81-6.89-3.41-12.83-8.77-16.8-8.29-3.84-17.29-4.95-26.57-4.48-9.61.47-18.46,2.23-28.48,4.43l-.07-39.09c26.98-4.31,54.26-6.88,79.51,4.94,19.53,10.29,24.9,30.14,24.94,51.83l.14,86.95-40.17.02-.64-7.17c-14.22,8.84-30.18,11.7-45.76,7.37-19.21-5.34-32.03-21.48-32.67-41.94ZM320.79,177.31c.93-10.11,1.09-17.89.21-27.18-8.1-2.06-16.5-2.96-24.75-1.38-8.75,1.68-14.48,7.67-14.55,16.18-.06,7.65,5.43,13.96,13.85,15.76,8.28,1.77,17.18-.28,25.23-3.39Z"/>
        <path class="cls-2" d="M241.95,106c-18.66,3.28-34.91,14.48-36.69,33.95l-.17,68.69-42.08-.07V65.8s41.71-.06,41.71-.06l.23,26.39c7.21-14.61,20.77-23.85,37.01-26.57v40.44Z"/>
      </g>
    </g>
  </g>
</svg>