<?xml version="1.0" encoding="UTF-8"?>
<svg id="Layer_2" data-name="Layer 2" xmlns="http://www.w3.org/2000/svg" viewBox="0 0 468 260.85">
  <defs>
    <style>
      .cls-1 {
        fill: #df6a2e;
      }

      .cls-2 {
        fill: #fff;
      }

      .cls-3 {
        fill: #f1a0a4;
      }
    </style>
  </defs>
  <g id="Layer_1-2" data-name="Layer 1">
    <g>
      <path class="cls-2" d="M74.86,242.93l-5.32,16.57H15.37l1.37-4.11c1.87,0,3.32-.3,4.33-.84,1.02-.56,1.75-1.28,2.25-2.18.47-.91.97-2.18,1.5-3.83l12.75-39.2c.24-.77.34-1.5.34-2.16,0-2.99-1.85-4.49-5.52-4.49h-1.42l1.42-4.16h29.36l-1.39,4.16c-2.28,0-3.98.15-5.08.45-1.12.3-1.99.89-2.62,1.77-.64.89-1.32,2.39-2.05,4.52l-11.55,35.83c-.87,2.48-1.29,4.41-1.29,5.81,0,1.09.44,1.96,1.32,2.57.84.63,1.94,1.02,3.22,1.19,1.28.19,2.74.28,4.4.28,3.71,0,6.9-.28,9.6-.82,2.7-.54,5.23-1.69,7.57-3.45,2.36-1.74,4.44-4.39,6.32-7.93h4.66Z"/>
      <path class="cls-2" d="M114.7,228.64c0-.98-.36-1.89-1.09-2.71-.72-.84-1.72-1.25-2.98-1.25-2.22,0-4.25.73-6.08,2.18-1.86,1.46-3.43,3.18-4.69,5.17-1.26,1.97-2.28,3.98-3.1,6.03-.81,2.05-1.29,3.3-1.49,3.79,6.42-1.02,11.25-2.75,14.53-5.19,3.26-2.44,4.9-5.1,4.9-8.01M124.77,228.82c0,1.24-.39,2.66-1.19,4.24-.78,1.62-2.23,3.33-4.34,5.12-2.11,1.8-5.12,3.39-9.04,4.78-3.91,1.37-8.81,2.32-14.75,2.84l-1.14.09c-.23,1.19-.38,2.31-.38,3.32,0,2.22.57,3.82,1.69,4.81,1.12.97,2.76,1.46,4.9,1.46,4.76,0,9.29-2.44,13.63-7.29h5.04c-1.96,2.86-4.94,5.68-8.94,8.47-4,2.8-8.74,4.19-14.22,4.19-3.81,0-7.07-.97-9.79-2.89-2.72-1.94-4.07-4.79-4.07-8.54,0-4.59,1.35-9.05,4.06-13.38,2.7-4.35,6.37-7.86,11.04-10.58,4.66-2.72,9.74-4.09,15.23-4.09,4.41,0,7.56.71,9.45,2.12,1.89,1.4,2.83,3.19,2.83,5.33"/>
      <path class="cls-2" d="M215.35,198.53l-5.62,17.45h-4.5c.27-1.5.42-2.88.42-4.14,0-3.87-.9-6.32-2.69-7.36-1.79-1.03-4.1-1.55-6.87-1.55h-5.67l-14.31,44.14c-.57,1.72-.85,3.04-.85,3.96,0,1.68.64,2.83,1.97,3.43,1.3.59,2.61.89,3.92.89h2.37l-1.37,4.16h-31.95l1.27-4.16h1.58c3.23,0,5.42-.42,6.52-1.29,1.14-.87,2.12-2.69,2.98-5.45l14.74-45.67h-4.86c-3.29,0-6.42.81-9.39,2.4-2.95,1.61-5.71,5.16-8.29,10.65h-4.56l5.65-17.45h59.5Z"/>
      <path class="cls-2" d="M247.12,198.53l-1.38,4.14c-1.29.04-2.37.29-3.22.77-.86.47-1.57,1.17-2.09,2.08-.52.91-1.07,2.24-1.63,3.98l-12.08,37.58c-.56,1.71-.86,3.03-.86,3.95,0,1.53.66,2.64,1.98,3.31,1.3.69,2.86,1.01,4.64,1.01l-1.25,4.16h-26.82l1.37-4.16c2.29,0,3.9-.59,4.84-1.75.95-1.2,1.78-2.88,2.48-5.08l12.17-37.53c.58-1.88.87-3.2.87-3.95,0-1.74-.59-2.87-1.75-3.4-1.16-.52-2.42-.85-3.84-.97l1.4-4.14h25.14Z"/>
      <path class="cls-2" d="M313.51,233.12l-1.47,4.15c-2.05.03-3.55.55-4.48,1.56-.92,1.01-1.82,2.85-2.75,5.55l-4.76,14.66-5.66-3.41c-3.46,1.55-6.77,2.77-9.92,3.65-3.18.89-6.72,1.33-10.64,1.33-5.74,0-10.52-1.1-14.33-3.29-3.82-2.19-6.63-5.12-8.42-8.76-1.79-3.62-2.69-7.53-2.69-11.68,0-4.75,1.03-9.49,3.1-14.19,2.1-4.7,4.99-8.94,8.71-12.77,3.68-3.81,7.98-6.82,12.85-9.02,4.86-2.24,9.96-3.34,15.29-3.34,7.89,0,13.49,2.61,16.8,7.85,1.54-1.39,2.85-3.51,3.9-6.4h4.47l-4.91,20.9h-4.37c0-4.01-.62-7.43-1.85-10.24-2.39-5.31-6.62-7.97-12.73-7.97-4.17,0-7.96,1.27-11.38,3.8-3.43,2.53-6.32,5.78-8.65,9.74-2.36,3.99-4.16,8.29-5.43,12.9-1.25,4.63-1.89,8.91-1.89,12.85,0,2.09.31,4.25.92,6.46.64,2.2,1.93,4.19,3.92,5.91,1.97,1.72,4.8,2.6,8.47,2.6,3.35,0,6.56-.8,9.63-2.43,3.11-1.62,5.19-4.26,6.27-7.93l.49-1.68c.3-1.04.47-1.88.47-2.46,0-2.8-2.11-4.19-6.34-4.19l1.39-4.15h26.01Z"/>
      <path class="cls-2" d="M370.99,212.35c0-4.05-1.38-6.62-4.16-7.73-2.77-1.12-6.06-1.68-9.86-1.68h-5.76l-7.79,24.44h4.99c7.13,0,12.05-.74,14.79-2.22,2.47-1.33,4.39-3.18,5.75-5.56,1.36-2.35,2.03-4.78,2.03-7.25M384.51,213.93c0,1.57-.32,3.26-.96,5.07-.64,1.82-1.75,3.58-3.35,5.29-1.6,1.69-3.85,3.15-6.77,4.36-2.93,1.22-6.58,1.99-10.98,2.28,1.6,1.17,2.88,2.51,3.85,4.01.97,1.5,2.04,4.03,3.17,7.56.87,2.59,1.69,4.68,2.46,6.26.79,1.59,1.96,2.98,3.5,4.18,1.55,1.18,3.69,2,6.39,2.41l-1.35,4.15h-16.65c-.85-1.09-1.66-2.46-2.47-4.13-.79-1.65-2-4.66-3.66-9.03l-1.95-5.25c-.97-2.75-1.75-4.67-2.32-5.78-.57-1.1-1.5-1.97-2.78-2.6-1.3-.61-3.24-.93-5.89-.93h-2.7l-4.99,15.33c-.57,1.7-.86,2.99-.86,3.86,0,1.88.77,3.08,2.33,3.6,1.54.52,3.5.78,5.85.78l-1.39,4.15h-29.21l1.34-4.15c1.79,0,3.15-.19,4.14-.57.99-.39,1.8-1.07,2.45-2.05.63-.97,1.25-2.37,1.83-4.19l12.28-38.18c.57-1.79.85-2.98.85-3.55,0-1.47-.57-2.55-1.71-3.2-1.14-.66-2.42-.99-3.86-.99h-1.85l1.28-4.1h30.6c3.38,0,6.17.16,8.34.49,2.18.31,4.29.99,6.34,2,2.52,1.18,4.61,2.85,6.24,5.04,1.63,2.18,2.46,4.81,2.46,7.87"/>
      <path class="cls-2" d="M447.45,213.38h-4.46c-1.47-3.43-2.84-5.87-4.12-7.32-1.28-1.44-2.63-2.33-4.01-2.65-1.39-.32-3.53-.48-6.37-.48h-7.04l-7.28,22.85h3.18c2.96,0,5.22-.29,6.83-.86,1.6-.57,2.83-1.46,3.68-2.69.85-1.23,1.67-3.04,2.47-5.44h4.66l-7.8,23.94h-4.67c.77-2.34,1.16-4.17,1.16-5.52,0-2.18-.79-3.58-2.32-4.16-1.54-.59-3.38-.88-5.53-.88h-3.15l-5.67,17.28c-.44,1.29-.66,2.5-.66,3.61,0,.86.26,1.57.81,2.15.55.56,1.6,1.03,3.22,1.37,1.6.34,3.68.52,6.31.52,5.67,0,9.98-1.07,12.91-3.21,2.93-2.12,5.5-5.09,7.71-8.89h4.8l-5.37,16.47h-51.83l1.37-4.11c2.28,0,3.92-.63,4.92-1.86,1.01-1.22,1.83-2.88,2.51-4.98l12.26-38.19c.58-1.73.86-2.92.86-3.55,0-1.57-.59-2.65-1.76-3.27-1.17-.61-2.58-.92-4.27-.92l1.27-4.1h44.89l.48,14.85Z"/>
      <path class="cls-2" d="M32.03,163.42c-.14,0-.28,0-.42,0-4.15-.25-6.19-.69-9.03-1.3-5.43-1.4-8.27-2.19-9.97-2.87-7.16-2.1-10.02-8.22-11.41-11.21-.19-.4-.34-.81-.45-1.24-3.42-13.04,5.5-23.86,14.98-29.63.46-.28.94-.51,1.45-.68.23-.1.49-.28.76-.44.73-.44,1.69-1.01,2.88-1.49,3.85-2.02,7.89-2.5,11.49-2.92l.83-.1c3.38-.13,6.13-.53,9.05-.94,3.69-.52,7.5-1.07,11.69-1.07,1.77-.2,2.19-.34,3.58-.83.8-.28,1.75-.61,3.11-1.01,2.02-.84,4.84-1.61,6.12-1.95l6.87-2.54s2.3-1,3.53-1.63c.3-.14.6-.27.9-.39,2.22-.79,4.57-1.45,6.95-2.12,1.72-.48,3.46-.96,5.15-1.52-.07-.09-.14-.18-.19-.26-.59-.79-1.21-1.63-1.72-2.55-.72-.85-1.17-1.57-1.49-2.09l-3.89-.42-8.45.47c-.55.26-1.24.55-2.07.75-.53.23-1.08.44-1.64.63,0,0-.02,0-.02,0-.62.99-1.47,1.81-2.48,2.4-.76.84-1.92,1.92-3.61,2.65l-.49.33c-2.23,1.55-5.01,3.46-9.91,3.46-1,0-2.13-.08-3.45-.27-2.13-.18-7.24-.64-10.46-4.8-1.68-1.87-3.04-3.48-4.02-6.94-.36-1.23-.37-2.5-.09-3.7-.02-.18-.04-.36-.06-.53-4.81-2.22-6.78-6.76-7.7-9.01-.89-1.1-1.63-2.68-1.71-4.96-3.97-4.44-6.18-10.63-5.53-16.07.44-3.72,2.52-6.12,3.66-7.36.46-.86,1.1-1.63,1.87-2.24l5.41-4.26c.29-.24.59-.44.92-.64,1.3-.74,1.83-1.19,2.43-1.7,1.41-1.18,2.86-2.33,6.17-4.33,1.84-1.7,3.39-4.13,4.59-7.23,2.08-5.49,7.04-9.84,13.56-11.88.55-.18,1.27-.29,1.91-.34.4-.09.81-.14,1.23-.15,1.31-.05,2.53-.34,4.07-.71,1.61-.39,3.42-.82,5.59-1.02.65-.22,1.31-.44,1.97-.65.57-.61,1.11-1.25,1.65-1.88,2.32-2.7,5.17-5.99,9.6-7.96,1.66-1.09,3.33-1.38,4.19-1.53.83-.35,1.24-.35,2.14-.38l1.21-.09c3-.22,6.17-.14,8.58.82,2.93.66,5.68,2.35,8,4.95.77.66,1.85,2,2.93,3.36,1,1.27,1.86,2.37,2.64,2.77.39.2.76.43,1.1.7,2.32,1.77,4.22,3.76,5.91,5.52,3.14,3.28,5.06,5.19,8.17,5.98,1.91.55,4.21.61,6.45.61l3.86-.02c2.59,0,5.34.08,8.1.61h.06c2.67,0,6.72,1.16,18.02,5.15,1.32.46,2.32.82,2.74.95l4.37.94c3.02.65,6.15,1.32,9.16,2.05,2.62.62,5.3,1.2,7.98,1.78,4.1.88,8.19,1.77,12.25,2.84l3.16.84c3.37.92,6.86,1.87,10.05,2.35,3.35.52,6.17,1.13,9.13,1.76l3.37.72c1.35.28,2.44.38,3.66.51,1.45.15,3.05.32,5.18.68,6.85.84,13.24.84,19.57-.16,1.85-.19,3.15-.48,4.45-.76,1.43-.3,2.87-.6,4.35-.79.84-.32,1.54-.47,1.98-.56,11.67-2.85,24.81-4,29.93-4.37,10.24-.72,15.89-1.08,25.89-.82,2.57.07,5.09.33,7.6.59,2.03.21,4.06.43,6.11.5,2.72.07,5.43.37,7.81.72-.37-.31-.69-.59-.93-.85-5.94-6.51-6.67-13.09-6.25-17.48.67-6.91,4.66-12.74,8.32-15.45,10.59-7.85,21.95-8.76,29.57-8.76,5.95,0,11.99.62,18.39,1.27,2.23.22,9.26,1.09,11.49,1.45,7.8,1.27,13.58,4.45,20.28,8.12l1.81.99c.51.28.99.62,1.42,1.01l2.9,2.57c2.97,2.61,5.77,5.06,8.02,7.89,7.85,9.91,9.27,27.09,3.24,39.11-3.49,6.91-10.54,15.47-15.41,18.69-4.92,3.24-9.51,5.55-14.11,7.19.06.04.11.07.18.11,2.35,1.41,4.75,2.86,6.02,3.54,4.47,2.43,8.6,4.41,12.64,6.06,1.93.8,3.81,1.7,5.69,2.6,1.66.8,3.33,1.61,5.03,2.3.84.34,1.5.57,2.08.78,1.54.56,2.69.98,4.93,2.15l.84.31c3.74,1.51,5.31,2.19,6.4,2.92,1.77,1.09,3.26,2.61,4.48,3.85.39.41.76.79,1.08,1.06,1.04.87,2.1,2.24,2.53,3.52v.02c.12.27.22.55.31.84.3,1.05,1.79,6.53,1.03,11.74-.05.36-.13.71-.24,1.05-.63,2.1-3.62,8.97-6.27,12.07-.22.29-.65.89-1.17,1.6-2.87,3.94-4.34,5.88-5.47,6.96-.38.37-.82.7-1.27.99-5.43,3.31-12.66,3.98-20.7,1.93-.98-.25-1.89-.7-2.67-1.3-.18-.06-2-.99-4.03-2.01-6.41-3.23-8.3-4.26-9.46-5.19-4.35-3.23-7.23-5.89-9.34-7.84-2.27-2.1-3.33-3.06-4.58-3.61-.37-.16-.73-.34-1.07-.56.37.2-2.21-.56-13.59-.54-5.12,0-10.75.14-16.03.33-3.82.46-7.48.5-10.56.5h-2.92c-1.13,0-2.26,0-3.44.04-.37.01-.76-.02-1.15-.07-3.9-.52-6.45-.8-10.43-1.16-.55-.06-1.1-.17-1.62-.34-.41-.07-.99-.16-1.67-.28-2.61-.43-6.19-1-8.72-1.78-2.88-.87-5.79-2.12-8.6-3.35-1.33-.58-2.62-1.14-3.85-1.61-5-1.99-7.86-3.09-13.42-4.62l-1.01-.3c-1.13-.34-3.27-1.03-4.52-1.24-4.46-.96-6.71-1.25-10.4-.83-1.13.29-2.53.63-3.97.97-2.44.58-5.01,1.16-6.07,1.55-3.9,1.36-7.58,2.34-11.26,3.31l-2.21.59c-1.47.55-3.62,1.18-6.09,1.9l-4.13,1.22c-.37.1-17.98,4.94-27.17,8.07-8.61,3.46-23.23,4.3-24.88,4.39-.26.02-.52.02-.78,0-6.6-.37-11.01-.74-13.12-1.11-4.39-.4-6.84-.93-8.82-1.36-.94-.21-1.8-.4-2.85-.53-2.78-.5-5.88-1.17-8.02-1.63l-1.65-.36c-3.55-.74-9.07-2-9.07-2,0,0-1.95-.46-3.78-.87-1.07.94-2.19,1.7-3.36,2.49l-1.44.97c-1.62,1.13-2.62,1.72-3.61,2.27-.56.33-1.11.64-1.9,1.17-5.21,3.02-8.41,4.53-14.86,6.3-1.56.43-3.28.66-5.03.85-.96.11-1.93.19-2.85.43-.46.13-.94.21-1.42.25-15.01.97-26.05,1.24-37.39.83-.49-.01-.99-.09-1.47-.2-4.17.36-7.83,1.4-11.85,3.38-2.74,1.31-4.58,1.88-7.62,2.83l-.8.24c-1.04.39-2.65.99-4.28,1.62-4.21,1.58-6.6,2.47-8.29,2.93-2.19,1.11-4.38,1.63-6.2,2.05-.87.2-1.76.39-2.65.7-2.85.81-5.2,1.13-8.38,1.24-.09,0-.18,0-.28,0"/>
      <path d="M233.79,80.89v1.65c.58-.51.58-1.2,0-1.65"/>
      <path d="M234,81.11l-.16,1.21c.16-.37.56-.83.16-1.21"/>
      <path d="M233.86,80.93c-.42.09-.65.39-.58.84-.16.45.26.83.75.68.81.3.73-.6.73-1.07-.32-.14-.49-.6-.89-.46"/>
      <path d="M234.22,76.91c-1.72,0-.97,1.74-1.39,2.65l.33,3.17-.17,2.41v.83c.33.16.51.68.92.53.89-.37.39-1.2.32-1.82.48-.6.48-1.5-.32-1.95l.56-3.17.66-.69c.24-.98-.33-1.51-.9-1.96"/>
      <path d="M235.18,82.57c.16-.99.48-1.96-.33-1.96l-.17-.69c-.07-.54,0-1.52-.88-1.29-.42-.76.07-1.66-.92-1.96,0-.83,0-1.89-1.21-1.67l-.33.99v1.67l.81,1.96.73,1.28.33.68c-.33.9-.07,1.81.75,2.12,0,.9.73,1.43,1.07,2.12.16,1.05-.41,2.33.89,2.63,1.23-.22.66-1.94.57-2.79.16-1.36-.24-2.42-1.3-3.09"/>
      <path class="cls-1" d="M459.72,120.4c.27,2.66-.16-.38-.22-.6-1.28-.93-3.39-3.62-5.15-4.61-.63-.53-6.23-2.67-6.6-2.87-2.79-1.44-3.52-1.49-6.41-2.65-3.63-1.48-7.12-3.43-10.72-4.91-4.59-1.87-9.04-4.04-13.36-6.39-2.99-1.62-12.08-7.29-12.89-7.5-.8-.2-20.81,1.31-32.55.68-2.04-1.29-4.49-2.48-5.72-4.31-1.23-.54-2.36-1.22-3.19-2.34-.56.14-.25-.6.17-.3,6.85-.54,14.32-.3,21.35-.16v.16c1.46,0,2.76.08,4.06.3,14.21-.36,23.8-1.83,36.11-9.93,3.58-2.37,9.85-9.8,12.91-15.87,4.71-9.38,3.75-23.47-2.43-31.27-2.5-3.15-6.3-6.13-10.12-9.6-7.39-4.03-12.6-7.14-19.76-8.31-2.14-.35-8.88-1.18-11.05-1.39-16.35-1.67-30.45-3.11-42.85,6.09-3.65,2.7-9.62,12.67-1.07,22.04.9.97,6.63,4.45,8.91,5.21,4.42.3,8.68-.3,12.11-1.43,2.36-.31,4.16-1.36,6.37-1.66,1.07,0,1.87-.69,2.7-.69,2.95,0,6.29-.6,9.39-.16,5.25.3,10.55,2.35,13.74,4.92,1.32,2.1,2.71,4.38,1.63,7.24-1.95,2.65-4.74,3.62-7.11,4.76-9.89-.37-20.76.38-30.24-1.28v-.16c-2.88,0-5.32-.82-8.03-.98-.9-.52-2.53-.3-3.59-.82-2.21,0-3.6-.69-5.89-.69v-.16c-3.87-.86-8.45-1.55-12.49-1.66-4.59-.16-9.03-.96-13.66-1.09-9.69-.26-15.11.09-25.16.8-7.62.55-18.94,1.8-28.32,4.08-.66.21-1.48.21-1.98.67-3.42.3-6.43,1.35-9.79,1.66-7.19,1.14-14.09,1.12-21.92.16-4.11-.69-6.04-.62-9.1-1.24-4.19-.86-7.71-1.72-12.13-2.4-4.65-.7-9.41-2.16-13.97-3.35-6.67-1.75-13.44-3-20.12-4.58-4.58-1.12-9.46-2.09-13.76-3.05-1.24-.29-19.31-7.14-19.31-5.6v-.16c-6.14-1.5-13.73.23-19.78-1.5-7.93-2.04-11.12-8.52-16.69-12.77-3.51-1.8-5.06-5.35-7.68-7.76-1.22-1.36-2.86-2.57-4.73-2.79-2.06-1.13-5.17-.53-7.37-.46-.9.38-2.21.23-2.86.99-4.99,1.82-7.44,6.64-11.21,10.03-1.46.3-2.86.83-4.23,1.29-4.09.23-6.88,1.67-10.87,1.82-.25.3-.83.07-1.23.16-3.85,1.2-7.46,3.69-8.93,7.55-1.64,4.21-3.97,7.88-7.07,10.51-6.44,3.82-5.16,4.05-9.28,6.43-2.07,1.67-3.62,2.85-5.42,4.28-.09.97-2.53,2.21-2.83,4.75-.52,4.28,2.06,9.28,5.4,11.9.59,1.02-.11,3.45.27,3.56,1.05.39,1.55,6.19,6.01,7.4,1.05,1.21,3.34,1.73,3.01,3.93,0,0,.75,4.07.16,4.59.59,2.05,1.1,2.58,2.67,4.31,1.14,1.65,3.39,1.98,5.84,2.2,5.15.75,6.22-.76,9.49-2.89,1.54-.29,1.89-2.04,3.2-2.34.49-2.49,3.67-2.7,5.64-3.77,1.39-.07,1.8-1.13,3.19-.99l9.74-.54,6.71.72c3.61,2.38,2.52,2.93,4.73,5.12-.08.98,4.58,5.29,4.49,8.54-.98,1.44-1.87,3.48-3.76,4.23-4.75,1.89-10.06,2.93-14.72,4.59-1.47.76-4.33,1.97-4.33,1.97l-7.24,2.68s-4.03,1.03-5.82,1.86c-4.49,1.29-4.28,1.8-9.18,2.26-6.87,0-13.09,1.73-19.87,1.96-3.76.45-7.19.74-10.14,2.42-1.56.52-2.77,1.65-4.33,2.18-6.72,4.08-14.23,11.86-11.7,21.53,1.49,3.18,3.19,6.41,7.28,7.39.34.38,8.76,2.57,8.76,2.57,2.81.6,4.47.98,8.16,1.19,2.28-.09,4.26-.29,6.21-.82,3.02-1.07,6.14-1.2,8.67-2.79,1.56-.16,8.75-3.09,13-4.6,3.52-1.11,5-1.53,7.36-2.64,4.42-2.19,8.95-3.66,14.5-4.12.42-.16,1.84.04,2.34.18,12.36.46,24.95-.07,36.64-.83,2.54-.69,5.4-.6,7.84-1.29,5.57-1.52,8.26-2.75,12.67-5.28,2.17-1.47,2.9-1.62,5.45-3.41,2.38-1.66,3.88-2.49,5.02-3.85,1.4-.98,1.48-1.71,2.7-1.43.9.23,6.67,1.56,6.67,1.56,0,0,5.46,1.24,8.95,1.98,1.74.37,6.07,1.32,9.05,1.88,3.42.42,5.07,1.31,11.79,1.9,1.8.46,12.53,1.06,12.53,1.06,0,0,14.78-.76,22.88-4.01,9.51-3.25,27.4-8.15,27.4-8.15,4.2-1.28,7.48-2.12,10.45-3.17,4.25-1.14,8.51-2.19,12.67-3.63,1.67-.68,8.1-2.06,11.36-2.92,5.08-.65,8.23-.24,13.02.82,1.92.33,5.52,1.5,6.23,1.7,5.98,1.64,9.11,2.86,14.16,4.86,3.71,1.46,8.06,3.62,11.9,4.78,3.46,1.06,10.53,1.87,10.53,2.1,4.08.37,6.7.67,10.72,1.2,5.64-.14,10.31.21,16.85-.53,14.06-.5,30.57-.74,33.84,1.36,4.58,1.96,6.64,5.81,15.59,12.42,1.07.99,12.54,6.46,13.43,7.15,5.91,1.5,11.24,1.26,15.09-1.09,1.24-1.2,5.36-7.08,6.09-7.98,1.08-.99,4.14-6.97,4.9-9.52.58-3.88-.81-8.61-.81-8.61"/>
      <path d="M43.23,87.26v1.65c.59-.52.59-1.2,0-1.65"/>
      <path d="M195.16,60.6l-.17,1.21c.17-.37.57-.83.17-1.21"/>
      <path d="M222.87,85.75c-1.72,0-.98,1.75-1.39,2.65l.33,3.17-.16,2.41v.83c.33.16.49.67.91.53.89-.37.39-1.2.32-1.81.48-.6.48-1.5-.32-1.95l.55-3.17.66-.69c.25-.99-.32-1.51-.89-1.96"/>
      <path d="M248.14,103.04c.16-.99.48-1.96-.33-1.96l-.17-.69c-.08-.54,0-1.52-.9-1.29-.41-.76.08-1.66-.9-1.96,0-.83,0-1.89-1.22-1.67l-.33.98v1.67l.81,1.96.74,1.28.32.68c-.32.9-.07,1.82.75,2.12,0,.9.73,1.43,1.07,2.12.16,1.05-.41,2.33.9,2.63,1.22-.22.65-1.94.57-2.79.16-1.36-.25-2.42-1.31-3.09"/>
      <path d="M454.02,126c-.49.75-1.24.9-1.08,1.79-3.67-.96-6.12.99-9.08,2.05-.9.21-.4,1.29-.57,1.98.5.44,1.47.96,1.07,1.94,1.96,1.44,4.26,3.4,4.33,5.73-1.29.62-2.69,1.97-2.86,3.63-1.31-.23-1.89.3-2.69.83-3.1-.99-7.69,2.26-8.49-1.8-.67-1.15-1.64-.69-2.7-.99-.16-1.06-.26-2.43-1.23-2.79-.09-1.82-2.62-.76-3.76-1.52-1.39-.39-2.62-1.52-3.52-2.64h-.57c-.09-.85-1.31-.99-1.56-1.8-.16-3.35-4.33-2.81-6.04-5.22-.33.31-.83.07-1.31.16-.08-.61-.81-.23-1.07-.69-.08-2.04-2.37-3.09-4.25-3.77-.48-1.51-2.79-.38-3.75-1.65-2.87.29-4.1,2.25-7.44,1.5-.34-.23-.08-.68-.17-.98,1.31-1.13,2.47-3.17,3.77-4.3.82-1.13,1.96-2.33,2.28-3.62,1.97-.77,3.6-2.49,4.42-4.55.98-.14.41-1.12,1.07-1.5,1.38-.9,2.86-3.85,5.39-2.34l2.13-.3h.33c.49,1.52-2.05,2.04-.56,3.33,2.12.37,3.59-.77,5.71-.38,1.31,2.27,4.42,1.29,6.22,3.17.91-.16.73.9,1.63.6.99,1.28,3.12,1.07,4.09,2.49.92-.3,1.08.84,1.98.69.33,1.05,1.87.6,2.45,1.13.67.84,2.46.37,2.7,1.66v1.59c-.33.53-.89,1.37-.89,2.05.08.53-1.14.97-.17,1.43.98.09,1.39-.6,2.13-.83,4.01.15,8.58-1.22,11.37,1.82-.25,1.04,1.22,1.04.75,2.11M391.71,115.64c.41.9-.58.76-1.08.99-.57,1.81-2.2,2.03-3.49,2.34-1.73,0-3.28.9-4.99.29-2.45-1.05-5.58-.91-7.7-2.25-1.55-.61-.24,1.27-1.55,1.27-.9,1.97-1.96,3.17-3.93,4.15-1.31-.37-1.64.54-2.86.46-2.53-.52-5.72-.38-8.34-.15-.74-.37-1.47-.98-1.96-1.65.65-2.43,0-5.37,1.22-7.55l.16-1.67h.17c1.31-3.62.48-7.55.73-11.63.08-1.36-1.64-1.59-1.07-3.09.33,0,.41-.3.33-.52v-.53c.58-.62,1.14-1.43,1.96-2.12l4.5.16c.41.9,2.21.53,2.62,1.66.89-.07,1.55.76,1.96,1.36.9,2.19-2.22,2.42-2.29,4.22-.57.22-.32,1.05-.73,1.51l-.17,1.43c1.72.76,1.79-1.27,3.19-1.27,1.79-.39,4.58.23,4.99-1.67-.16-.45.33-.45.57-.67h2.29v.22h9.08c.98-.53,2.28-.46,3.33-.69.58-.38,2.05.15,2.38-.82,3.03.15,6.46-.61,8.68,1.28h.73c0,1.65.08,3.54-.73,4.59-.34.99-.17,2.04-1.23,2.79-.09,1.06-.43,1.74-1.06,2.5-3.12.67-3.12,3.55-5.73,5.05M352.78,67.86c-.56-1.67.09-3.56,1.07-4.61.49-.38,1.14-.53,1.06-1.29,1.23-.38.99-3.1,3.04-2.35l1.05.83c.16.99,1.23,1.36,1.07,2.5h.32c-.17.6.24,1.06.57,1.42,2.05.16,1.4-2.57,3.53-2.26,1.7-2.12,3.75-.31,6.05-.84,2.45.77,4.74-.68,7.36-.68.66.99,1.8.84,1.95,1.81,1.07,1.14,2.54.24,3.69-.44.33-.83,1.38-.44,1.97-.99l17.66.3c.73.91,2.86.16,3.5,1.37,1.16.45,2.3.91,3.19,1.73,1.06-.29.74,1.29,1.8.68,2.04,1.89,2.93,4.16,5.31,5.58.83,1.97-1.22,2.66-2.28,3.65-1.15.6-2.21,1.73-3.51,2.1-2.46,1.89-6.55.53-9.33,1.82-3.1.76-7.93-.98-10.14,1.5-1.47.54-1.08-.9-1.55-1.5-.16-1.29-.33-2.71-1.22-3.62-.17-.9-.58-1.37-1.15-2.12-.08-.6-1.07-1.36-1.71-1.83-1.39.77-2.21,2.43-4.26,2.51-.41.83-1.89.9-1.3,2.26-1.96.23-4.41-.51-5.89.69-.73-.3-.81.46-1.22.69h-12.1c-1.07-.46-1.56-1.29-2.86-1.52.24-1.13-1.31-1.06-1.07-2.26-.98-.83-.81-2.12-2.14-2.65-.89-.75-2.28-1.06-2.45-2.49M56.41,76.23c2.45-1.5,4.33-4.43,7.44-4.6l.57.98v4.46c-.66-.23-.41.45-.73.69-2.7.82-6.22.52-8.91-.16-.17-.91,1.06-.99,1.63-1.37M354.91,99.42c-.89.6-2.05-.77-2.28.67.82,4.68-3.69,6.72-2.38,11.47-.64,1.29-1.54,2.72-1.22,4.6-.9-.07-.48.91-.9,1.29-1.06.83-1.88,1.51-3.36,2.19-2.69-.44-6.45.9-8-1.21-1.73,0-1.57-2.11-3.36-2.11-1.55-1.07-2.04-2.57-3.75-3.09l-3.03-2.8c-1.63-.3-.9,2.34-2.87,1.67-.9-1.06-.24-2.73-1.96-3.03-1.05.53-.57,2.19-1.97,2.19-.56-.67-.32-1.89-.15-2.65.57-.22.33-1.13.9-1.34-.16-3.78,3.1-5.75,3.93-8.84.34-.6.74-1.44,1.06-2.12,1.14-4.38,2.37-9.44.32-13.67l-.49-.53c-1.15.61-.4,1.96-1.63,2.34v.46h-.16c-.57.69.39,2.26-.91,2.34-1.64.31-2.28,2.34-3.92,2.94-.34.76-1.31.53-1.39,1.37-.89.61-2.88,1.43-2.88,2.79-2.36,1.5-3.83,3.62-4.39,6.18-.66,1.45-2.46,1.13-2.54,2.79-1.06,1.37-2.86,1.44-3.35,3.17-.32.32-.82.09-1.23.17-.98-.91-1.06-2.57-1.97-3.34-1.47,0-1.88,1.9-3.92,1.15-.89-.53-1.57-.85-2.53-1.29-.9.68-.33,1.81-.49,2.8l-2.53-.3c-.41-.46-1.23-.54-1.4-1.21-1.56-.85-2.69-2.05-3.19-3.55-.9-.6-.4-2.05-1.47-2.49-1.06-2.49-1.63-5.59-.89-8.38h-1.39c-.1,1.65-.99,3.02-1.4,4.61-1.95,2.49-3.35,5.43-4.99,8.22,0,.74,0,1.59-.73,1.96.41,1.06.82,3.03-.32,3.93-2.12.6-4.34,1.36-5.9,2.49-3.42.69-6.86,1.81-9.96,2.79-3.6.6-6.14,1.89-9.08,3.26-1.96.22-3.27,1.5-5.49,1.5-1.06.74-2.85-.3-3.59,1.13h-1.39c0-.68-.82-.07-1.07-.53.58-2.33-1.31-3.39-1.63-5.36-.15-2.56-.57-5.13-1.39-7.39-.48-1.6-1.23-2.95-1.47-4.75-.97-1.06-.48-2.49-.89-3.78-1.65-4.62.73-9.14.73-13.81,0-1.98.56-3.7.89-5.59-.23-.46-.81-.46-1.06-.16-1.06.9-1.06,2.42-2.54,2.57-1.31.75-1.07,2.03-2.12,2.79-.09.9-.5,1.67-.33,2.64h-.17c-.82,2.64.17,5.89-.89,8.38l-.34,8.54c-.8.82,0,2.19-.74,3-.25,4.09-2.04,6.95-3.92,10.36-.16,2.11-1.71,3.55-2.12,5.73-1.39-.22-2.62.15-3.19,1.29v.37c-1.31,0-2.13,1.13-3.2,1.59l-2.7-.16c-.81-1.27-.24-3.24-2.12-3.62-1.55-.53-.16-3.09-2.37-2.95-.82.3-.58,1.29-.82,1.97.98.67.32,1.96.48,2.93-2.18.3-1.29,3.17-3.5,3.48-2.37-.09-4.91.29-6.94-.31v-.14c-.5-.39-1.23-.16-1.8-.23-.5-.46-1.72-.38-2.12-.99-1.15-.16-1.89-.3-3.04,0-.89-.53-2.78.44-3.02-.83.16-2.72-2.79-3.77-4.26-5.59-.81-1.2.82-2.79-.73-3.55.33-1.05-.48-1.22-.73-2.03.49-2.05-.66-3.48-1.07-5.22l-.9-.53c-.9,1.51-1.23,3.17-1.07,5.15-.41-.09-.33.37-.33.6.25,1.73,1.47,2.94,1.23,4.98.49.83.65,1.82.57,2.95l-3.77.14c-.65-.3-1.63-.66-2.45-.97-1.31-.15-1.71-1.44-3.43-.99-.25-.74-1.24-.6-1.8-.98-1.48-.31-3.27,1.35-4.09-.15-2.46-3.18-5.72-7.39-3.84-12.15,1.64-3.34,6.62-1.44,8.66-5,1.23-.9,1.15-2.03,2.12-2.93.08-1.21,1.39-1.29,1.07-2.79.81-1.07.65-2.49,1.48-3.63.64-2.72,0-6.12,1.21-8.53-.89-.54-2.53-1.21-3.77-.46-2.61.68-.16,4.31-3.67,4.08-1.95,1.36-1.32,5.44-4.5,5.89-1.47,1.88-3.85,1.58-5.65,3.02-.98,0-1.71.38-1.79,1.29v1.66c-1.06.22-.81-.83-1.06-1.36-1.88-1.13-.75-3.93-2.12-5.22-.41-1.5-1.32-3.01-2.71-3.92-.34.23-.09.61-.15.97.65.07.25.84.32,1.29-.17.31-.66.37-1.07.31-1.15-1.52-2.86-3.24-2.69-5.36-.65-.46-.81-.99-1.22-1.66-.42-2.27.73-4,1.06-5.75-.08-.82-.41-1.2-1.06-1.66-.26.07-.57-.14-.74.16v.3c-1.39-.39-.74,1.29-1.57,1.5v.53c-.48.61-.48,1.74-.73,2.57.65,2.64.49,5.96-1.22,7.92-.24,3.32-1.64,7.47,1.22,9.82,1.15-.08,1.15,1.5,2.3,1.2,1.23.6,3.17,1.89,3.43,3.25l1.38.53c-.16,2.12.51,4.54-.49,6.35-.16.6.24,1.35-.4,1.66-.09,2.11.4,5.05-1.08,6.7v2.65c-.24,0-.41.31-.32.53-.49,1.89-1.72,3.55-3.19,4.91-1.73.45-2.62,1.44-4.5,1.97-.08.67-1.07.07-1.39.67-2.7,1.89-6.22,2.56-9.41,3.62-3.34.16-7.52,1.29-9.97-.99-2.46-.14-3.76-2.25-5.15-3.31-.49-1.3.49-3.79-1.96-3.63.16-2.26-2.7-1.15-2.85-3.25-.41-3.33,1.22-7.55-2.13-9.52.24-1.42-2.05-1.9-.74-3.17.17-.37.49-.76.41-1.29h.16l.33-6.26c.82-2.03,4.5-2.63,4.09-5.58.49-.69.57-1.67.73-2.65.66.07.24-.61.32-.99,0-1.96-1.05-4-2.85-4.92-.49-1.35.82-2.79-.9-3.61-1.14.75-3.27.82-4.26,1.96-1.05.07-2.03,1.36-3.18.14-.24-1.5-2.12-1.8-2.86-2.93-.82-1.29-2.37-2.04-3.92-2.8-.49-.23-.74-.74-1.57-.83-.88-.14-2.54-1.05-2.86.23h-6.21v-.23c-4.42-.22-10.55-1.89-14.38.83-1.07-.44-.75.84-1.63.69-1.65,1.36-4.26,2.04-5.33,3.93-2.04.82-3.02,2.79-4.83,4.13-.16.54-.32.84-.73,1.14-1.64,0-2.37,1.29-4.25.82-.49-.37-.91-1.29-1.63-.68-2.94-.97-1.64-4.83-1.71-6.86v-.53c.24-.46.81-.76.89-1.29l2.13-1.96c4.41-.69,9.81.83,14.06-.83.16-.69.66-1.14,1.24-1.8,1.23-2.06.17-4.16,0-6.28-.66-.23-.49-.84-.58-1.5-.66-.54-1.55-1.75-3.02-1.29-.82-1.27.81-1.57.73-2.8.98-.22,1.22,1.53,2.44.67.5-1.57,3.04-1.12,4.51-.97.09.6.81.16,1.06.6.97,1.37,1.55,2.87,3.51,2.5.74-.83-.17-1.89-.17-2.95.17-2.57.74-5.06-1.54-6.42-1.15-.07-2.05-1.29-3.6-.83-.09.3-.5.53-.5.83.58,1.36.83,2.35.66,3.93-.66.21-1.39.14-2.13.14-1.06-.37,0-2.63-1.96-2.12-.16-.97.41-2.19-.66-2.79-1.06.46-2.04,1.06-2.7,1.96-.08,2.27-1.06,4.15-1.96,5.59-.65,2.18.16,5.58-2.45,6.42l-.58-.16c-.16-2.04.65-5.06-1.39-6.42-1.88-1.51,2.95-3.54-.73-3.24-.58.75-1.89,1.06-1.8,2.41,1.8,2.06,1.14,6.12.57,8.75-.81.09-.41,1.59-1.64,1.14-2.21-1.89-.66-5.96-3.51-7.54-1.8.73-.98,2.79-1.47,4.2.17,1.89.58,4.3-.33,5.98-.82.07-1.4-.23-1.64-.69-1.71-.45-3.6-.83-4.25-2.33-1.22-.9-1.63-2.49-2.85-3.4-.82-2.87.64-5.06,1.64-7.09v-.31c-1.15.24-3.04,1.67-4.67.61-.16-1.35-2.05-1.35-1.96-2.94-1.3-.38-.41-1.82-.66-2.8.66,0,.09-.84.49-1.14l1.63.16v.14c.41.39,1.06.17,1.56.23,1.4-1.13-.73-4.98,2.54-4.3,1.14,1.14-.9,3.26,1.07,3.77,1.06-.14,1.38-.81,1.96-1.43.74-1.66-1.31-1.14-1.31-2.35-.9-1.12,1.15-1.88,1.48-2.94.49.09.89-.06,1.22-.53,2.78-2.1,6.86-4.59,10.14-6.71-.17-.85.98-.37,1.06-.98,1.72-1.75,3.03-3.42,3.44-5.89.24-.54.81-1.36.81-1.96.98-1.74,1.55-3.33,3.75-3.79.34-.53,1.81.31,1.81-.67,3.6-1.44,8.83.07,12.59-1.29,2.37-.21,4.25-1.29,6.61-1.37-.07.76.99.54,1.39.84.59.45,1.56,1.89,2.38.69,1.23-1.28,4.5-1.28,3.68-3.79-.41-.44-.83-.67-.91-1.34,1.81-.9,3.93-1.52,6.04-1.97l.58,2.79c.82.3.58,1.52,1.4,1.83.39,1.34,2.69,1.8,2.86,3.46.32,2.11,1.7,4.76.15,7.02.42.83-.64.3-.64.83-1.57.67-1.23,2.8-1.3,4.16.65.67,1.47-.46,1.94-.53,1.4-.46.75-2.19,2.14-2.49.73-1.14,2.37-.47,3.27-.61.24,1.52.64,3.48,2.29,4.09,1.23.43,1.64,1.58,2.87,1.96.23.52.89.6,1.22.97,2.86-.14-.73-6.19,3.76-4.75.9,1.05,2.04,1.58,2.45,2.79.65,1.36,2.29,2.19,2.71,3.77,2.12.74.73,4.38,3.18,5.12-.82,3.26.08,7.18-.74,10.51h-.16c.32,2.34.9,5.44.16,8.07,0,1.44-.81,3.01,0,4.37,1.31-.37,3.11-.99,3.59-2.26,2.55-1.73,2.14-4.15,4.25-5.72.92-2.43,2.63-5.37,3.93-7.57.41-1.82-1.05-3.93.89-4.83.34-.51.66-1.2,1.08-1.73.4-1.82.48-3.63,1.23-5.29h.74c.49,2.5-.33,4.92-.58,7.41-.49.6-.73,1.35-.9,2.26.41.31.9.37,1.48.37,1.13-.75,2.53-1.04,2.77-2.63.57-.69.89-1.82,2.37-1.36.48,1.66-.9,2.03-1.31,3.32-.49.07-.99.3-.82.99,0,.29-.08.67.33.67,1.23-.07,1.46-1.52,2.69-1.66,1.48-2.11,3.52-3.7,4.08-6.26.58-.53.99-1.44,1.06-2.26.24,0,.42-.3.33-.54v-.44c.41-.45.5-1.22,1.4-1.36h.4c.25.9-.4,1.5-.4,2.34-.67-.09-.09.6-.49.82,0,.99.99,1.07,1.63,1.44,1.08.91,2.79,2.63,3.2,4.15.98.37.89,1.14.89,2.11-.81.44-.81,1.73-1.3,2.63-.34.61-1.23,1.07-.9,1.97h-.16c.16,2.87-1.14,5.59-.17,8.38,1.15-.14,1.47-1.43,1.8-2.33l.16-1.83c.41-.52.57-1.73,1.05-2.25.25-1.44,3.19-2.87,1.65-4.91.16-1.88,1.05-2.95,1.22-4.75,1.96-.76,2.78-3.33,4.42-4.45,1,.44.5,1.65,1.8,1.65.24-.83.81-1.57,1.8-1.65,1.64-.38,1.46,2.71,3.35,1.12.08.83.58,1.59,1.06,1.97,1.23.81,4.17-.53,3.93,1.8,1.15.69-.08,2.79,1.07,3.47.41,1.5-1.8,2.49-.49,3.92-.9,2.19-.16,4.75,1.39,6.27,1.56-.53.74-2.34,1.96-2.95.17-1.43.65-2.72.73-4.16,1.47-1.59.98-4.68,3.51-5.06.83-.21,1.48-.97,2.54-.67.66.46,1.96.37,2.46,1.28,1.8.68,2.29,2.42,3.01,3.78h.91c1.71-1.05,1.71-3.32,1.63-5.35.58-.23.25-.75.33-1.2,1.22,0,2.86.97,3.51-.62,1.79-.3.9,1.82,2.7,1.82h.89c.42.53-.16,1.51.49,1.96,1.31.3,1.65-1.8,2.69-.38-.39.91.92.98.17,1.82-.73,1.74-.73,3.71-.89,5.6-.49.6-.41,1.64-.66,2.49v.44c-.32.69-.81,1.52-.89,2.35.41,1.73-1.55,2.49-.91,4.29h-.16c-.48,4.32-.08,9,1.07,12.77,1.3,2.93,1.63,6.11,2.44,9.37.82.37,1.4-.54,1.65-1.14.57-6.64-1.15-12.22-.33-18.58.56-4.6,2.61-9.11,5.15-12.59-.25-1.58,1.88-1.23,2.79-.99-.17,2.2,3.43.31,3.75,2.27.74.44,1.56,1.34,2.7.97-.09,2.57.9,3.93,2.29,5.74.57-.37,1.14-.6.9-1.42.57-.23.24-1.67,1.38-1.22.91-.3.65.67.91.99.16.66-.4,1.65.57,2.03,1.15-1.29,2.38-2.19,4.09-2.65,2.45-1.28,3.68-5.8,7.45-4.6-.08.6.74.08.89.46l.74,1.22.33,10.94h.73c.73-.46.66-1.67,1.39-2.12v-.46c.74-.6.98-1.73,1.63-2.33,2.13-1.9-.89-6.64,3.36-6.88l3.93-.14c.49.39,1.64.39,1.96,1.29-.07.74.41,1.35.73,1.96.16,2.49-1.97,5.43.34,7.39.55,1.21,1.06,1.89,1.63,3.32l.81,1.14c.25,1.06,1.4,1.43,1.48,2.26,0,1.52,1.72,2.57,1.39,4.31-.25,1.97,2.27,1.59,1.62,3.78.24,1.13.83,2.34,1.56,3.09-.41.99.89.99,1.31,1.5.57-.6,1.22-1.04,1.22-1.96h.17c.08-2.72-.81-5.06-1.24-7.77-.56-1.37-.39-3.24-.15-4.76-.17-.74-.42-1.8-1.06-2.63v-12.17c.82-.23.82-1.05,1.21-1.58.43-.67.67-1.43,1.24-1.96.81-.53,2.38.31,2.7-.98.34-.9,1.32-.39,1.97-.53.9.91,2.29,1.27,2.44,2.5.49.74.41,2.49,1.8,2.55,2.78-1.34-.17-3.92.73-6.19.5-.22.41-.9.65-1.35,1.63-2.19,5.15-1.74,7.52-2.94,2.95.07,5.48-.83,8.51-.46.41.23,1.55.61,1.47,1.44.48,2.7-1.97,4.59-.57,7.24-.82.91,0,2.19.32,2.94.33.76.82-.07,1.31-.14v-.54c1.15-.06,1.39-1.2,2.46-1.43,2.85-.99,6.69-.74,9.64-1.5,3.02-.3,5.64-2.8,8.67-1.59.41-.83,1.8-.46,2.11-1.36,1.4.07.25,1.88,1.48,2.49.09,1.06-.32,2.26.32,3.09,1.32-.05,2.45-1.64,3.37-2.63,1.23-1.51-.33-4.61,2.21-5.22,2.29.24,4.82,1.14,5.97,3.25.97.77,2.12,1.89,3.43,2.12.42-.9,1.14-1.43,2.12-1.59.32,1.66.41,3.93,2.7,4.38-.4.93.98.61.49,1.52.56.99,1.37.08,2.28.31.66,3.85,2.62,7.91,1.07,11.84.57,1.13,1.14,2.19.9,3.78h-.18c-.41,1.29,0,2.79.33,3.78,1.73.76,4.67-.15,6.07,1.13,2.27,2.65-.83,7.25,1.95,9.9h.57v.98ZM104.24,131.43c-.41.3-.49,1.34-1.4,1.13-.4-.83.08-2.2-1.06-2.57-1.88.3-1.88,2.51-3.27,3.25-1.47,0-2.3-1.57-3.84-1.42-.41-.54-1.23-1.29-1.8-.39.56,1.2-.98,1.2-.74,2.33-.82.39-.49,1.82-1.55,1.96h-6.3c-1.15-.97-3.19-.52-3.85-1.8-1.87-1.36-4.49-.76-6.45-1.8l.17-2.13c.89-.14-.09-.75,0-1.21-.09-.29-.41-.08-.65-.13-1.4-2.05-2.38-4.16-3.44-6.58-.98-1.36-2.62-3.02-4.25-3.77.09-1.2,1.06-1.66,1.79-2.65,1.48,0,2.46,1.29,3.77.23,1.14,0,1.87-.74,3.02-.83.25-.6.9-.22,1.39-.39l1.39-1.27h9.31c.17.37.67.3,1.07.3,1.23-.3,2.05-.69,3.51-.45.73.06,1.14.67,1.39,1.29l1.47.67c.74,1.21,2.05.9,2.29,2.27.73,1.59,3.76.83,3.44,3.17.66,1.51,3.36.9,3.84,2.42-.82,3.16,1.55,5.05.73,8.38M63.85,138.53c0,1.52-1.55,2.35-2.46,3.09-.89.16-1.47-.14-1.96-.67-1.96.6-2.04,2.26-3.76,3.48-2.37.14-5.48.53-7.43-.3-.5-1.75-1.89-2.42-2.7-3.93-1.15-.07-.66,1.36-1.8,1.29-.41.9-.66,2.05-.5,2.95.59.53,1.16,1.51.67,2.34.25,1.2-1.23,1.2-1.55,1.96-3.27-.39-4.99,1.88-8.02,1.8l-6.05-.21c-.73-.16-.9-.99-1.97-.76-.74-2.35-5.39-2.27-3.93-5.82-.98-.9-.32-2.79-.49-4.23-1.22-.21-2.04,1.51-2.69,2.5-.41,1.06-1.71,2.56-.73,3.93.32.83-.41,1.27-.66,1.96-1.72.69-3.27-.54-4.08-1.52-2.78-2.03-1.55-6.19-1.07-9.21.41-.69,1.23-1.59,1.4-2.56,4.01-2.64,5.97-7.1,10.88-9.23.23-.07.64.16.89-.14.98-.46,2.45-.61,3.85-.54.32.69-.66,1.3.23,1.83.42-.08.66-.46,1.23-.32.24.99.41,2.35,1.39,2.8-.32,1.22,1.31.3,1.8.83.57.09.99-.23,1.07-.69v-2.33c.98-.55,1.96-1.36,3.34-.83.58.9,2.12,1.06,3.27,1.36.99-.23,2.38-.09,3.36.3.89-1.89-1.64-3.93.48-5.06,5.15-.22,10.88-.69,14.64,2.26,1.31.07,1.63,1.43,2.45,2.2,1.22.81.73,2.87,1.63,3.92-.25,2.49.57,5.6-.74,7.55M404.21,36.83c-1.88-1.13-3.43-2.42-5.71-2.94-1.06-.07-1.06-1.43-2.31-.98-.55-.31-1.29-.75-1.94-.96-.91-.32-1.64-.78-2.7-.69v-.17c-2.22.24-3.93-1.03-5.89-1.12-.5-.6-1.56-.23-1.72-.98-1.39-.39-2.85-.46-3.27-2.04-.9-.61-1.06-1.89-1.72-2.56.56-2.49-.65-6.26,1.06-8.38-.09-1.13,1.31-1.82,2.14-2.49,2.69-.83,4.16,2.56,6.36.67l1.23.15c.57.98,2.45.76,3.27,1.44,2.21,1.13,4.83,1.52,5.64,3.63.33.3.82.14,1.23.14.73-.82,1.72-2.57,3.28-2.26.31.3-.09,1.13.65,1.13,2.03-.37,1.71-4.23,4.65-2.26,1.3.07,2.77-.3,3.91.3h.91c.49.6,1.7.9,2.62,1.36.65.53,1.88.74,2.53,1.43,1.39.3,2.29,1.89,3.19,2.95.41.92,1.97.83,2.13,1.96.98.31,1.64.84,2.29,1.51.66.99,3.19.6,2.13,2.49-.98,1.52-1.88,3.47-3.84,3.92-1.72.3-3.03-.44-3.77-1.66-.24-1.27-.24-2.63-.73-3.76.25-.92-.57-1.15-1.06-1.66-2.85,1.5-5.13,3.46-6.38,6.56-1.05.67-1.39,1.89-1.46,3.17-1.64.67-2.94,1.81-4.09,2.94-1.31.39-1.31-1.13-2.62-.83M430.38,34.72c.82-.23,1.87-.61,2.78-.23,0,1.65,2.12,1.8,2.37,3.46,0,3.1.82,6.86-.73,9.51-.09.53.24,1.2-.34,1.52v4.75c-.32,0-.48.32-.4.54v.45c-.33.47-.73,1.2-1.05,1.82-.41,1.27-1.39,1.96-1.39,3.46-2.21,1.21-3.27,3.1-5.15,4.38-2.12.84-.74-1.73-2.12-1.73-1.8-2.57-4.34-3.03-6.63-5.14h-.49v-.14c-2.21-.83-3.92-2.17-4.5-4.3,0-1.28.09-2.56.33-3.77.59-.75.59-2.2,0-2.96-.24-1.2-.98-2.18-.66-3.63,2.3-1.95,4.91-2.47,7.45-3.6,2.7,0,6.13.45,7.53-1.59,1.88-.09,1.72-2.12,3.02-2.79M371.1,32.75c-.65-.08-.08.6-.57.76-1.56,2.88-5.24,2.25-8.34,2.33-.25-.51-.82-.3-1.23-.3-.09-.67-1.06-.15-1.39-.53-1.47-.37-2.7-1.13-3.76-2.26-1.4-.6-2.37-2.05-2.53-3.17-.75-.3.08-1.29-.66-1.67-.41-.97.66-1.42.32-2.41.74-.16,0-1.2.74-1.5,1.07-.24.34-1.67,1.4-1.97.32-1.12,1.47-1.96,2.28-2.49,1.79-1.89,5.06-2.26,7.36-3.39,1.31-.23,2.95-.23,4.26,0l.33.98-.16,2.27c.74.97,2.46,1.34,1.8,2.79-.57.53-1.23,1.29-.41,1.96.25,1.28-.42,2.86.57,3.76v4.84ZM459.73,120.4c.26,2.66-.16-.38-.23-.6-1.28-.93-3.39-3.62-5.15-4.61-.63-.53-6.22-2.67-6.59-2.87-2.79-1.44-3.52-1.49-6.42-2.65-3.62-1.48-7.12-3.43-10.72-4.91-4.59-1.87-9.03-4.04-13.36-6.39-2.99-1.62-12.08-7.29-12.89-7.5-.8-.2-20.8,1.31-32.54.68-2.04-1.29-4.49-2.48-5.72-4.31-1.24-.54-2.37-1.22-3.19-2.34-.56.14-.26-.6.17-.3,6.85-.54,14.31-.3,21.35-.16v.16c1.46,0,2.77.08,4.06.3,14.2-.36,23.79-1.83,36.11-9.93,3.58-2.37,9.85-9.8,12.91-15.87,4.71-9.38,3.75-23.47-2.43-31.27-2.51-3.15-6.3-6.13-10.12-9.6-7.39-4.03-12.6-7.14-19.76-8.31-2.15-.35-8.88-1.18-11.05-1.39-16.35-1.67-30.46-3.11-42.85,6.09-3.65,2.7-9.62,12.67-1.07,22.04.9.97,6.63,4.45,8.91,5.21,4.42.3,8.68-.3,12.11-1.43,2.37-.31,4.16-1.36,6.38-1.66,1.06,0,1.87-.69,2.7-.69,2.94,0,6.28-.6,9.4-.16,5.24.3,10.54,2.35,13.73,4.92,1.32,2.1,2.71,4.38,1.64,7.24-1.95,2.65-4.74,3.62-7.11,4.76-9.89-.37-20.76.38-30.24-1.28v-.16c-2.88,0-5.32-.82-8.02-.98-.9-.52-2.54-.3-3.6-.82-2.21,0-3.6-.69-5.89-.69v-.16c-3.87-.86-8.45-1.55-12.49-1.66-4.59-.16-9.04-.96-13.65-1.09-9.7-.26-15.12.09-25.17.8-7.62.55-18.93,1.8-28.32,4.08-.65.21-1.47.21-1.97.67-3.42.3-6.44,1.35-9.8,1.66-7.19,1.14-14.08,1.12-21.91.16-4.11-.69-6.04-.62-9.1-1.24-4.19-.86-7.71-1.72-12.13-2.4-4.65-.7-9.42-2.16-13.98-3.35-6.66-1.75-13.44-3-20.12-4.58-4.58-1.12-9.45-2.09-13.76-3.05-1.23-.29-19.3-7.14-19.3-5.6v-.16c-6.14-1.5-13.73.23-19.78-1.5-7.93-2.04-11.12-8.52-16.69-12.77-3.51-1.8-5.06-5.35-7.68-7.76-1.22-1.36-2.86-2.57-4.74-2.79-2.05-1.13-5.16-.53-7.36-.46-.9.38-2.21.23-2.86.99-4.99,1.82-7.44,6.64-11.21,10.03-1.46.3-2.86.83-4.24,1.29-4.08.23-6.88,1.67-10.87,1.82-.25.3-.82.07-1.23.16-3.85,1.2-7.45,3.69-8.92,7.55-1.64,4.21-3.98,7.88-7.07,10.51-6.45,3.82-5.16,4.05-9.28,6.43-2.07,1.67-3.61,2.85-5.41,4.28-.08.97-2.53,2.21-2.83,4.75-.51,4.28,2.06,9.28,5.41,11.9.6,1.02-.12,3.45.26,3.56,1.06.39,1.55,6.19,6.01,7.4,1.06,1.21,3.35,1.73,3.02,3.93,0,0,.74,4.07.16,4.59.59,2.05,1.1,2.58,2.67,4.31,1.14,1.65,3.39,1.98,5.83,2.2,5.15.75,6.22-.76,9.5-2.89,1.54-.29,1.89-2.04,3.19-2.34.49-2.49,3.68-2.7,5.64-3.77,1.38-.07,1.8-1.13,3.19-.99l9.74-.54,6.71.72c3.6,2.38,2.51,2.93,4.72,5.12-.07.98,4.58,5.29,4.5,8.54-.98,1.44-1.88,3.48-3.77,4.23-4.74,1.89-10.05,2.93-14.72,4.59-1.46.76-4.32,1.97-4.32,1.97l-7.24,2.68s-4.03,1.03-5.82,1.86c-4.49,1.29-4.28,1.8-9.18,2.26-6.87,0-13.09,1.73-19.87,1.96-3.75.45-7.19.74-10.13,2.42-1.57.52-2.78,1.65-4.34,2.18-6.71,4.08-14.23,11.86-11.7,21.53,1.48,3.18,3.19,6.41,7.28,7.39.34.38,8.76,2.57,8.76,2.57,2.82.6,4.48.98,8.17,1.19,2.28-.09,4.25-.29,6.21-.82,3.02-1.07,6.13-1.2,8.66-2.79,1.55-.16,8.75-3.09,13-4.6,3.51-1.11,5-1.53,7.36-2.64,4.42-2.19,8.95-3.66,14.5-4.12.42-.16,1.84.04,2.34.18,12.35.46,24.94-.07,36.63-.83,2.54-.69,5.4-.6,7.85-1.29,5.57-1.52,8.26-2.75,12.67-5.28,2.17-1.47,2.9-1.62,5.44-3.41,2.39-1.66,3.89-2.49,5.03-3.85,1.4-.98,1.48-1.71,2.71-1.43.9.23,6.67,1.56,6.67,1.56,0,0,5.46,1.24,8.95,1.98,1.74.37,6.06,1.32,9.05,1.88,3.43.42,5.07,1.31,11.79,1.9,1.8.46,12.52,1.06,12.52,1.06,0,0,14.78-.76,22.89-4.01,9.5-3.25,27.4-8.15,27.4-8.15,4.2-1.28,7.48-2.12,10.45-3.17,4.26-1.14,8.51-2.19,12.67-3.63,1.67-.68,8.1-2.06,11.36-2.92,5.08-.65,8.23-.24,13.02.82,1.92.33,5.52,1.5,6.24,1.7,5.97,1.64,9.1,2.86,14.16,4.86,3.7,1.46,8.05,3.62,11.89,4.78,3.47,1.06,10.53,1.87,10.53,2.1,4.09.37,6.71.67,10.72,1.2,5.65-.14,10.32.21,16.85-.53,14.07-.5,30.57-.74,33.84,1.36,4.58,1.96,6.64,5.81,15.6,12.42,1.06.99,12.54,6.46,13.43,7.15,5.91,1.5,11.24,1.26,15.09-1.09,1.24-1.2,5.37-7.08,6.1-7.98,1.07-.99,4.13-6.97,4.9-9.52.58-3.88-.81-8.61-.81-8.61"/>
      <path d="M92.88,46.87c-.82-.09-.98-1.29-2.13-.83-.41.14.09.83-.57.83-.32,2.87-3.6,3.24-5.15,5.36-.99,1.13.32,2.27.15,3.47,1.81,2.03-.32,4.52-.15,6.94-.99.99-2.46.08-3.76.15-.57.23-.25.84-.33,1.29,1.15,1.36,2.85,2.17,4.24,3.33.59,2.4-.81,4.68-1.56,6.71-.16,1.06-1.71.67-2.52.99-.81,1.66,1.47,1.35,1.23,2.64,1.22.07,2.53,0,3.02-.99.49-.69,1.64-.99,1.96-1.82,1.4-.46,1.55-2.27,2.71-2.79l.16-1.14c1.22-1.42,1.14-3.99,2.7-5.14-.42-2.42.73-4.14.33-6.56-.74-.97-2.05-1.43-3.03-2.12-.09-1.96,1.54-2.93,2.28-4.45.91-.08.74-1.29,1.32-1.66v-2.94c-.41-.3-1.05-.6-.9-1.29"/>
      <path d="M98.92,56.69c-.41-.77-.98,0-1.48,0-.57,3.39.5,6.71-1.39,9.49.17,1.06,1.15,2.58,0,3.33-.16,2.27-.9,3.99-2.12,5.73-.65,1.73,1.33,1.66,2.12,2.35.66.07.58.97,1.39.6.58-.98,1.48-1.43,1.07-2.8,1.06-.99.98-2.63,1.47-3.92-.08-5.22.34-10.19-1.06-14.79"/>
      <path d="M88.79,37.51c.32-1.51-1.41-1.29-1.96-1.98.41-.67,1.47-.67,1.37-1.66-1.55.38-2.62-.74-3.92-.37-1.31-.46-3.19.37-4.25-.61-3.27-.38-5.64.38-7.6,1.82-.26.9-1.8,1.12-1.32,2.41h.58c3.35-1.29,7.36-.22,11.03-.3.89,1.22-.98,1.73-1.47,2.64-3.93,1.43-8.67-.31-12.76.44-3.2,2.05-5.48,4.54-7.53,7.25.25,1.13-.41,2.65.57,3.48,1.32-.53,2.3-1.29,3.93-1.66,4.42-.61,8.43-1.73,10.64-4.76,1.22.23,1.22-1.22,2.52-.67,1.73-.76,2.87-1.06,4.25-2.26,2.14-.83,2.95-3.7,5.9-3.77"/>
      <path class="cls-3" d="M63.69,77.76c.32-.24.08-.91.73-.69v-4.46l-.57-.98c-3.11.17-4.99,3.1-7.45,4.6-.57.39-1.8.47-1.63,1.37,2.7.67,6.21.97,8.91.16"/>
    </g>
  </g>
</svg>