<?xml version="1.0" encoding="UTF-8"?>
<svg id="Layer_2" data-name="Layer 2" xmlns="http://www.w3.org/2000/svg" viewBox="0 0 2299.68 217.54">
  <defs>
    <style>
      .cls-1 {
        fill: #ec9328;
      }
    </style>
  </defs>
  <g id="Layer_1-2" data-name="Layer 1">
    <g>
      <path class="cls-1" d="M241.92,177.86c1.12,9.98,3.08,25.48,14.98,29.42,8.04,2.49,15.27,2.49,18.06,2.49,1.42,0,2.22.25,2.22,1.32,0,1.72-2.51,2.5-5.87,2.5-6.07,0-36.08-.78-46.34-1.64-6.34-.58-7.74-1.34-7.74-2.78,0-1.11.61-1.7,2.02-1.89,1.37-.27,1.59-5.05,1.01-10.01l-13.26-143.14h-.84l-68.01,144.25c-5.88,12.23-6.66,14.66-9.15,14.66-1.91,0-3.34-2.79-8.63-12.77-7.21-13.53-31.12-61.57-32.47-64.33-2.49-4.95-33.56-71.56-36.56-79.08h-1.12l-11.15,128.74c-.19,4.44-.19,9.41-.19,14.19,0,4.07,2.95,7.7,7.16,8.6,4.68,1.14,8.9,1.4,10.61,1.4,1.04,0,2.1.47,2.1,1.32,0,1.95-1.61,2.5-4.94,2.5-10.3,0-23.61-.78-25.79-.78-2.51,0-15.79.78-23.31.78-2.82,0-4.73-.55-4.73-2.5,0-.84,1.37-1.32,2.74-1.32,2.24,0,4.26,0,8.34-.88,9.15-1.61,9.94-12.46,11.1-23L42.11,5.02c.65-3.09,1.42-5.02,3.19-5.02,1.62,0,2.68,1.1,4.07,4.19l84.93,174.39L215.9,4.43c1.07-2.51,2.21-4.43,4.08-4.43s2.76,2.19,3.36,7.48l18.58,170.39Z"/>
      <path class="cls-1" d="M420.85,133.2c0,26.5,0,48.57,1.39,60.15.84,8.09,2.51,14.12,10.82,15.32,3.88.5,10,1.1,12.43,1.1,1.77,0,2.24.83,2.24,1.59,0,1.45-1.34,2.22-4.38,2.22-15.27,0-32.77-.77-34.15-.77s-18.89.77-27.14.77c-3.06,0-4.46-.54-4.46-2.22,0-.77.47-1.59,2.22-1.59,2.48,0,5.8-.6,8.31-1.1,5.6-1.2,6.96-7.23,8.01-15.32,1.42-11.58,1.42-33.65,1.42-60.15v-48.86c0-43.34,0-51.04-.58-60-.5-9.4-3.25-14.05-9.42-15.44-3.09-.87-6.61-1.14-8.56-1.14-1.15,0-2.26-.57-2.26-1.66,0-1.67,1.33-2.21,4.46-2.21,9.1,0,26.64.84,27.99.84s18.88-.84,27.16-.84c3.08,0,4.46.54,4.46,2.21,0,1.09-1.1,1.66-2.18,1.66-1.94,0-3.66.27-6.97.84-7.48,1.36-9.68,6.1-10.2,15.74-.62,8.96-.62,16.66-.62,60v48.86Z"/>
      <path class="cls-1" d="M632.79,133.2c0,26.5,0,48.57,1.36,60.15.91,8.09,2.52,14.12,10.85,15.32,3.91.5,10.05,1.1,12.51,1.1,1.7,0,2.19.83,2.19,1.59,0,1.45-1.39,2.22-4.37,2.22-15.17,0-32.76-.77-34.13-.77-1.48,0-18.86.77-27.33.77-2.89,0-4.38-.54-4.38-2.22,0-.77.62-1.59,2.27-1.59,2.48,0,5.77-.6,8.31-1.1,5.58-1.2,6.96-7.23,8.08-15.32,1.4-11.58,1.4-33.65,1.4-60.15V15.87l-41.08.46c-17.18.33-23.91,2.16-28.3,8.93-3.06,4.75-3.9,6.62-4.68,8.53-.9,2.22-1.64,2.78-2.85,2.78-.82,0-1.39-.77-1.39-2.41,0-2.81,5.63-26.67,6.21-28.92.52-1.62,1.56-5.21,2.71-5.21,2,0,4.68,2.74,12.19,3.33,8.08.85,18.61,1.39,21.96,1.39h104.03c8.91,0,15.25-.84,19.68-1.39,4.18-.85,6.69-1.41,7.78-1.41,1.42,0,1.42,1.66,1.42,3.29,0,8.42-.84,27.49-.84,30.56,0,2.46-.88,3.61-1.96,3.61-1.42,0-1.96-.84-2.22-4.68l-.22-3.15c-1.2-8.26-7.6-14.6-34.22-15.24l-34.97-.46v117.33Z"/>
      <path class="cls-1" d="M836.78,187.57c-26.94-24.15-33.58-55.8-33.58-82.19,0-18.52,6.34-51.08,31.04-75.68,16.67-16.63,41.91-29.71,84.65-29.71,11.09,0,26.62.74,40.19,3.34,10.65,1.89,19.46,3.6,28.36,4.13,3.06.27,3.61,1.43,3.61,3.04,0,2.26-.87,5.58-1.45,15.52-.52,9.19-.52,24.39-.77,28.66-.25,4.12-.8,5.8-2.49,5.8-1.96,0-2.22-1.94-2.22-5.8,0-10.87-4.45-22.25-11.64-28.33-9.75-8.33-31.04-15.86-55.48-15.86-36.86,0-54.11,10.84-63.89,20.27-20.22,19.39-24.87,44.13-24.87,72.42,0,52.91,40.77,101.5,100.12,101.5,20.83,0,37.22-2.47,48.31-13.84,5.82-6.1,9.42-18.28,10.28-23.31.5-3.04,1.09-4.13,2.66-4.13,1.45,0,2.03,1.95,2.03,4.13,0,1.94-3.39,26.1-6.14,35.48-1.67,5.34-2.21,5.86-7.21,8.08-11.12,4.41-32.14,6.43-49.95,6.43-41.67,0-69.62-10.25-91.55-29.97"/>
      <path class="cls-1" d="M1302.06,133.2c0,26.5,0,48.57,1.36,60.15.87,8.09,2.54,14.12,10.93,15.32,3.83.5,9.9,1.1,12.46,1.1,1.62,0,2.19.83,2.19,1.59,0,1.45-1.4,2.22-4.5,2.22-15.25,0-32.71-.77-34.05-.77-1.42,0-18.85.77-27.24.77-3.03,0-4.48-.54-4.48-2.22,0-.77.57-1.59,2.24-1.59,2.54,0,5.95-.6,8.31-1.1,5.58-1.2,6.94-7.23,8.15-15.32,1.36-11.58,1.36-33.65,1.36-60.15v-29.19c0-1.11-.88-1.67-1.72-1.67h-117.64c-.85,0-1.66.3-1.66,1.67v29.19c0,26.5,0,48.57,1.36,60.15.87,8.09,2.57,14.12,10.84,15.32,3.86.5,10,1.1,12.49,1.1,1.7,0,2.16.83,2.16,1.59,0,1.45-1.31,2.22-4.38,2.22-15.21,0-32.73-.77-34.15-.77-1.34,0-18.86.77-27.1.77-3.12,0-4.54-.54-4.54-2.22,0-.77.58-1.59,2.24-1.59,2.51,0,5.8-.6,8.37-1.1,5.54-1.2,6.8-7.23,7.98-15.32,1.4-11.58,1.4-33.65,1.4-60.15v-48.86c0-43.34,0-51.04-.58-60-.5-9.4-2.76-13.83-11.88-15.74-2.22-.57-6.96-.84-9.42-.84-1.1,0-2.24-.57-2.24-1.66,0-1.67,1.39-2.21,4.45-2.21,12.44,0,29.97.84,31.31.84,1.42,0,18.94-.84,27.24-.84,3.06,0,4.43.54,4.43,2.21,0,1.09-1.07,1.66-2.22,1.66-1.92,0-3.61.27-6.97.84-7.42,1.36-9.74,6.1-10.27,15.74-.52,8.96-.52,16.66-.52,60v5.8c0,1.41.8,1.68,1.66,1.68h117.64c.84,0,1.72-.27,1.72-1.68v-5.8c0-43.34,0-51.04-.58-60-.54-9.4-2.85-13.83-11.96-15.74-2.18-.57-6.96-.84-9.43-.84-1.03,0-2.19-.57-2.19-1.66,0-1.67,1.4-2.21,4.46-2.21,12.51,0,29.93.84,31.35.84,1.34,0,18.8-.84,27.19-.84,3.11,0,4.4.54,4.4,2.21,0,1.09-1.09,1.66-2.22,1.66-1.95,0-3.56.27-6.91.84-7.44,1.36-9.73,6.1-10.25,15.74-.6,8.96-.6,16.66-.6,60v48.86Z"/>
      <path class="cls-1" d="M1485.53,84.33c0-43.34,0-51.03-.62-59.98-.54-9.42-2.81-13.84-11.88-15.76-2.19-.57-6.96-.84-9.56-.84-.99,0-2.16-.56-2.16-1.65,0-1.67,1.42-2.21,4.43-2.21,12.46,0,29.97.84,31.43.84,1.96,0,57.12,0,63.5-.3,5.24-.22,9.7-.84,11.95-1.36,1.28-.31,2.45-1.35,3.85-1.35.8,0,1.09,1.03,1.09,2.48,0,1.89-1.34,5.18-2.22,12.96-.27,2.76-.82,15.06-1.44,18.28-.24,1.4-.77,3.11-1.85,3.11-1.69,0-2.26-1.4-2.26-3.61,0-1.91-.19-6.62-1.69-10.03-1.89-4.38-4.67-7.74-19.7-9.36-4.7-.62-34.93-.86-37.98-.86-1.18,0-1.69.86-1.69,2.76v76.6c0,1.97.3,2.74,1.69,2.74,3.61,0,37.72,0,44.1-.5,6.67-.6,10.58-1.1,13.12-3.94,1.96-2.22,2.97-3.55,4.1-3.55.87,0,1.37.49,1.37,2.13s-1.37,6.4-2.24,15.53c-.52,5.56-1.09,15.87-1.09,17.85,0,2.1,0,5.26-1.97,5.26-1.34,0-1.92-1.16-1.92-2.56,0-2.7,0-5.41-1.09-9.13-1.07-3.88-3.61-8.63-14.45-9.78-7.46-.73-34.93-1.25-39.7-1.25-1.42,0-1.92.76-1.92,1.86v24.46c0,9.4-.27,41.56,0,47.39.87,19.18,5.08,22.76,32.25,22.76,7.16,0,19.43,0,26.65-3.07,7.22-3,10.47-8.59,12.43-19.97.6-3.03,1.04-4.16,2.46-4.16,1.67,0,1.67,2.21,1.67,4.16,0,2.27-2.22,21.15-3.53,26.99-2.02,7.22-4.21,7.22-15.03,7.22-41.87,0-60.51-1.69-68.48-1.69-.63,0-5.35.22-11.12.22-5.61.27-11.99.54-16.18.54-3.01,0-4.4-.54-4.4-2.21,0-.77.6-1.59,2.24-1.59,2.46,0,5.77-.6,8.34-1.11,5.47-1.19,6.92-7.22,8.06-15.32,1.4-11.57,1.4-33.64,1.4-60.15v-48.86Z"/>
      <path class="cls-1" d="M1773.72,133.68c0,40.84,1.1,58.53,6.12,63.59,4.4,4.4,11.72,6.36,33.25,6.36,14.78,0,26.97-.28,33.67-8.36,3.6-4.4,6.4-11.34,7.13-16.69.24-2.11.84-3.56,2.56-3.56,1.36,0,1.67,1.13,1.67,4.22s-1.91,19.67-4.23,27.78c-1.94,6.31-2.76,7.5-17.44,7.5-39.98,0-58.23-1.7-74.33-1.7-1.17,0-5.82.23-11.42.23-5.55.28-11.59.54-15.79.54-3.01,0-4.45-.54-4.45-2.21,0-.76.57-1.59,2.19-1.59,2.52,0,5.85-.61,8.33-1.11,5.52-1.2,6.94-7.23,8.08-15.32,1.36-11.57,1.36-33.64,1.36-60.14v-48.87c0-43.33,0-51.04-.6-59.99-.47-9.43-2.74-13.85-11.91-15.76-2.11-.57-6.88-.84-9.35-.84-1.18,0-2.3-.57-2.3-1.66,0-1.67,1.45-2.21,4.53-2.21,12.4,0,29.89.84,31.34.84,1.36,0,21.62-.84,29.93-.84,3.08,0,4.42.54,4.42,2.21,0,1.09-1.1,1.66-2.14,1.66-1.99,0-5.88.27-9.27.84-7.92,1.36-10.22,6.1-10.69,15.76-.63,8.94-.63,16.65-.63,59.99v49.34Z"/>
      <path class="cls-1" d="M2005.86,133.68c0,40.84,1.17,58.53,6.17,63.59,4.43,4.4,11.62,6.36,33.26,6.36,14.76,0,26.97-.28,33.51-8.36,3.71-4.4,6.55-11.34,7.32-16.69.25-2.11.8-3.56,2.52-3.56,1.39,0,1.7,1.13,1.7,4.22s-2.07,19.67-4.23,27.78c-1.92,6.31-2.76,7.5-17.46,7.5-39.98,0-58.32-1.7-74.35-1.7-1.17,0-5.85.23-11.44.23-5.58.28-11.58.54-15.79.54-3,0-4.43-.54-4.43-2.21,0-.76.54-1.59,2.19-1.59,2.55,0,5.87-.61,8.36-1.11,5.5-1.2,6.91-7.23,8.01-15.32,1.37-11.57,1.37-33.64,1.37-60.14v-48.87c0-43.33,0-51.04-.62-59.99-.52-9.43-2.68-13.85-11.8-15.76-2.27-.57-6.99-.84-9.45-.84-1.14,0-2.22-.57-2.22-1.66,0-1.67,1.34-2.21,4.45-2.21,12.43,0,29.95.84,31.35.84s21.57-.84,29.89-.84c3.04,0,4.48.54,4.48,2.21,0,1.09-1.12,1.66-2.21,1.66-1.97,0-5.77.27-9.21.84-7.95,1.36-10.24,6.1-10.84,15.76-.57,8.94-.57,16.65-.57,59.99v49.34Z"/>
      <path class="cls-1" d="M2196.98,210.03c-3.86-1.95-4.1-3.01-4.1-10.52,0-13.91,1.12-24.99,1.39-29.48.31-3.04.85-4.37,2.21-4.37,1.62,0,1.96.78,1.96,3.01,0,2.45,0,6.32.85,10.27,4.12,20.57,22.44,28.34,40.97,28.34,26.76,0,39.78-19.21,39.78-36.95,0-19.13-8.08-30.25-31.99-49.93l-12.49-10.25c-29.38-24.15-36.09-41.35-36.09-60.23,0-29.67,22.25-49.92,57.47-49.92,10.88,0,18.93,1.1,25.85,2.76,5.24,1.14,7.46,1.45,9.67,1.45s2.84.52,2.84,1.89-1.15,10.54-1.15,29.35c0,4.53-.58,6.4-1.86,6.4-1.78,0-2.03-1.36-2.38-3.6-.22-3.3-1.88-10.83-3.55-13.9-1.64-3.01-9.15-14.72-34.73-14.72-19.07,0-34.08,12-34.08,32.22,0,15.79,7.79,25.23,33.86,46.6l7.79,6.13c32.79,25.8,40.49,42.98,40.49,65.11,0,11.42-4.38,32.5-23.58,46.19-11.95,8.29-26.92,11.65-41.89,11.65-13.01,0-25.75-2.03-37.24-7.52"/>
    </g>
  </g>
</svg>