<?xml version="1.0" encoding="UTF-8"?>
<svg id="Layer_2" data-name="Layer 2" xmlns="http://www.w3.org/2000/svg" viewBox="0 0 1904.33 389.82">
  <defs>
    <style>
      .cls-1 {
        fill: #e19926;
      }
    </style>
  </defs>
  <g id="Layer_1-2" data-name="Layer 1">
    <path class="cls-1" d="M1667.08,254.63l-27.74,15.07c-51.07,25.43-111.82,31.76-168.46,28.44-14.28,1.52-27.77,1.42-41.72-1.29-12.28-2.54-23.64-6.71-34.28-13.09-5.65,4.79-11.39,8.35-18.26,9.61-10.09,1.85-19.24-3.52-22-13.32-1.16-4.12-1.32-8.16-1.3-12.7-12.49,14.17-28.47,32.88-47.21,35.95-13.44,2.2-25.46-4.68-30.33-17.19-6.48-16.68-1.18-37.7,6.08-54.34.68-.59.03-1.37-.65-.69-6.75,2.93-13.58,4.11-21.08,4.31-3.36,21.6-14.11,43.02-27.68,59.93-5.94,7.4-12.75,13.54-21.29,17.5-12.15,5.64-25.52,3.7-35.55-5-6.58-5.71-10.05-13.48-10.55-22.47.56-.87-.57-1.61-.79-.88l-13.51,18.42c-3.17,4.32-7.06,7.94-11.73,10.49-5.63,3.06-11.72,1.95-16.27-2.39-3.91-3.74-7.11-8.01-9.26-13.01l-7.42-17.26c-6.97,8.12-13.92,14.91-22.17,20.8-5.43,3.88-12.2,3.07-16.34-2.28-2.44-3.16-3.9-6.81-4.96-11.05-4.51,5.61-9.34,10.84-15.73,14.47-9.94,5.65-25.19,6.98-35.74,2.05-5.69,5.84-12.02,10.52-19.7,12.05-7.26,1.45-12.84-2.1-15.34-8.89-2.91-7.88-2.97-15.9-3.57-24.96-7.2,18.71-17.41,34.99-31.09,49.6-11.04,11.79-22.15,22.69-34.51,33.05-12.38,10.38-29.22,22.85-44.86,24.17-10.6.89-19.79-4.18-23.66-14-5.33-13.52-1-29.44,3.68-43.31l17.03-50.51c4.23-12.53,13.2-52.28,3.72-47.31-16.65,8.74-43.35,68.51-52.41,89.87-1.61,3.8-5.53,5.23-8.67,4.13-4.01-1.41-5.47-5.2-4.33-9.11l6.5-22.26c5.01-17.16,10.56-50.18,1.92-65.66-4.78,6.86-7.77,13.64-10.87,20.84l-15.35,35.65c-7.05,16.37-16.93,34-32.75,41.87-8.86,4.41-18.39.95-22.39-7.9-2.76-6.09-3.23-12.44-3.63-19.65-12.28,13.46-34.31,34.06-50.75,24.4-15.04-8.85-16.04-28.47-8.89-43.38l7.13-14.86-25.04,27.19c-18.03,19.58-51.23,59.73-77.71,53.41-10.13-2.42-17.58-9.67-22.07-18.89-10.79-22.18-5.69-54.31,3.69-77.39,1.07-.74-.23-2.07-.82-.95-17.47,16.11-33.66,32.43-49.87,49.52-9.9,10.43-19.92,19.79-31.16,28.55-7.15,5.58-14.41,9.75-22.59,13.58-13.43,6.28-26.58,11.36-41.48,13.84-19.6,3.27-39.02,4.89-59,4.05-34.75-1.46-68.29-16.73-85.19-47.61-57.32-20.97-82.69-73.13-109.26-123.84l-24.24-46.25c-6.82-13.02-15.79-23.97-24.96-35.44-10.64-13.32-21.91-25.16-33.75-37.5C44.46,49.44,22.43,30.93,0,10.18c35.65,21.44,68.4,47.27,98.28,76.06,14.1,13.59,26.6,27.71,37.74,43.63s19.87,31.23,29.55,47.41l25.84,43.19c12.68,21.19,34.43,46.79,56.72,58.67-.32-19.37,6.91-37.34,21.36-49.84,11.58-10.02,25.83-14.52,41.12-15.15,18.75-.78,36.07,7.06,46.55,22.72,10.32,15.43,12.98,34.74,6.89,52.29-8.47,24.4-31.47,35.97-57.23,33.8,17.75,10.49,37.85,12,58.51,11.39,32.05-.94,61.8-4.53,85.7-27.34,9.76-9.32,18.06-19.92,24-31.9,8.3-16.74-1.27-30.93-14.87-42-8.57-6.97-17.42-12.9-27.27-18.03l-42.09-21.91c-21.85-11.37-46.91-24.59-61.15-44.55-10.1-14.15-12.97-31.38-7.5-48,11.24-34.09,38.5-60.13,70.01-76.66C420.32,9.19,451.38.92,483.25.07c18.45-.49,35.84,1.38,52.91,7.65,27.52,10.1,46.89,31.27,45.67,61.43-.41,10.16-3.26,19.26-7.23,28.54-6.23,14.57-14.8,27.54-27.23,37.46-12.61,10.07-27.85,15.6-43.96,14.69-10.68-.6-20.76-4.03-28.43-11.13-6.91-6.4-9.95-15.3-7.38-24.19.93-3.21,3.63-5.22,6.47-4.74,3.31.56,5.02,3.38,4.85,6.79-.43,8.96,12.54,13.29,23.91,11.52,24.76-3.87,40.26-29.56,41.96-53.08,1.33-18.39-13.55-27.58-30.35-31.22-35.91-7.77-79.2,2.12-111.06,20.14-20.59,11.65-37.76,28.03-46.22,50.21-1.64,4.31-1.52,8.74.56,12.93,7.02,14.13,27.81,28.28,42.14,36.93l43.95,26.51c10.81,6.52,20.72,13.35,30.37,21.41,38.05,31.79,26.53,57.83,27.73,60.2.21.42.77.42,1.5-.46,16.07-16.51,32.54-31.93,49.69-47.32l30.48-25.02c12.53-10.29,25.55-19.3,41.33-23.99,5.5-1.63,11.01-2.52,16.76-1.92,9.91,1.03,17.61,7.83,19.78,17.49,3.93,17.52-5.8,42.03-16.13,57.12-1.62,2.37-5.12,2.42-6.99,1.59-2.94-1.31-3.78-4.12-3.19-7.31l5.32-28.6c1.04-5.59,1.24-11.05-.23-16.69-4.33.61-7.97,2.14-11.78,4.11-22.03,11.44-39.46,29.04-51.09,50.97-9.98,18.82-19.55,48.52-12,67.87,1.08,2.76,3.31,6.8,6.52,6.82,10.08.07,30.81-18.3,40.34-27l50.68-46.3c10.15-9.27,20.26-17.55,31.52-25.31,7.51-5.17,15.19-9.01,23.47-12.58,5.06-2.18,9.49-4.59,15.2-5.12,10.59-.98,20.17,5.2,22.55,15.84,1.95,8.73,2.01,17.96-.39,26.74l-10.77,39.39c-1.88,6.87-3.04,13.7-2.46,20.89,16.01-7.12,26.93-30.67,32.9-46.55l11.77-31.32c3.83-10.21,9.99-22.19,20.16-22.05,11.62.16,18.42,16.44,20.06,29.19,8.55-14.6,18.6-31.51,36.35-32.54,12.27-.71,22.66,5.53,26.82,17.15,6.29,17.59.27,43.22-5.05,61.97s-11.92,34.74-19.1,51.96c-3.29,7.88-8.58,24.52-6.16,27.91.4.56,1.76,1,2.95.94,29.52-1.59,63.49-37.79,61.43-38.53-.34-.12-15.85,3.71-25.61-11.51-4.24-6.61-6.13-14.1-6.14-22.41-.05-30.57,16.98-63.06,45.26-76.6,14.48-6.93,31.06-5.63,39.53,8.87,5.18-35.96,11.76-70.16,21.78-104.28,5.7-19.42,17.44-46.44,35.17-55.26,11.11-5.52,23.29-.73,27.31,11.03,7.66,22.43-7.66,61.89-19.65,83.35l-28.6,51.2-22.64,39.31-4.27,34.57.18,12.26c.01.73.18,1.61.5,1.9,1.69,1.51,10.77-5.9,12.41-11.37-4.33-12.39-.08-27.05,6.59-38.75,8.99-15.76,21.26-29.32,35.77-40.24,4.92-3.7,10.1-6.48,15.97-7.76,8.44-1.83,16.17,2.46,18.62,10.91,3.53,12.17,3.55,25.28.72,37.88-2.39,10.67-3.21,21.11-.11,31.8.13.46.14,1.11.59,1.18,2.33.33,18.62-18.53,23-25.7-8.72-36.53-2.58-75.72,8.91-110.92,5.78-17.69,12.4-34.45,20.9-50.93,9.48-18.38,27.25-45.14,45.94-52.42,12.82-5,25.86,1.7,29.03,15.13,4.37,18.53-6.54,49.29-14.41,68.38-13.57,32.91-29.2,64.37-46.99,95.19l-24.99,38.44c2.84,11.98,6.49,27.03,14.14,36.02,5.39-4.01,9.36-8.82,12.65-14.4l20.82-35.22,20.68-33.93c5.17-8.49,11.86-15.28,19.94-21.09,10.49-7.54,24.04-9.38,35.74-3.49,9.31,4.69,14.91,13.97,16.81,24.01.28,1.5,1.13,1.41,2.37,1.31,17.04-1.31,30.96-14.36,40.18-28.2,2.92-4.39,8.41-5.5,12.65-2.68s4.83,8.06,2.4,12.69c-8.92,16.98-13.89,45.62-16.31,65.57v9.37c0,1.23.31,2.6.8,3.22,1.77,2.25,9.54-.59,14.8-3.44,17.49-9.46,33.23-26.54,45.41-42.23,3.29-9.3,7.01-17.82,12.05-26.09,2.44-3.6,4.93-7.23,8.9-9.03,2.87-1.3,6.24-1.01,8.6,1.03,5.15,4.46,1.6,12.2-2.24,18.91l-15.47,23.95c-2.52,9.19-4.62,17.81-4.5,27.29.38,2.1-.08,5.56,1.76,7.29,1.66,1.53,5.38-1.26,7.17-2.74,15.73-12.99,37.59-50.32,47.27-69.97l27.97-56.78c2.76-5.6,5.07-11,11.62-12.96l1-.44c6.35-1.8,12.87-.29,18.59,3.21,9.06,5.54,16.6,12.81,23.75,20.72,20.14,22.26,41.37,57.39,34.57,87.43l-.29,1.28c-5.42,17.71-17.85,31.44-33.22,40.49,1.21.78,1.85.46,2.3.4l1.3-.19,1.19-.16,1.23-.16,1.37-.19c19.96-2.81,39.32-6.96,58.34-13.46l1.14-.39,1.07-.37,1.07-.37,1.07-.37,1.08-.37,1.07-.38,1.05-.39,1.03-.4,1.03-.4,1.05-.39,1.07-.39,1.06-.4,1.03-.41,1.01-.42,1.03-.41,1.04-.41,1.01-.43.99-.44.99-.43,1.02-.42,1.06-.47c14.74-6.61,28.62-14.2,41.77-23.54l.88-.63.85-.6.84-.62.82-.72c45.13-34.69,88.09-70.68,125.51-113.76.21-.19.59-.36.91-.72l.63-.73.68-.75.69-.76.7-.74.71-.73.7-.74.68-.76.67-.78.66-.79.73-.87c26.69-28.8,57.26-53.37,89.99-75.1l.96-.6.89-.56.89-.55.89-.56.87-.57.87-.57.87-.57.88-.56.88-.56.88-.55.89-.55.89-.55.89-.55.88-.56.89-.54.91-.53.9-.54.89-.54,15.97-9.22.96-.48.93-.49.93-.52.99-.5c1.1-.55,2.24-.36,2.72.63.17.35.32,1.62-.2,2.04-26.3,21.07-50.96,43.54-73.95,68.26l-25.75,30.51c-30.46,40.57-63.92,77.95-102.91,110.6-10.78,9.02-21.65,16.76-34.28,23.62ZM1116.09,237.7c18.66-31.85,33.93-64.85,45.92-99.59,5.84-17.71,11.2-34.7,14.4-53.56-10.62,11.81-18.41,24.92-25.38,38.97-16.91,34.06-35.16,75.4-34.94,114.18ZM1026.23,153.82c6.99-14.56,11.8-28.96,14.87-44.42.71-5.67,1.87-10.84.7-17.15-11.66,11.83-17.6,30.36-22.68,46.17l-16.02,59.59,23.14-44.2ZM1513.54,237.34c.18-8.15-2.18-15.43-5.68-22.8-7.72-16.25-18.57-30.45-31.2-43.74-13.74,25.12-28.41,48.45-44.92,71.22l-25.24,31.02c22.81,7.72,46.76,7.9,69.21.82,17.92-5.65,33.95-17.74,37.83-36.52ZM1236,258.75c3.94-8.08,5.64-16.66,5.07-25.66-8.79-3.05-15.34-9.54-17.22-19.28-4.9,1.84-8.62,5.21-12.43,8.84-8.68,8.37-15.83,17.54-23.13,27.29-3.04,10.17-4.92,20.56-4.04,31.09.54,5.11,2.28,9.22,5.84,11.48,4.1,2.61,8.37,3.24,12.93,1.38,13.74-5.59,26.43-21.72,32.97-35.14ZM1044.72,280.63c14.01-15.49,22.21-40.15,16.81-60.22-5.47,1.55-9.57,4.36-13.56,7.99-15.49,14.09-30.95,39.09-29.15,60.41,9.93,2.41,19.03-.57,25.91-8.18ZM950.19,291.6l8.41-23.14c3.32-9.15,3.16-27.45-1.16-29.19-6.09-2.45-18.43,6.67-24.51,13.71-11.98,13.9-18.47,31.92-18.35,50.32.02,3.59,1.62,8.28,5.07,9.13,8.71,2.15,23.3-12.95,30.53-20.83ZM680.84,310.98c4.88-.56,8.62-2.21,12.44-4.3,10.36-5.64,19.45-12.73,28.23-20.44,1.21-15.69,3.78-30.26,7.09-45.41l-12.46,10.5c-10.97,10.76-20.74,22.37-29.64,34.92-5.33,7.52-12.2,19.3-5.65,24.73ZM334.37,281.5c3.6-8.91,2.61-18.39-2.12-26.21-4.4-7.26-11.8-10.37-20.22-10.07-9.79.35-19.34,3.28-25.61,11.04-7.9,9.8-9.38,22.76-6,34.69,12.42,2.17,24.35,3.53,36.59,2.41,7.67-.7,14.08-4.77,17.36-11.86Z"/>
  </g>
</svg>