<?xml version="1.0" encoding="UTF-8"?><svg id="Guides" xmlns="http://www.w3.org/2000/svg" viewBox="0 0 1956.3 816.01"><defs><style>.cls-1{fill:#f0e5d5;}.cls-2{fill:#e29925;}</style></defs><path class="cls-2" d="M1102,547.73c.05-.04.09-.07.09-.07-12.53-10.13-98.08-83.63-120.12-83.25-11.93.19-25.05,12.71-35.17,12.71s-21.01-12.48-35.91-13.09c-14.9-.61-23.99,10.26-35.3,17.4-11.32,7.16-81.03,72.01-81.03,72.01.5.22,1.02.4,1.53.59-.7-.13-1.39-.29-2.04-.46,0,0,73.57,65.69,98.7,77.87,29.21,14.14,68.81,15.33,99.48,5.96,27.67-8.44,100.81-72.2,110.02-89.57,0,0-.08-.04-.25-.11ZM946.74,570.78c-38.73-.2-46.12-26.33-74.03-29.99,14.08-5.82,32.53-15.09,38.25-15.09,7.74,0,25.81,6.62,35.97,6.62s30.66-7.33,39.62-7.33,22.81,7.5,30.32,12.38c1.51.98,3.33,1.99,5.39,3.02-27.02,3.55-31.84,30.61-75.52,30.39Z"/><path class="cls-1" d="M969.9,734.57c1.02-7.71,1.46-14.93,1.33-21.46,0-.02,0-.03,0-.05,1.6-25.56,2.74-44.63,3.15-50.91.64-9.86-3.73-16.43-4.61-20-.77-3.15-2.99-15.36-5.29-37.09-.13-2.45-.28-4.88-.42-7.26-.48-7.73-1.02-14.92-1.64-20.19-.3-3.49-.96-8.4-1.74-13.6-1.27-8.51-2.81-17.82-3.45-23.08.07-.02.14-.03.21-.05,0,0,0-8.9-.12-14.55-.02-1.16-.05-2.18-.09-2.96-.14-3-4.01-3.21-7.28-3.12-.03,0-.06,0-.1,0-2.36.38-4.34,1.81-5.97,3.97-6.01,7.95-7.4,25.8-5.77,37.72.17,1.25.37,2.44.61,3.55.63,2.96.04,7.23-.61,13.92-.91,9.26-1.97,23.16-.14,44.63.04.5-.48.84-.92.6-4.44-2.44-9.04-5.1-13.65-8.12-5.5-3.6-17.04-11.53-18.98-13.26-1.93-1.73-6.26-3.58-12.69-2.98-6.42.6-34.3,5.88-38.07,6.25-3.77.38-29.9,17.21-29.9,17.21.1-.03.21-.06.33-.09-.04.02-.09.03-.13.04-.21.07-.43.02-.6-.12,0,0,0,0,0,0,1.05,2.82,4.47,5.1,10.95,5.64.27.02.49.21.56.48,2.28,9.55,8.86,18.55,14.28,21.85.38.23.4.77.04,1.03-.16.12-.33.24-.49.36-.02.01-.03.03-.05.04-12.35,11.06-21.72,32.85-21.92,33.18.1-.09.2-.19.33-.31.14-.14.29-.3.46-.49.04-.04.08-.09.12-.13.32-.36.7-.8,1.12-1.3-.81.98-1.49,1.75-1.98,2.26.03.02.06.04.1.06-.03-.02-.06-.04-.1-.06,0,0,0,0,0,0,.2,3.24,12.97,9.06,31.24-15.22.04-.06.1-.11.15-.14.65-.43.85-.57,1.79-1.13.2-.12.45-.11.65.01,1.41.9,2.18.86,4.63,3.02.27.23.29.92.05,1.17-3.48,3.72-5.35,9.35-7.67,12.14-3.36,4.03-8.76,22.01-11.56,27.95-.35.69-.77,1.35-1.23,1.96.09.06.17.12.26.18l-.13-.02c3.05,2.16,13.07,9.74,27.94-18.72.03-.06.07-.12.12-.16,1.3-1.23,2.73-2.56,4.21-3.94.3-.28.77-.2.97.15,12.9,23.29,2.23,37.82,23.68,63.31,0,0,.02.02.02.03,4.84,6.82,17.31,11.35,22.01,19.25.02.03.03.06.05.09,6.53,15.79-6.04,41.61-1.28,39.79,9.41-4.09,44.82-53.3,47.24-81.35ZM845.88,714.36s0,0,0,.01c0,0,0,.01,0,.02-.02.05-.04.09-.07.14.03-.06.05-.11.08-.17ZM845.19,715.84s0,0,0,0c0,.01-.01.02-.02.04,0-.01.01-.03.02-.04ZM845.13,715.96c.52-.94,1.7-2.92,3.25-5.49-1.56,2.57-2.74,4.56-3.25,5.5,0,0,0,0,0-.01ZM851.22,717.19s-.01,0-.02,0c.02,0,.03,0,.05,0,0,0-.02,0-.03,0ZM884.66,655.77c.13-.08.28-.11.43-.08,1.76.29,6.34.34,16.04.96-4.61.09-15.26.46-18.32,3.29-.39.36-.8.76-1.23,1.17-.34.33-.9.18-1.03-.27-.24-.82-.4-1.42-.51-1.88-.07-.27.06-.55.3-.69,1.87-1.04,3.39-1.91,4.32-2.49ZM888.09,648.82s.02-.03.03-.04c0,0,0,0,0,0,0,0-.02.02-.03.04ZM886.56,625.14c2.18-.09,3.25-.04,5.21.63.64.22.52,1.15-.15,1.21-.89.09-1.64.37-3.17.63-3.2.55-11.47,5.6-20.53,11.71-.32.21-.75.1-.91-.25-1.78-3.78-5.08-9.46-8.38-12.43-.43-.39-.14-1.11.45-1.08,7.96.35,23.48-.25,27.49-.42ZM868.05,641.54s0-.01,0-.02c0,0,0,.01,0,.02,0,0,0,0,0,0Z"/><path class="cls-2" d="M953.55,546.52c.3,2.31,2.97,2.14,3.73,2.25,0,.02,0,.05,0,.07.31,0,.64,0,.99-.05,0-.03,0-.06-.01-.09.08-.02.17-.04.25-.05,0,0-.69-20.41-1-25.47-.32-5.06-.61-4.37-3.74-4.85s-2.22,2.5-2.2,3.19c.2,7.51,1.19,18.78,1.99,25Z"/><path class="cls-2" d="M853.16,693.81c-3.43,2.51-8.73,14.98-10.67,18.21-1.94,3.22-1.74,2.93-.68,4.38,1.06,1.45,2.46,3.75,4.54.7,2.07-3.04,7.1-14.76,8.26-18.1,1.16-3.34,1.99-7.7-1.44-5.19Z"/><path class="cls-2" d="M825.66,615.98c-2.37,1.65-3.52,1.89-3.24,5.53.21,2.68,1.67,5.4,4.5,5.18,2.19-.17,13.67-5.4,18.69-10.77,5.02-5.37,2.77-5.93,1.66-7.02-1.11-1.09-19.24,5.44-21.61,7.08Z"/><path class="cls-2" d="M841.45,664.33c-.8-1.29-1.87-.79-6.72,2.61-4.85,3.4-10.64,14.12-12.55,15.73-1.91,1.61-.09,2.72,1.14,3.91,1.23,1.19,2.02,2.52,5-.42,2.97-2.94,8.99-11.18,11.05-14.85,2.06-3.66,2.88-5.69,2.08-6.98Z"/><path class="cls-2" d="M863.51,234.73s0,0,0,0c-.06,0-.09,0,0,0Z"/><path class="cls-2" d="M1904.76,19.66c-.44-.84-1.47-1.15-2.31-.72-5.4,2.81-10.64,5.77-15.85,8.86-5.21,3.06-10.36,6.24-15.44,9.51-10.17,6.55-20.18,13.38-29.95,20.65-19.4,14.6-38.28,30.23-55.59,47.92l-6.46,6.68c-2.06,2.21-3.96,4.43-5.96,6.61-3.93,4.4-7.92,8.77-11.92,13.1-7.99,8.67-16.22,17.06-24.49,25.39-8.33,8.3-16.82,16.38-25.46,24.24-8.73,7.77-17.41,15.54-26.52,22.74-9.11,7.24-18.19,14.38-27.08,21.81-8.89,7.42-18.09,14.51-27.92,20.59-19.03,12.26-40.31,21.56-62.61,28.3-19.25,5.86-39.31,9.64-59.58,11.98,2.81-1.5,5.55-3.15,8.24-5.02,7.96-5.52,15.22-12.85,20.46-21.59,1.37-2.12,2.53-4.4,3.62-6.68l1.56-3.49c.56-1.4,1.06-2.87,1.47-4.31,1.62-5.83,2.03-11.57,1.75-16.94-.62-10.73-3.59-20.06-7.14-28.64-7.43-17.03-17.53-31.41-29.39-44.61-3.03-3.28-6.18-6.46-9.58-9.58-3.46-3.15-6.93-6.18-11.79-9.3-1.25-.78-2.59-1.59-4.34-2.43-1.84-.81-3.68-1.81-8.02-2.43-2.25-.19-5.52-.5-10.26,1.62-2.25,1.06-4.59,2.9-6.15,4.87-.81,1.03-1.37,1.97-1.93,2.99-.22.44-.44.9-.62,1.34l-.25.62c-.06.22-.44,1.15-.78,1.93-1.4,3.34-3.09,6.96-4.74,10.51-6.83,14.26-13.88,28.61-21.28,42.68-7.39,14.13-15.07,28.05-23.43,41.37-4.18,6.64-8.55,13.13-13.16,19.15-2.34,3.03-4.74,5.93-7.24,8.52-2.46,2.65-5.05,4.99-7.49,6.68-2.53,1.72-4.09,2.12-5.09,2.09-.31-.03-.06.19-.34.06-.25-.19-.78-.94-1.12-2.15-.75-2.43-.97-5.96-.81-9.48.16-3.56.62-7.3,1.34-11.04.84-4.4,1.97-8.8,3.28-13.16,4.21-5.86,8.33-11.82,12.1-18.09,2.18-3.65,4.27-7.21,6.21-11.51.5-1.15.97-2.25,1.4-3.9.12-.44.22-.94.31-1.53.06-.72.19-1.34-.03-2.84-.03-.34-.19-.9-.31-1.31-.16-.47-.5-1.19-.84-1.68-.47-.69-1.03-1.31-1.72-1.81-.72-.56-1.53-.97-2.21-1.15-.78-.25-1.4-.34-1.9-.34-.62-.03-1.03,0-1.37.03-.41.06-.78.12-1,.19-.25.06-.56.16-.75.22-1.5.53-2.56,1.22-3.28,1.78-.41.31-.72.59-1,.87-.34.28-.62.56-.87.81-1.03,1.06-1.81,2.06-2.53,3.03-2.84,3.93-4.84,7.71-6.74,11.54-1.87,3.87-3.56,7.74-5.15,11.64-.81,2.03-1.59,4.09-2.34,6.15-.47.59-.9,1.19-1.37,1.78-2.46,3.09-4.99,6.15-7.55,9.11-2.65,2.96-5.3,5.86-8.05,8.67-5.46,5.62-11.26,10.92-17.35,15.44-6.05,4.52-12.63,8.39-18.47,10.29-2.84.97-5.49,1.19-6.68.81-.31-.06-.53-.19-.65-.28-.16-.09-.41-.25-.44-.34-.12-.25.06-.22.09-.31.06-.12-.53-1.65-.72-4.18-.22-2.46-.09-5.68.22-8.98.69-6.71,1.9-14.1,3.28-21.62,1.4-7.52,3.03-15.26,5.21-22.84,2.25-7.52,4.8-15.19,8.33-22.02l.03-.06c1.9-3.99.53-8.86-3.31-11.23-4.12-2.59-9.55-1.31-12.14,2.81-.31.53-.9,1.4-1.43,2.12-.53.75-1.06,1.53-1.65,2.28-1.15,1.5-2.34,2.96-3.59,4.4-2.5,2.87-5.15,5.55-7.96,7.99-5.62,4.84-11.85,8.58-18.28,10.33-.81.19-1.59.41-2.4.53-.81.16-1.59.28-2.59.41-1.56.19-3.09.31-4.62.41v-.06c-1.06-6.33-3.52-13.29-8.92-19.19-2.65-2.93-6.11-5.46-9.92-7.11-3.84-1.65-7.89-2.43-11.73-2.53-.97-.03-1.93-.03-2.87,0l-2.75.25c-.87.06-2.03.31-2.99.5-1,.25-2,.5-2.93.78-3.74,1.22-6.89,2.93-9.64,4.77-5.46,3.77-9.67,7.92-13.38,12.2-3.68,4.31-6.96,8.67-9.98,13.1-5.99,8.92-11.2,17.94-16.25,26.98-4.99,9.02-9.92,17.97-15.1,26.64-2.62,4.31-5.18,8.61-8.02,12.67-2.74,4.02-5.71,7.96-8.8,10.98-1.34,1.34-2.78,2.4-3.74,2.9,0,0,0-.03-.03-.03-.9-.84-2.15-2.59-3.21-4.43-1.06-1.87-2.06-3.93-2.99-6.08-3.43-8.02-5.93-16.85-7.92-25.74,4.27-5.8,8.36-11.73,12.26-17.75,11.36-17.47,21.53-35.53,30.95-54,9.52-18.44,18.41-37.15,26.55-56.43,4.02-9.67,7.89-19.47,11.04-29.7,1.62-5.12,3.12-10.36,4.34-15.82,1.19-5.52,2.25-11.14,2.46-17.81.03-1.68,0-3.46-.19-5.43-.19-1.93-.5-4.06-1.25-6.58-.78-2.46-1.93-5.46-4.77-8.73-1.43-1.59-3.28-3.18-5.46-4.34-2.18-1.22-4.55-1.87-6.74-2.21-4.43-.56-7.71.22-10.23,1-2.56.81-4.52,1.78-6.3,2.78-3.46,1.97-6.11,4.06-8.52,6.15-4.8,4.18-8.67,8.49-12.29,12.88-3.62,4.37-6.83,8.92-9.86,13.54-3.03,4.62-5.83,9.3-8.45,14.1-2.62,4.74-5.15,9.76-7.24,14.6-4.24,9.58-8.36,19.25-11.85,29.23l-2.65,7.49c-.84,2.5-1.59,5.05-2.37,7.58-1.62,5.02-2.93,10.2-4.34,15.32-2.5,10.39-4.68,20.84-5.9,31.57-1.25,10.67-1.78,21.53-1.22,32.38.53,9.23,1.81,18.5,3.96,27.52-.22.28-.41.59-.62.87-5.74,8.05-11.92,15.75-18.81,22.18-1.25,1.06-2.46,2.12-3.74,3.12-.28-.59-.53-1.31-.75-2-.59-1.97-1.06-4.15-1.37-6.36-.87-6.46-.75-13.32.37-19.87.12-.5.28-1,.41-1.5.44-1.68.78-3.4,1.12-5.12.06-.28.12-.56.22-.84l.03-.09c.22-.65.28-1.31.28-1.97,1.28-8.17,1.5-16.53.37-25.08-.44-2.84-1.03-5.65-1.93-8.55-.62-1.84-1.47-3.84-2.96-5.77-1.47-1.97-3.81-3.74-6.27-4.65-2.46-.9-4.9-1.06-6.93-.9-2.03.19-3.81.62-5.43,1.12-3.21,1.09-5.9,2.53-8.39,4.02-9.8,6.11-17.41,13.57-24.61,21.56-7.11,8.05-13.48,16.81-18.34,27.08-2.34,5.18-4.34,10.7-5.24,17-.44,3.12-.75,6.49-.19,9.98.34,2.15,1.09,4.37,2.22,6.43-.22.34-.47.69-.69,1.06-.62.97-1.34,1.84-2,2.81-.72.84-1.43,1.75-2.15,2.53-1.47,1.62-3.03,2.96-4.55,3.96-.75.53-1.5.84-2.15,1.12-.34.12-.66.22-.87.28-.12.03-.22.06-.31.09.06.03-.22-.03.19.12-.28-.06-.53-.09-.81-.16-.25-1.19-.47-2.56-.56-3.99-.31-4.31-.12-9.02.16-13.7.62-9.42,1.93-19.03,3.53-28.58.16-1.03.37-2.09.56-3.12.53-.87,1.06-1.78,1.59-2.65l7.52-12.76,7.33-12.88,28.95-51.72c2.43-4.31,4.8-8.67,7.18-13.1l3.56-6.77,1.78-3.71,1.53-3.56c3.96-9.39,7.52-19.06,10.17-29.29,1.31-5.12,2.4-10.39,3.03-15.94.28-2.81.47-5.68.44-8.7-.06-3.03-.28-6.18-1.15-9.7-.41-1.75-1.03-3.62-2-5.62-1-2-2.37-4.15-4.52-6.18-2.12-2-5.24-3.71-8.42-4.34-3.18-.69-6.18-.41-8.58.22-4.9,1.25-8.02,3.43-10.73,5.55-2.68,2.15-4.84,4.37-6.8,6.64-7.67,9.11-12.48,18.72-16.6,28.48-4.06,10.11-6.74,19.72-9.33,29.45-2.56,9.7-4.87,19.4-7.05,29.11-2.12,9.76-4.02,19.53-5.8,29.32-2,11.2-3.74,22.43-5.27,33.72-1-2.06-2.34-4.12-4.09-5.99-2.15-2.34-4.93-4.34-7.92-5.62-6.02-2.56-11.95-2.4-16.81-1.56-4.96.9-9.23,2.65-13.16,4.68-3.93,2.03-7.49,4.4-10.79,7.02-6.55,5.24-12.23,11.61-16.72,18.47-4.46,6.86-7.99,14.19-10.61,21.81-2.59,7.64-4.27,15.63-4.65,23.96-.12,4.18,0,8.45.84,13.01.41,2.25.97,4.59,1.93,7.05.44,1.15,1.09,2.59,1.68,3.65.56,1.12,1.25,2.25,1.97,3.34,2.9,4.31,7.58,8.52,13.51,10.36,2.9.94,5.96,1.22,8.77,1.03,1.53-.09,2.96-.34,4.37-.69-8.3,9.98-18.16,18.69-28.89,25.77-2.9,1.87-5.83,3.65-8.8,5.3-3.03,1.59-6.05,3.03-9.11,4.27-3.03,1.22-6.11,2.22-9.08,2.9-2.93.69-5.8,1-7.92.75-1.06-.12-1.87-.37-2.28-.62-.41-.28-.37-.47-.25-.56.12-.06.19-.16.09-.62-.06-.47-.19-1.22-.16-2.25,0-2,.34-4.71.97-7.55.59-2.84,1.5-5.8,2.46-8.86,1-3.03,2.15-6.08,3.4-9.17l4.15-9.89c2.81-6.71,5.4-13.51,7.92-20.4,2.43-6.93,4.8-13.88,6.8-21.06,2.03-7.14,3.96-14.38,5.37-21.93,1.34-7.58,2.5-15.29,2.37-23.96-.12-4.34-.44-8.92-2.06-14.13-.75-2.56-2.03-5.4-3.81-8.14-1.9-2.81-4.62-5.52-7.86-7.42-3.21-1.9-6.71-2.87-9.7-3.21-1.56-.22-2.93-.25-4.24-.25l-1.84.03c-.62.06-.81.03-1.97.16-3.93.41-7.11,1.72-9.67,3.12-2.56,1.4-4.62,2.99-6.43,4.59-3.56,3.21-6.21,6.49-8.67,9.76-2.4,3.28-4.52,6.58-6.49,9.89-1.09,1.84-2.12,3.65-3.12,5.49-.16-1.15-.28-2.31-.53-3.49-1.19-6.21-3.06-12.54-7.21-18.53-1.06-1.53-2.4-3.21-4.62-4.93-1.09-.84-2.59-1.68-4.37-2.25-1.84-.53-4.02-.69-5.9-.25-.97.16-1.75.47-2.59.78-.69.34-1.47.72-2.03,1.09-1.19.78-2.09,1.59-2.87,2.37-1.53,1.56-2.59,3.06-3.53,4.46-3.56,5.71-5.58,10.98-7.67,16.28-4.09,10.58-7.49,21-11.67,31.07-1.03,2.5-2.06,5.02-3.15,7.49-1.12,2.43-2.31,4.87-3.49,7.27-2.34,4.8-5.02,9.39-7.95,13.6-2.87,4.24-6.24,8.05-9.73,10.76-1.78,1.4-3.99,2.9-5.86,3.9-.62.37-1.25.66-1.84.9-.09-.84-.19-1.97-.12-3.12.06-4.27.81-9.33,1.81-14.32,2.09-10.11,5.02-20.43,7.99-30.76l2.28-7.74,1.19-3.93c.44-1.47.78-2.99,1.06-4.55.59-3.12.84-6.4.87-9.98-.06-3.59-.03-7.33-1.19-12.35-.59-2.5-1.59-5.46-3.9-8.61-2.25-3.12-6.33-6.02-10.17-7.02-3.87-1.12-7.11-.97-9.7-.62-2.62.37-4.77,1.03-6.71,1.72-3.12,1.15-5.74,2.46-8.14,3.84-7.71,2.75-14.57,6.77-21.06,10.98-8.52,5.68-16.41,11.92-24.02,18.41-15.13,13.04-29.48,26.7-43.89,39.93-7.18,6.68-14.38,13.2-21.59,19.47-7.21,6.21-14.48,12.35-21.77,16.94-3.59,2.28-7.3,4.12-10.23,4.87-1.44.37-2.62.44-3.24.31-.69-.12-.72-.12-1.81-.84-1.62-1.12-3.18-3.21-4.4-6.27-1.22-2.99-2-6.74-2.34-10.7-.69-7.96.31-16.69,2.28-25.21,1.93-8.55,4.87-17,8.61-25.05,7.55-16.1,18.03-30.92,31.29-42.21,6.61-5.68,13.6-10.7,21.34-14.85,3.74-2.03,7.52-3.71,10.48-4.55,1.47-.44,2.65-.53,3.06-.59.41,0-.28-.41-.28-.75-.03-.12.09-.09.31.12.16.28.41.72.59,1.31.41,1.25.69,2.99.78,4.9.22,3.84-.25,8.24-.87,12.7-1.31,8.95-3.46,18.41-5.21,27.76l-.06.22c-.41,2.18.47,4.52,2.43,5.86,2.62,1.81,6.24,1.12,8.05-1.53,3-4.4,5.4-8.8,7.61-13.48,2.18-4.68,4.15-9.52,5.65-14.6,1.56-5.08,2.75-10.42,3.28-16.38.22-2.99.25-6.18-.28-9.76-.31-1.81-.78-3.71-1.53-5.74-.78-2-1.9-4.12-3.49-6.11-1.62-2-3.74-3.81-6.02-5.09-2.31-1.37-4.68-2.09-6.89-2.59-4.46-.84-8.27-.59-11.61-.09-6.71,1.03-12.04,3.12-17.16,5.33-9.92,4.43-19.44,10.26-27.73,17.38-1.31,1.09-2.53,2.25-3.77,3.4-1.72,1.25-3.43,2.46-5.09,3.74-7.74,5.9-15.13,12.04-22.34,18.31-14.44,12.54-28.3,25.64-41.8,39.03-4.52,4.46-8.98,8.98-13.41,13.54,1.19-4.9,1.78-10.11,1.43-15.35-.34-5.62-1.72-11.14-3.81-16.13-2.09-5.02-4.77-9.55-7.77-13.57-6.05-8.08-13.07-14.41-20.15-20.12-14.29-11.29-29.23-20.09-43.8-28.83-14.57-8.64-28.95-17.06-41.99-26.14-6.46-4.55-12.54-9.33-17.56-14.32-5.05-4.93-8.89-10.17-10.48-14.54-1.56-4.43-1.34-7.49.22-11.89.37-.87,1.09-2.81,1.75-4.24.69-1.53,1.43-3.06,2.18-4.55,1.56-2.99,3.34-5.9,5.27-8.7,7.83-11.26,18.59-21,30.95-28.89,12.32-7.96,26.2-14.04,40.62-18.53,14.41-4.4,29.48-7.11,44.3-7.8,14.69-.62,29.54.78,41.37,5.24,5.9,2.21,10.7,5.21,14.04,8.36,3.31,3.21,5.37,6.46,6.49,11.11,1.19,4.62,1.06,10.64-.16,17.28-1.56,6.77-4.09,13.54-7.3,19.47-3.24,5.96-7.27,11.26-12.2,15.54-4.87,4.27-10.67,7.52-16.97,9.27-6.24,1.72-13.17,1.9-18.97.03-2.93-.87-5.37-2.37-7.14-4.15-1.72-1.81-2.71-4.06-2.65-7.14v-.62c.06-2.25-1.31-4.37-3.53-5.18-2.84-1.06-5.96.37-7.02,3.18-.97,2.56-1.53,5.49-1.37,8.45.12,2.99.97,6.02,2.25,8.7,2.62,5.46,6.96,9.45,11.51,12.35,9.3,5.71,19.9,7.55,30.23,6.86,5.18-.37,10.29-1.37,15.26-2.99,4.9-1.65,9.67-3.9,14.07-6.61,8.86-5.43,16.35-12.79,22.27-20.9,2.96-4.06,5.58-8.33,7.89-12.67,1.12-2.18,2.21-4.4,3.18-6.64.97-2.21,1.84-4.43,2.84-6.8,3.81-9.39,6.36-20.37,5.24-32.51-.56-5.99-2.09-12.23-4.71-18-2.59-5.77-6.21-11.07-10.36-15.57-8.33-9.05-18.37-14.72-28.14-18.59-9.83-3.9-19.62-6.08-29.29-7.36-9.64-1.28-19.19-1.5-28.61-1.12-18.78.78-37.09,4.24-54.75,9.86-17.66,5.65-34.69,13.6-50.44,24.21-15.66,10.67-30.14,24.18-40.9,41.05-2.65,4.21-5.12,8.61-7.27,13.16-1.06,2.28-2.06,4.59-2.96,6.96-.47,1.19-.9,2.34-1.31,3.56-.41,1.09-.87,2.59-1.28,4.02-1.65,5.86-2.43,12.42-1.9,18.97.53,6.55,2.43,12.92,5.09,18.37,2.65,5.49,5.99,10.17,9.48,14.19,3.52,4.06,7.24,7.52,10.98,10.67,7.52,6.24,15.22,11.2,22.9,15.75,15.32,9.08,30.7,16.38,45.52,24.02,7.42,3.81,14.72,7.67,21.74,11.73,7.02,4.02,13.79,8.27,19.97,12.88,12.42,9.08,22.37,20.4,22.87,31.45.37,5.55-1.25,11.57-4.49,17.69-.81,1.53-1.68,3.03-2.65,4.55l-3.28,4.84c-2.25,3.21-4.55,6.36-7.02,9.3-9.83,11.89-21.56,21.34-35.19,27.27-13.63,5.9-28.98,8.52-44.95,9.64-7.95.56-16.13.78-24.3.84-7.71,0-15.32-.56-22.65-1.87-10.01-1.75-19.5-5.09-27.67-9.89,1.75.06,3.49.12,5.27.16l1.72.03h2c1.34,0,2.68-.12,4.02-.22,5.43-.47,11.04-1.62,16.5-3.84,5.46-2.15,10.73-5.4,15.19-9.55,9.05-8.33,14.26-19.81,15.85-30.98,1.59-11.29-.06-22.65-4.71-33.07-2.34-5.21-5.49-10.17-9.48-14.57-4.02-4.4-8.86-8.17-14.29-10.98-5.4-2.78-11.26-4.55-17.06-5.27-1.47-.19-2.9-.31-4.34-.41-1.43-.09-2.62-.06-3.96-.06-2.59,0-5.21.12-7.83.41-10.51,1.06-21.49,4.59-30.79,11.2-9.33,6.55-16.6,15.88-20.81,26.08-3.71,8.86-5.27,18.28-5.12,27.48-5.58-3.09-10.95-6.64-16-10.76-11.92-9.42-22.27-21.4-31.66-34.47-18.81-26.27-33.97-56.53-52.1-85.32-2.25-3.59-4.59-7.18-6.93-10.73-2.37-3.53-4.77-7.36-7.36-10.83-5.09-7.11-10.48-13.91-16.16-20.37-11.42-12.92-23.58-24.93-36.28-36.25-12.73-11.29-25.86-21.99-39.43-32.13-6.74-5.09-13.63-9.98-20.59-14.79C14.8,19.35,7.75,14.73.55,10.3c-.16-.06-.34-.03-.47.09-.12.16-.09.37.06.5,25.71,21.74,50.41,44.55,73.34,68.73,11.45,12.1,22.43,24.58,32.35,37.72,4.99,6.49,9.7,13.16,14.04,20.03,1.09,1.68,2.15,3.4,3.15,5.15,1,1.75,2.03,3.43,2.99,5.3l5.83,11.01c7.8,14.72,15.19,29.73,23.05,44.7,7.89,15.01,16.03,30.1,25.61,44.8,9.58,14.63,20.71,28.95,34.72,41.12,12.2,10.64,26.7,19.19,42.15,24.83,4.84,9.05,11.42,17,19,23.49,7.67,6.61,16.38,11.64,25.36,15.41,8.98,3.71,18.31,6.11,27.58,7.52,9.3,1.37,18.53,1.75,27.64,1.47,8.64-.31,17.31-.81,26.08-1.68,17.47-1.81,35.72-5.3,52.82-13.32,1.84-.84,3.62-1.78,5.4-2.71.41-.12.81-.28,1.19-.41,2.84-1.09,5.27-2.28,7.64-3.56,4.71-2.53,8.95-5.4,13.04-8.36,8.11-5.99,15.5-12.48,22.49-19.28,7.11-6.64,13.73-13.88,20.12-20.56,6.52-6.74,13.13-13.41,19.81-20,7.67-7.58,15.47-15.04,23.37-22.34-8.08,19.31-13.04,40.12-10.36,62.67.81,5.77,2.21,11.73,5.05,17.66,1.4,2.96,3.21,5.96,5.52,8.73,2.31,2.78,5.24,5.33,8.58,7.33.84.5,1.68.94,2.59,1.34.81.44,1.87.84,2.96,1.22,2.12.75,4.34,1.12,6.43,1.31,4.27.28,8.05-.41,11.29-1.37,6.49-2.03,11.48-5.02,16.07-8.11,4.59-3.09,8.7-6.43,12.57-9.83,3.93-3.4,7.61-6.93,11.17-10.48,7.14-7.11,13.79-14.51,20.4-21.81,10.01-11.2,19.87-22.43,30.17-33.01-2.59,4.18-5.12,8.55-7.46,13.23-2.68,5.58-5.21,11.64-6.3,19.06-.5,3.68-.59,7.8.37,12.01.94,4.21,2.99,8.33,5.68,11.48.66.81,1.34,1.56,2.06,2.25.62.62,1.68,1.62,2.81,2.4,2.22,1.62,4.9,2.75,7.46,3.21,5.15.9,9.3-.12,12.7-1.31,6.77-2.56,11.7-6.15,16.38-9.83,4.62-3.77,8.77-7.77,12.73-11.92,1.19-1.25,2.34-2.5,3.49-3.74.06,3.31.28,6.71.81,10.36.59,3.4,1.19,6.99,3.77,11.51,1.28,2.18,3.52,4.9,6.86,6.49,3.34,1.62,6.89,1.62,9.42,1.15,2.56-.5,4.49-1.34,6.21-2.21,1.72-.9,3.15-1.87,4.49-2.84,2.75-2.03,4.87-3.96,7.21-6.21,4.68-4.68,7.96-9.83,10.98-14.88,2.96-5.09,5.46-10.26,7.86-15.38,2.37-5.18,4.55-10.36,6.77-15.47,4.31-10.29,8.55-20.53,13.13-30.26,2.28-4.74,4.77-9.61,7.39-13.07,1.72,3.15,3.09,7.14,3.74,11.39.75,4.65.97,9.64.81,14.72-.34,10.14-2.03,20.62-4.31,31.01-1.06,4.84-2.28,9.7-3.59,14.54-1.78,5.52-3.46,11.01-4.96,16.69l-.25.84c-.9,3.43,1,7.02,4.4,8.17,3.56,1.22,7.43-.69,8.61-4.24.34-.78.65-1.56,1-2.34,2.5-5.77,5.08-11.64,7.71-17.41,2.93-6.43,6.05-12.79,9.14-19.09,6.27-12.54,12.85-24.96,20.4-35.94,3.68-5.4,7.89-10.64,11.73-13.63.94-.69,1.81-1.22,2.4-1.5.59-.28.81-.22.5-.12h.66s.87.03.87.03c.47.03.87.06,1.12.12.53.12.5.25.34.19-.16-.03-.31-.16-.22.03.06.28.34.72.5,1.62.41,1.65.65,4.31.59,7.11-.09,5.65-1.22,12.17-2.65,18.59-2.75,13.04-7.08,26.3-11.45,39.53-2.18,6.61-4.52,13.26-6.83,19.9l-3.65,10.14c-1.25,3.62-2.46,7.3-3.49,11.14-1.06,3.81-1.9,7.8-2.46,12.01-.5,4.24-.78,8.74,0,13.85.37,2.56,1.03,5.3,2.31,8.14,1.28,2.87,3.28,5.86,6.08,8.17,2.78,2.34,6.11,3.81,9.11,4.46,3.06.72,5.86.75,8.39.5,5.02-.47,9.17-1.9,13.01-3.49,3.84-1.62,7.33-3.53,10.67-5.52,3.34-2,6.49-4.15,9.52-6.4,3.09-2.18,6.05-4.49,8.92-6.86,11.51-9.42,21.99-19.65,32.29-30.23,5.12-5.33,10.08-10.86,14.63-16.75,4.59-5.93,8.7-12.26,12.32-18.94,1.81-3.31,3.53-6.89,4.99-10.23l4.18-9.36c0,1.47-.03,2.96,0,4.46.12,5.15.47,10.36,1.65,15.79.66,2.71,1.34,5.55,3.12,8.58.9,1.5,2.12,3.21,4.24,4.52.62.44,1.34.72,2.09.97.06,0,.12.06.22.09,1.37.37,1.65.34,2.37.47.59.03,1.15.06,1.68.06,1.09,0,2.09-.12,3.09-.25,1.87-.37,3.68-.87,5.27-1.59,3.24-1.37,6.02-3.15,8.49-5.12,1.25-.97,2.37-2,3.53-3.03.84-.84,1.72-1.68,2.53-2.53,3.59,1.9,7.14,2.71,10.45,3.06,3.34.37,6.49.22,9.52-.12,3.06-.37,6.02-1,8.98-1.9,1.5-.47,2.99-1.03,4.62-1.78.37-.19.78-.37,1.25-.59.41-.22.84-.47,1.34-.78.53-.31.84-.53,1.12-.75l.94-.62c4.96-3.46,9.14-7.71,12.63-12.29.25-.31.44-.62.69-.94.19.81.34,1.62.59,2.46.44,1.47.94,2.96,1.65,4.52.75,1.56,1.62,3.18,3.12,4.96.78.87,1.75,1.81,3.15,2.65,1.37.81,3.28,1.5,5.3,1.53,2,.06,3.84-.5,5.21-1.19,1.59-.87,1.84-1.19,2.5-1.59,2.37-1.62,4.55-3.37,6.71-5.15,5.58-4.87,10.54-10.08,15.22-15.47,1.93,5.52,4.15,10.95,6.86,16.35,1.28,2.46,2.65,4.93,4.27,7.39,1.68,2.46,3.43,4.93,6.4,7.42,1.53,1.22,3.34,2.65,6.61,3.31.78.16,1.68.19,2.59.16.72-.06,1.31-.16,1.97-.25,1.22-.28,2.31-.66,3.24-1.09,3.74-1.78,5.99-3.93,8.14-5.99,4.15-4.18,7.33-8.49,10.51-12.73,2.84-3.96,5.62-7.89,8.3-11.85.09,2.87.41,5.83,1.15,8.92.81,3.37,2.25,6.89,4.62,10.26,1.06,1.62,2.78,3.4,3.87,4.4.59.59,1.25,1.15,1.93,1.68.66.56,1.34,1.09,2.09,1.62,2.9,2.06,6.3,3.74,9.98,4.77,3.68,1.03,7.58,1.34,11.29,1,7.46-.75,13.66-3.93,18.72-7.42,5.09-3.62,9.2-7.8,12.85-12.14,3.62-4.37,6.83-8.86,9.7-13.48,2.9-4.62,5.55-9.14,8.05-14.26,4.9-10.01,8.74-20.62,10.51-32.26.03-.34.09-.66.12-1,2.28-.09,4.49-.28,6.68-.56,1.09-.09,2.37-.31,3.65-.53,1.25-.19,2.46-.5,3.68-.81,3.06-.81,5.96-1.9,8.77-3.18-.84,1.87-1.62,3.74-2.37,5.62-3.18,8.02-5.83,16.41-6.86,25.83-.5,4.71-.69,9.67.06,15.22.41,2.78,1.03,5.71,2.25,8.8,1.19,3.09,2.99,6.36,5.65,9.36,2.65,2.99,6.24,5.4,9.83,6.74,1.84.72,3.53,1.15,5.37,1.47,1.84.34,3.65.44,5.37.41,6.93-.19,12.2-2.5,16.72-4.8,8.89-4.93,15.29-11.04,21.4-17.13,4.77-4.9,9.27-9.86,13.54-14.94-.22,3.49-.19,7.18.66,11.29.59,2.71,1.68,5.77,3.93,8.77,1.19,1.5,2.65,2.9,4.4,3.99,1.72,1.06,3.62,1.84,5.43,2.25,3.74.81,6.71.66,10.05-.06,3.15-.75,5.68-1.93,7.99-3.15,3.4-1.93,6.3-4.02,8.98-6.24,1.65,1,3.34,1.97,5.02,2.87,3.87,2.06,7.86,3.84,11.95,5.37,8.21,3.03,16.75,5.18,25.49,6.24,8.7,1.06,17.44,1.28,26.24.62,2.18-.16,4.37-.37,6.55-.65,9.27.53,18.53.81,27.83.87,24.3.03,48.73-2.06,72.94-6.71,24.21-4.71,48.23-12.32,70.82-23.83l8.17-4.46c2.78-1.4,5.46-2.96,8.17-4.46,2.71-1.5,5.49-2.96,8.17-4.49l8.02-4.74c2.71-1.56,5.27-3.28,7.86-4.99,2.56-1.72,5.15-3.46,7.64-5.3,4.93-3.71,9.8-7.55,14.44-11.61,18.84-15.91,36.37-33.13,52.88-51.13,8.2-9.05,16.25-18.22,23.96-27.61,3.87-4.68,7.67-9.45,11.42-14.23l5.58-7.14,5.21-6.96c13.98-18.59,30.04-35.97,46.89-52.6,17.03-16.47,34.81-32.48,53.53-47.29l.03-.03c.62-.5.84-1.4.47-2.15ZM1009.65,173.12c2.46-9.42,5.05-18.81,7.8-28.11,2.84-9.17,5.62-18.56,9.02-26.74,1.72-4.21,3.65-8.3,5.71-12.17,2.06-3.87,4.37-7.52,6.8-10.54,1.12-1.37,2.28-2.59,3.34-3.53.44,2.5.5,5.83.25,9.14-.31,4.24-1.03,8.67-2,13.13-1.96,8.95-4.87,17.97-8.24,26.83l-1.28,3.31-1.31,2.99-3.03,6.46c-2.15,4.34-4.31,8.7-6.52,13.07-5.65,11.26-11.54,22.4-17.53,33.5,2.21-9.14,4.55-18.28,6.99-27.36ZM294.2,293.57c-4.68-.47-9.27-1.19-13.82-2.09-.87-3.12-1.43-6.33-1.62-9.51-.75-12.51,4.27-24.33,13.23-30.48,4.46-3.15,9.98-5.02,16.16-5.65,1.53-.19,3.12-.22,4.74-.25.78.03,1.68.03,2.37.06.66.03,1.31.06,1.93.16,2.56.31,4.84,1,6.93,2.03,4.12,2.09,7.64,5.83,9.92,10.76,2.28,4.9,3.15,10.83,2.43,16.22-.62,5.43-2.84,10.14-6.15,13.32-3.28,3.28-7.99,5.3-13.91,5.96-.75.06-1.5.16-2.28.19l-1.15.03-1.4.03c-1.97,0-3.9,0-5.83-.06-3.9-.09-7.74-.34-11.54-.72ZM728.35,243.9c-.28,1.15-.56,2.31-.78,3.49l-.78,4.12-1.53,8.33c-1.53,8.89-2.78,17.88-3.46,27.11-8.05,6.86-16.57,13.7-25.39,18.75-4.34,2.56-8.95,4.77-12.76,5.52-1.84.37-3.34.19-3.59-.09-.16-.09-.03-.19.03-.25.28.16-.59-.81-.81-1.31-.72-1.22-.97-2.25-1.03-3.46-.06-1.22.09-2.68.56-4.43.94-3.43,3.03-7.58,5.58-11.64,5.18-8.2,11.98-16.44,19-24.64,3.28-3.93,6.61-7.42,10.14-11.01,3.52-3.53,7.17-6.93,10.86-9.95,1.59-1.28,3.18-2.5,4.74-3.56-.28.97-.53,2-.78,3.03ZM961.23,256.97c-.31,5.96-1.97,11.92-4.27,18.41l-3.71,9.98c-.87,2.4-1.75,4.59-2.71,6.8-3.9,4.37-7.89,8.52-12.07,12.1-2.46,2.15-4.99,4.09-7.55,5.62-2.53,1.59-5.05,2.75-7.21,3.24-2.18.5-3.71.25-4.59-.25-.9-.47-1.84-1.37-2.78-3.03-.22-.44-.44-.87-.65-1.37-.22-.5-.22-.75-.34-1.28-.19-.94-.37-2.09-.47-3.37-.19-2.56-.09-5.49.25-8.45,1.37-11.92,5.62-24.36,12.38-34.6,3.24-5.15,7.18-9.64,11.73-13.45,4.4-3.81,9.64-6.8,13.85-7.8,2.09-.53,3.65-.44,4.27-.25.34.09.56.19.87.44.31.25.72.69,1.12,1.44.81,1.47,1.43,3.9,1.68,6.68.31,3.12.37,6.15.19,9.14ZM1063.21,241.06c-.56,4.49-1.56,8.95-2.9,13.29-2.75,8.64-6.89,16.81-12.26,23.49-2.75,3.28-5.71,6.27-8.95,8.61-1.81,1.59-6.11,2.84-9.92,3.46-3.84.59-7.71.31-9.52-.59-.44-.22-.81-.41-1.03-.62t-.06-.06c.47-1.59.59-2.81.62-4.24,0-1.5-.12-3.21.09-5.05.41-3.68,1.47-7.8,3-11.92,2.96-8.27,7.58-16.53,13.01-24.18,5.46-7.55,12.07-14.69,19.28-19.4,1.78-1.12,3.59-2,5.15-2.53.97-.34,1.81-.44,2.21-.44.09.12.19.37.31.72.53,1.93.9,4.02,1.15,6.18.53,4.27.41,8.8-.19,13.29ZM1116.62,238.19c-.12.19-.25.41-.37.59,0-10.95,1.28-21.93,3.62-32.76,4.09-18.97,10.95-37.44,18.84-55.53,3.96-9.02,8.2-17.97,12.63-26.86,4.31-8.7,8.89-16.91,14.23-24.71,2.62-3.9,5.46-7.61,8.27-11.14,1.06-1.28,2.12-2.53,3.21-3.71-.09.62-.19,1.22-.31,1.84-.78,4.55-1.75,9.27-2.9,13.98-2.34,9.42-5.02,19-8.05,28.48-12.1,38.09-29.08,75.15-49.17,109.81ZM1240.28,248.86c-1.09,4.43-2.78,8.77-4.93,12.85-2.15,3.99-4.9,8.17-7.71,12.01-2.87,3.81-5.96,7.39-9.23,10.58-6.43,6.33-14.19,11.07-19.81,11.23-2.78.12-5.02-.5-7.67-2.18-.31-.19-.66-.41-.97-.65-.34-.25-.66-.5-.97-.81-.34-.28-.72-.56-.81-.69-.16-.12-.34-.31-.5-.53-.69-.75-1.31-1.97-1.87-3.49-1.06-3.12-1.56-7.33-1.47-11.67.06-4.4.62-9.02,1.43-13.6.69-3.81,1.62-7.61,2.71-11.39,4.27-5.83,8.64-11.51,13.2-16.81,3.18-3.68,6.33-7.27,9.64-10.42,3.28-3.15,6.61-5.99,9.73-7.77,1.25-.72,2.37-1.22,3.34-1.56.22,1.22.5,2.43.87,3.62,1,3.03,2.68,5.96,4.84,8.36,3.31,3.74,7.43,6.05,11.42,7.49.06.69.12,1.37.16,2.09.16,4.37-.34,8.89-1.4,13.35ZM1482.65,272.1c-13.13,5.4-28.33,7.8-43.18,7.39-7.43-.28-14.85-1.12-22.12-2.87-3.59-.87-7.14-1.93-10.64-3.18.22-.22.47-.44.69-.69,5.87-6.24,11.23-12.73,16.38-19.31,10.26-13.16,19.62-26.8,28.54-40.65,8.74-13.66,17.06-27.48,24.77-41.83,2.25,2.22,4.46,4.59,6.61,7.05,4.8,5.49,9.42,11.32,13.51,17.38,4.09,6.05,7.89,12.23,10.79,18.47,2.99,6.18,5.18,12.48,5.9,17.91.37,2.71.37,5.15.03,7.18-.09.53-.19,1-.31,1.5l-.72,2.12c-.5,1.43-1,2.87-1.68,4.21-4.96,11.01-15.44,19.87-28.58,25.33Z"/><path class="cls-2" d="M1935.28,41.19v-21.39h5.25l5.41,17.09,5.22-17.09h5.14v21.39h-3.25v-17.95l-5.51,17.95h-3.23l-5.75-18.21v18.21h-3.28ZM1922.34,41.19v-18.21h-6.93v-3.18h17.48v3.18h-6.98v18.21h-3.57Z"/></svg>