<?xml version="1.0" encoding="UTF-8"?>
<svg id="Layer_2" data-name="Layer 2" xmlns="http://www.w3.org/2000/svg" viewBox="0 0 2142.09 2452.64">
  <g id="Layer_1-2" data-name="Layer 1">
    <g>
      <path d="M1748.08,1949.07c6.8-15.72,17.49-27.69,29.4-39.55l114.98-114.42c51.96-54.78,99.86-111.96,142.19-174.22,5.08-7.47,4.57-15.72-1.59-20.96-6.95-5.91-14.9-4.01-21.47,2.24-54.94,52.32-112.31,100.98-174.45,144.76-88.72,62.52-182.7,106.27-292.67,111.57-46.61,2.25-92.6.79-139.06-5.23-256.4-33.19-508.76-86.85-757.23-159-111.76-32.45-221.95-67.99-331.47-105.69-8.71-3-16.58,2.06-19.04,9.8s1.79,14.77,9.9,18.26l220.25,94.79c159.53,65.06,322.02,120.62,487.97,167.1,96.88,27.14,194.12,51.43,291.41,74.1,10.67,2.49,15.59,10.79,15.27,19.67-.35,9.57-6.07,15.88-16.86,18.27-139.79,30.94-278.8,64.88-417.35,103.56-196.38,54.82-388.64,120.25-577.53,196.82L3.87,2422.41c-1.36.58-2.53,1.2-2.94.85-.71-.61-.72-2.29-.72-4.46l-.2-957.2,2130.9-.14,3.46-.02,5.09-.26.84,52.78-.09,3.01v3.34s0,825.93,0,825.93v93.26s0,2.98,0,2.98v2.91s.04,2.96.04,2.96l.12,4.28H18.14c-2.06,0-3.43-.33-3.27-.78.3-.83,2.16-.65,5.07-1.53l435.53-130.8c257.24-72.59,510.78-133.81,775.07-175.22,103.5-16.22,207.83-20.77,311.79-10.65,45.69,4.45,89.67,11.09,133.9,23.24,161.36,44.34,286.84,134.53,402.66,252.16,6.09,6.19,15.03,5.39,20.32.55,6.67-6.1,6.14-14.17.56-21.46-59.94-78.35-124.6-152.13-194.33-222.26l-123.44-117.56c-10.94-10.42-20.42-20.29-28.61-32.67-13.14-19.86-15.19-43.72-5.31-66.57Z"/>
      <g>
        <polygon points="1758.96 1340.31 1729.07 1340.63 1585.34 1144.15 1585.19 1340.64 1554.29 1340.65 1554.26 1093.4 1586.01 1093.36 1727.75 1285.57 1728.06 1093.22 1758.95 1093.32 1758.96 1340.31"/>
        <polygon points="857.37 1340.4 827.5 1340.45 684.14 1144.75 683.61 1340.52 652.76 1340.63 652.76 1093.23 684.38 1093.2 826.29 1285.53 826.46 1093.39 857.36 1093.22 857.37 1340.4"/>
        <path d="M2111.44,1290.97l.12-49.8-85.1-.15.02-27.66,115.57.02.05,88.77c-26.71,30.65-65.66,45.74-106.52,42.92-81.36-5.9-129.39-75.01-115.46-154.49,10.87-62.02,64.18-102.72,127.12-101.23,37.01-.1,70.43,16.22,93.67,45.92l-24.53,15.79c-20.17-25.16-51.22-37.37-83.55-33.5-35.3,4.23-64.18,26.86-76.21,60.39-9.75,27.17-9.25,56.54,2.04,83.14,15.15,35.7,49.72,57.29,88.45,56.22,24.03-.66,46.01-9.8,64.35-26.35Z"/>
        <path d="M452.29,1285.47l-122.67-.17-21.91,55.33-35.6.06,99.7-247.29,38.36-.26,99.39,247.11-35.48.42-21.79-55.2ZM443.33,1258.02l-52.42-132.27-51.95,132.08,104.37.19Z"/>
        <path d="M1149.87,1338.23c-46.1,15.42-104.79,5.48-138.39-32.25l18.63-24.19c26.17,30.08,65.74,42.12,103.41,32.19,14.04-4.43,25.3-13.39,29.93-26.98,6-17.64-1.17-34.35-17.27-43.17-35.32-19.35-100.08-19.8-119.55-55.88-16.89-31.3-4.48-68.65,26.13-85.95,41.47-23.44,106.46-14.35,139.25,22.22l-18.62,22.66c-23.66-27.79-75.85-39.43-105.12-20.6-13.84,8.91-21.36,26.2-14.31,41.45,4.42,9.57,13.95,15.58,23.65,18.52l44.61,13.52c14.96,4.54,29.36,9,42.76,16.51,20.31,11.37,32.16,30.32,32.72,53.63.75,31.32-16.96,58-47.82,68.32Z"/>
        <polygon points="145.27 1312.94 145.55 1340.57 .1 1340.58 .14 1093.51 30.9 1093.52 30.86 1313.04 145.27 1312.94"/>
        <rect x="1354.52" y="1093.15" width="31.02" height="247.57"/>
        <g>
          <g>
            <path d="M1997.15,870.3l126.96.48c8.12.03,16.03,7.36,16.06,15.48l.27,61.04c.05,11.54-8.21,18.38-19.37,18.41l-239.08.65c-45.5.12-77.24-32.8-77.23-77.47l.24-817.42c1-35.79,26.94-64.86,62.12-70.08l261.09.37c7.8.01,12.23,11.05,12.23,16.8l.02,48.46c0,9.26-7.08,17.94-16.84,17.95l-124.35.1c-9.27,0-18.1,6.64-18.1,16.97v752.02c0,8.43,7.23,16.22,15.98,16.26Z"/>
            <g>
              <path d="M1669.5,525.8l-101.74-.03c-9.78,0-17.82,7.56-17.81,17.84l.06,311.98c0,9.01,7.83,16.55,16.25,16.56l119.1.11c9.69,0,17.19,6.33,18.69,15.78l-.3,62.22c-.04,7.6-7.57,15.43-15.85,15.43l-294.01-.07c-8.97,0-15.82-8.74-15.82-17.45l-.05-927.4c0-9.53,3.82-16.37,12.85-19.36l300.19.25c8.35,0,12.99,10.51,12.97,17l-.12,49.62c-.02,9.32-7.97,16.74-17.36,16.75l-120.28.14c-8.08,0-16.97,6.7-16.98,15.55l-.21,321.89c0,10.43,7.16,18.59,17.61,18.59l102.75.03c10.48,0,19.08,7.05,19.06,17.95l-.09,49.32c-.02,10.53-8.89,17.32-18.93,17.31Z"/>
              <path d="M1162.71,965.8l-135.22-.21c-9.9-.02-16.64-8.64-16.64-18.58l-.03-844.68c0-9.49-8.05-17.1-16.86-17.13l-92.49-.28c-9.7-.03-16.95-8.53-16.95-17.96l.02-48.12c0-8.05,4.47-14.6,12.44-17.38h395.73c6.38,2.61,11.58,7.88,11.61,14.6l.28,53.69c-1.36,7.96-7.84,15.15-16.36,15.17l-92.48.15c-9.11.01-17.96,6.68-17.96,16.98l-.07,846.08c0,9.21-6.35,15.46-15.04,17.67Z"/>
              <path d="M920.96,889.86l-.03,59.08c0,8.18-7.05,16.74-16.11,16.74l-278.01-.06c-9.95,0-16.14-9.23-16.14-18.64V19.27c0-7.66,4.75-17.45,12.82-17.48l146.38-.44c7.71,3.18,12.22,8.98,12.22,17.9l.03,836.1c0,9.31,7.46,15.45,15.6,16.92l105.74.1c9.4,0,17.51,7.56,17.51,17.49Z"/>
            </g>
          </g>
          <path d="M361.9,0c8.21,3.95,11.42,9.96,12.82,19.62l134.24,927.29c1.61,11.14-7.62,19.46-17.76,19.46h-138c-9.24-.01-16.81-6.83-17.79-16.09l-16.82-158.35c-.87-8.21-7.97-15.55-16.37-15.55h-110.24c-7.37,0-14.9,6.86-15.81,14.48l-19.31,160.62c-.92,7.61-8.14,14.69-15.76,14.71l-122.25.28c-7.71.02-19.92-6.98-18.31-17.05L150.62,13.09c1.14-7.09,8.31-9.59,12.24-13.09h199.04ZM286.89,690.91c10.28-.02,16.1-10.58,15.12-19.85l-43.09-407.61c-.61-5.76-8.55-8.86-12.25-8.44-4.31.48-9.64,4.7-10.33,10.75l-45.81,403.76c-1.2,10.59,4.89,21.55,16.07,21.53l80.28-.13Z"/>
        </g>
      </g>
    </g>
  </g>
</svg>