<?xml version="1.0" encoding="UTF-8"?>
<svg id="Layer_2" data-name="Layer 2" xmlns="http://www.w3.org/2000/svg" viewBox="0 0 650.37 152.45">
  <g id="Layer_1-2" data-name="Layer 1">
    <g>
      <path d="M603.26,106.74c-2.55,1.65-2.34,2.94-2.92,3.27-.37.21-1.14,0-1.5-.21l-2.18-1.31c-1.27-1.88-2.87-2.07-3.11-3.71-.14-.95-.65-1.6-1.11-2.4l-1.13-1.96-2.65-4.89.25-5.35.41-3.72.07-5.31.57-4.12c.11-.8.28-1.73.53-2.49l1.92-6.07c-1.36.8-1.35,2.16-1.82,3.29l-1.05,2.51-1.42-1.33-.22-3.31.02-7.62.11-2.9.48-2.53c.41-2.16-1.34-4.83-1.19-7.52.12-2.14-.35-4.12-1.29-6.03l-1.45-1c-.56-.39-2.15-.38-2.73,0l-4.52,2.91c-4.23,2.73-6.58,2.46-10.62,4.45-1.02.5-1.98,3.35-1.2,2.96,1.01-.5.69-1.27,2.8-1.82l2.4-.62.35,1.02-.27,2.64-.1,13.16-.2,6.82c-.02.71-.26,2.02-.59,2.58l-1.41,2.13c-.46.7-.14,1.67.44,2.22.83.79-.47,2.13.63,4.36l-.29,3.28c-.14,1.61-.25,3.12-.04,4.69-.32,1.02-.05,1.91.84,2.56.48,1.08,1.86.83,2.01,1.54.05.26-.09.95-.23,1.2l-5.21,3.96-3.95,3.82-.58-.95c-1.59-1.31-2.9-2.81-4.11-4.52-.71-1.01-1.69-2.05-2.93-2.4l-2.34-.08c-.17,0-.22-.53-.11-.64l2.21-2.05c.97-.9,1.63-1.81,2.16-3.05l1.39-3.29,1.65-4.54c.69-1.91-.21-2.5-.3-2.22l-.12.36c-.38,1.16-.92,2.17-1.48,3.25l-1.37,2.63v-15.69c-.01-1.08.36-2.1.93-2.91,1.67-2.36-.12-4.61.24-7.07l.31-2.15.56-2.86-.06-5.89c-.05-4.88-5.42-11.88-7.6-10.63l-4.69,2.69c-1.66.96-3.15,2.04-5.12,2.3l-.62.08c-.12.02.17.46.23.53,1.56,2.93,1.61,6.22.73,9.4-.05,1.4-.73,2.62-.88,3.98l-.7,6.59-.6,4.61c-.01.11.07.44.1.53s.35-.11.42-.16c.93-2.26,1.44-4.55,1.79-6.97l.22-.4c.04-.07.12-.07.11,0v.5s-.19,11.84-.19,11.84c-.95.01-1.31.68-1.48,1.5-.18.87-.19,1.63.48,2.39l.72-.67.17.1v10.21c0,1.15.25,2.37.78,3.32.48.85,1.46,1.3,2.38.82,1-.52,2.4-1.23,3.11-2.14l3.18-4.1c.47,1-.28,1.52-.49,2.19-.67,2.1-1.67,3.74-3.21,5.26l-1.92,2.8c-.84,1.23-2.21,1.93-3.47,2.69l-3.77,2.27c-.59.36-1.76,2.55-2.11,2.19l-.54-.57c-2.3-2.42-1.74-4.99-2.8-6.85l-1.22-2.13c-.34-.4-1.21-1.06-1.75-1.3-1.05-.37-2.78-.46-3.77.09l-7.17,3.97c-3.07,1.7-5.81,3.81-8.41,6.14-.27.25-.76.53-1.07.49-.28-.04-.57-.49-.83-.78-3.49-3.79-6.6-7.76-9.03-12.32l-.26-.49c-.05-.1-.36.17-.46.24l-4.63,3.38-7.56,4.15-2.46,1.44-4.06,2.73c-1.37.93-3.69-2.01-3.8-2.81l-.54-3.8c-.05-.36-1.45-2.95-.79-5.87l.5-2.25c.03-1.69-.19-2.74-1.53-3.86l.2-2.84c.12-1.71.72-3.49,1.53-4.97.76-1.38,1.44-2.6,1.52-4.4-.27-.1-.46.25-.68.7-.79,1.64-1.9,2.56-1.9,2.54,0,0-.14-.34-.15-.41l-.17-1.24v-10.48s-.08-1.91-.08-1.91c.11-1.57.39-3,.94-4.5-.27-2.39-.32-4.75-.2-7.18.06-1.19-.84-1.98-1.46-2.86-1.12-1.6-1.6-7.02-4.34-5.81-4.68,2.06-10.84,5.01-13.7,9.11l-1.28,1.84c-.96,1.61-1.66,3.27-2.24,5.12.14.1.42.29.46.21l.2-.34.15-.26.16-.27.86-1.31.73-.76s.2-.18.23-.2l.33-.16c.2-.09.7,1.13.7,2.18v7.5s-.28,3.23-.28,3.23c-.09,1.03-.39,1.9-.14,2.95.24.98-.16,1.98-.21,2.9l-.16,2.58-1.1,4.65c-.37,1.54-.08,3.35,0,4.99.03.72.69,1.65.91,2.36l.04,1.56.24,2.12c.11.97.74,1.95,1.21,2.98-.12.92-.8,2.08-1.13,3.04-.24.71-.4,1.12-.89,1.66l-1.72,1.89-.33.27-3.26,3.57c-.8.87-.21-.39-1.24-.95-.49-.26-.84-.61-1.15-.93l-1.86-1.92c-.52-.53-1.25-1.34-1.62-1.98l-1.22-2.1-2.1-2.9,1.46-2.23c.58-.89,1.2-1.78,1.23-2.86l.13-3.71c.05-1.3.1-2.42.5-3.64l.72-2.17c.34-1.01.36-1.66-.19-2.57-1.64-2.73-2.06-4.9,0-7.31l-.49-4.82c-.21-2.05-.61-3.74-.38-5.86.11-.99-.12-2.56-.43-3.5-.37-1.11-.47-1.67-.26-2.74l1.01-5.26c.11-.59-.48-1.6-.6-2.17-.29-1.48-.61-2.71-1.6-3.9-1.08.1-2.36-.01-3.36.37l-3.64,1.38c-.08.03-.43.08-.49.08h-2.06c-.1-.01-.43,0-.4.08l.19.54c.72,2.03,1.16,4.16,1.26,6.29-.55,1.19-.83,2.3-1.04,3.55-.21,1.35-.73,2.5-1.12,3.8l-1.36,4.46-1.39,2.7-3.91,5.1c-1.35,1.76-2.44,3.5-4.15,4.93l-3.69,3.1c-2.04,1.71-3.98,3.38-5.49,5.64-.09,2.83,1.65,3.89,1.32,5.41-.41,1.85.49,5.19,2.5,5.61.45.1,1.46-.19,1.83.21.6.65-.14,1.73.09,2.44.17.52,1.8-.12,2-.79l.13-.43c.03-.11.26-.19.38-.21.04,0,.25.2.28.23l.23.3c.07.09-.12.34-.24.46l-1.82,1.76c-.08.08-.22.36-.24.44-.03.13.22.23.46.32l4.17-2.86,4.6-3.86c1.02-.85,1.88-2.34,2.26-3.62l1.69-5.71c.46-1.54-.11-3.25-.31-4.79l-.23-1.83.03-.77c.04-1.02,2.15,1.56,2.49,4.14.13.95.38,2.28.2,3.17l-1.11,5.42c-.24,1.16-.73,2.24-1.18,3.28-.88,2.01-2.18,3.41-3.87,4.71-1.95,1.5-3.63,3.33-5.86,4.55-3.1,1.71-7.67,4.22-10.74,3.55-.24-.19-.77-.72-.94-.96l-2.36-3.16-1.5-2.03c-.65-.88-.62-1.74-.24-2.69l.12-.31s.11-.39.14-.42l2.11-2.61.2-.26.18-.28.28-.43s-.14-.17-.36-.26l-2.37,1.55c-1.06.7-2.27,1.03-3.63,1.28-2.81-3.79-3.83-5.63-3.7-10.48.04-1.43-.1-3.05.39-4.34.65-1.74,1.04-3.46,0-5.18-.13-1.15.1-2.27.84-3.28.01-2.3-.05-4.53-.55-6.81-.23-1.04-.91-2.63-.28-3.59.93-1.42,1.54-2.57,1.49-4.37l-.08-2.85,2.47-5.8c.6-1.4,1.75-2.88,2.98-3.74l4.24-2.98,6.57-4.36,1.75-1.48,3.73-3.3,3.5-3.49,1.54-1.65c.07-.07.52-.22.53-.13l.08.61c-.79,1.75-.63,3.5.23,5.13l.91,3.95c.28,1.21.48,1.79,1.44,2.62.63.55.94,2.04,1.4,2.89.95.53,2.33.26,3.35-.23,3.49-1.66,6.51-3.87,9.31-6.52l3.7-3.5c.68-.64,1.56-.86,2.36-.27,1.9,1.4,3.44,3.36,4.21,5.62-.02,1.86.16,3.53.64,5.26l1.47,1.99c.44.6-2.01,1.71-2.83,3.95l-.12.32-.35.98c-.04.11.51.22.61.1.79-1.03,2.24-2.36,3.32-3.26,1.59-1.32,3-2.53,4.88-3.4l6.08-2.78,3.23-1.69,3.96-2.79c.9-.63,1.8-1.18,2.51-2.02l1.72-2.01,1.26,2.21c.4.71.87,1.26,1.47,1.84l2.73,2.64c.57.55,1.17,2.16,1.16,2.96l-.02,8.14c0,.79.35,1.39,1.17,1.88l-.55,5.01c-.28,2.59-2.24,4.09-1.66,7.55l.07.45c.02.12.44-.21.47-.33l.56-2.38c.02-.09.19-.33.36-.57l.33.54-.87,5.45-.15,11.06.13,1.19c-.57,2.11.83,3.77-.37,4.89-.62.58-.83,1.19-.85,2.05-.01.6.59,1.19,1.21,1.67l.42,4.38c.09.91,1.11,2.01,1.8,2.62l1.97.2c1.03-.42,1.87-.67,3.03-.91l1.88-1.73,1.8-1.33,2.68-1.75c.81-.53-.22-1.16-.33-1.58-.51-2.09-.06-4.43.18-6.59l1.11-10.08c.08-.75-.12-1.8.48-2.29,1.13-.91,1.49-1.89,1.58-3.26l.19-2.9.67-2.28.46-3.45.96-1.07c-.02-.34-.19-.64-.31-.41-1.29.99-1.67,2.11-1.93,3.44-.6.89-1.01,1.88-1.42,2.91l-.49,2.16c-.08.32-.31.04-.39-.29l.11-2.21c.25-5.15,1.14-10.01,5.66-12.68l3.4-2.93,5.79-4.51,3.41-2.59c.29-.22.88-.62,1.12-.87l2.44-2.54c1.07-1.11,2.39-2.22,3.34-3.37.16-.19.86-.04.98.18,1.42,2.49,3.05,2.63,3.6,3.7.95,1.86,2.35,3.01,4.12,3.97,1.06.57,2.03,1.12,3.28,1.24l1.85,2.24c1.26,1.12,3.36,1.1,4.81.25l5.44-3.19c1.12-.66,2.06-1.38,3.29-1.86s2.19-1.33,3.27-2.05l3.6-2.38,2.89-2.47c.28-.24.98-.46,1.33-.39.33.06.9.53.99.87.68,2.56,1.75,4.74,3.13,6.95l3.98,6.36c.18.28.72.27,1.07.05l5.59-3.5,9.06-5.55,4.99-3.67c.58-.43,1.44-1.43,2.29-.66,1.31,1.19,2.07,3.01,3.04,4.52l1.62,2.51c.79,1.24,1.81,2.46,2.33,3.88-.73,1.72-.88,3.3-.88,5.15v4.72c-.01,1.83.03,3.71.74,5.38l.29,1.59c.11.63.1,1.14-.17,1.7l-.11,22.1-.1,5.62.6,3.66c-.55.08-1.6-.81-1.7-1.23l-.68-2.75c-.13-.52-.28-.91-.64-1.37l.53-4.3-.72-2.95.07-.55-.03-.38-.04-.41c0-.08-.23-.33-.25-.25l-.18.67c-.24.92-.05,2.17.23,3.14.24.85-.09,1.56-.29,2.42l-.53,2.33c-.03.15.07.58.1.72l.96,4.35c.18.82,1.06,1.21,1.03,2.03-.04.96.8,1.1,1.39,1.55l5.61,4.25c1.07.81,2.72.21,3.79-.4,2.07-1.37,4.28-2.31,6.72-2.78l.4-.2.08-10.79c.64-2.97-.52-6.79.47-8.11,1.38-1.83.98-3.58.67-5.6l-.86-5.73c-.58-3.85.58-4.92.57-6.91,0-1.6-.08-3.04-.39-4.6l-.12-3.62c-.41-2.93-.4-5.7-.24-8.63l.14-2.56,2.4-.21,4.29.13.43.02.65.04c.08,0,.14-.51.05-.53l-2.77-.55-2.2-.1-2.94-.08c-1.88-.05-3.74.2-5.59.52-.82.14-1.74-.02-2.14-.92-.29-.64.39-1.6,1.16-1.76l5.72-1.19c.28-.06.97.03.98-.19l.05-1.12,1.06-1.58c.86-2.09,1.8-4.04,3.27-5.84.64-2.58.8-5.25.47-7.91l.31-.29,4-7.22,1.37-1.36.24-.2.22-.19,5.1-3.94.28-.17c1.45-.89,2.68-.69,2.61-.52-.05.15-.2.47-.32.6l-2.99,3.17c-1.15,1.22-2.04,2.69-1.66,4.36.33,1.45-.39,2.62-.66,3.99-.41,2.05.12,4.17.37,6.22s-.63,4.85-.22,7.68l.37.22c.53.31.64.9.6,1.61l-.02.4v.44s0,.42,0,.42v.43s0,.47,0,.47c0,.09-.27.15-.35.15h-.45s-.41,0-.41,0l-4.53-.03h-.47c-.11,0-.14.38-.04.42l.56.19c1.14.38,2.44.5,3.66.57l3.94.23c2.06.12,3.99-.1,6.01-.31.65-.07,1.32.8,1.14,1.42-.29,1.02-1.47,1.51-2.44,1.82l-.43.14c-1.11.36-2.78.29-4.1.28h-1.48s-.49-.02-.49-.02c-.09,0-.12.26-.12.39l-.24,3.14-1.36,8.37-.06,7.24c0,.74.36,1.75.89,2.14.68.5.77.91.8,1.77l.12,3-.42,2.89-.45,3.67c-.17,1.42-.07,2.44.55,3.77.37.79.03,2.13.02,3.09l-.13,13.6c-1.2,0-1.71-1.63-2-3.05l-.07-.36-.1-.32-.11-.33-.45-.98-.17-.36c-.4-.84-.65,1.74.59,4.98.51,1.32,2.57,2.51,4.05,3.23l.96.46,1.46,1.05c.97.69,2.38.77,3.52.39l3.24-1.09,3.19-1.17c1.15-.42,2.28-.64,3.51-.78l.34-.04.41.02c.32.94-2.12,1.37-3.33,2.48-.66.61-1.04,1.02-1.72,1.47l-4.67,3.12-5.18,4.3-2.76,1.75c-1.01.64-1.61,1.64-2.41,2.54l-1.81,2.03-4.66,4.44-4.57,3.85-2.51,1.81c-1.96,1.42-3.78,2.8-5.92,3.96l-5.2,2.81c-.11.06-.37.3-.33.41l.21.55,1.66,2.66c.23.38.37,1.11.03,1.33-.29.19-1.07.05-1.37-.15l-1.43-.93-2.48-1.53c-.08-.05-.44-.17-.55-.21-2.35,1.22-5.03,2.02-7.56,2.92l-2.45.87c-2.13.76-4.32,1.55-6.62,2.03-.81.17.35,3.66-1.73,4.63-.51-.92-1-1.85-1.29-2.87l-.25-.88c-.05-.19-.67,0-.87.05l-10.97,2.17-7.61,1.06c-.29.04-.55.47-.72.72l-2.01,3.14-1.05,1.09c-.39.19-.88-.67-.81-1.08l.06-.41.54-2.26.04-.56c0-.07-.19-.03-.32,0l-9.93,1.21-8.93.51c-.78.04-1,.33-1.37.93-.43.71-.79,1.34-.94,2.15l-.21,1.13-.14.38c-.07.19-.35.52-.54.59-.72.28-.37-1.81-1.03-3.16s-2.05-1.62-3.38-1.64l-6.4-.09-10.06-.24-10.4-.52-6.72-.63-8.51-.59-.19.34-.14.26-.15.29c-1.18,1.55-1.75,3.34-1.9,5.32l-.05.34-.06.36-.07.3-.26.82c-.03.09-.3.27-.35.18s-.27-.44-.29-.54l-.32-2.24c-.34-2.35-1.62-4.08-3.4-5.46-.56-.44-1.1-.73-1.85-.81l-7.09-.69-13.34-1.32-11.95-1.41-15.2-1.85-3.25-.29-4.73-.43-9.36-.97c-.52.12-1.19.94-1.38,1.45l-.97,2.68-.25.43-.24-.07c-.1-.03-.38-.38-.38-.48l.09-1.92c.04-.92-.91-1.99-1.63-2.58l-7.87-.57-3.37-.18-7.83-.6c-.56-.04-1.4.03-1.62.38-.51.81-1.3,1.52-1.45,2.28l-.63,3.2c-.16.81.3,1.99-.76,2.42l-.12-.38-.05-.38-.46-1.42c.06-1.86-.02-3.69-1.43-5.08l-.18-.26c-.72-1.06-2.11-.88-3.28-1l-.36-.04-.37-.04-.38-.03-.42-.03h-.42s-.41,0-.41,0h-.41s-.41,0-.41,0h-.41s-.41,0-.41,0h-.41s-.41,0-.41,0h-.44s-.37.04-.37.04l-.38.05-.34.05-.35.05h-.37s-.43,0-.43,0l-3.51.03h-.62c-.16-.02-.11.37.06.42l2.34.91c1.07.68,2.3,1.45,3.12,2.37l1.59,1.76,1.49,1.95,1.33,2.62c.44.86.14,2.22.08,3.2-.2,2.98-1.41,5.42-4.17,6.57-.9.38-1.7,1.02-2.87.68l2.36-.93c.75-.73,1.62-1.34,2.2-2.2.67-1,.9-2.73.81-3.87l-.14-1.8c-.05-.69-.64-1.5-1.01-2.16-.77-1.36-1.79-2.4-2.9-3.54-1.89-2.32-4.88-3.48-7.76-4.34h-.42s-.42.02-.42.02h-.38s-.34-.09-.34-.09l-.34-.08-.41-.1c-6.93-1.08-13.94.16-20.86,1.36l-.39.07-.29.06-.36.08-.33.09-17.75,5.44-.32.12-.3.12-.27.1-.31.11-.32.11-.33.12-.28.11-.27.15-.25.14-.27.15-1.28.56-.29.13-.28.12-.28.12-.45.09c-.21-.03-.61-.2-.43-.25l1.87-1.31c1.98-1.08,3.88-2.18,5.97-3.03l3.25-1.31,5.63-1.83c4.54-1.47,8.95-2.64,13.63-3.61,1.09-.23,2.44-.8,3.3-1.33l1.83-1.52c.62-.51,1.02-.94,1.51-1.62l1.3-1.8c.09-.13.53.06.47.18l-.31.66-.5,1.39c-.49,1.38-.47,3.26.56,3.15l7.03-.69,3.11-.23,2.42-.09c3.1-1,4.95-3.47,6.62-5.95.38,1.36-.22,2.22-.58,3.16l.17.32s.1.31.11.35l.2,1.59c.02.13.52.2.62.13l.35-.25,2.62-.35c3.52-.41,6.66-1.83,9.53-3.81,1.23-.97,1.63-2.85,1.89-4.54.24-1.55-1.3-2.08-.88-4.03,1.01,1.16,1.79,2.06,2.86,2.89l.26.2c.19.15.79.59.92.38l.59-.96c.73-1.2,1.46-2.58,1.64-3.93l.05-.37.05-.36.08-.34c.51-2.27.07-4.54-1.15-6.47h-.42s-.39.02-.39.02l-.37.06-.32.1-.29.1-.27.15-.26.14s-.24.18-.26.21l-.96,1.2c-.07.09-.5.34-.51.23l-.02-.66s.12-.25.15-.32l.14-.3.38-1.26c.22-.71.19-1.41-.18-2.12-.88-1.67-5.41-1.82-7.57.35-.9.91-.97,2.31-1.2,3.5l-.07.35-.06.34c-.02.09-.31.41-.39.37-1.36-.76-1.33-5.99,3-7.62,1.61-.61,2.6-2.11,2.65-3.88,0-.3.54-.89.75-.85.13,1.69.64,3.74,2.24,4.32,2.72.99,5.1,2.42,6.87,4.53.02.01.28.23.3.26l1.51,2.55.44.1.32.1.31.1.31.1.29.09.32.09.36.06.37.07.84.15.4.02h.44s.48.03.48.03c.18,0-.04.39-.4.55l-2.33,1.05c-1.04.47-3.02,2.96-3.6,4.45-.88,2.29-1.95,4.3-3.42,6.29-2.37,2.87-5.46,4.96-8.85,6.54l-.33.1-.61.18c-.12.03.21.21.31.2l.78-.07.45-.04.35-.03.34-.03.38-.04c4.56-.46,9.01-1.26,13.41-2.36l.28-.21.27-.21,1.27-1.31.23-.28,1.4-1.13s.18-.3.18-.34l.04-.35.04-.35.04-.35.05-.37.05-.39.05-.34.05-.34c0-.05.09-.29.11-.33l.2-.36c.04-.07.14-.06.18,0,.06.09.25.45.26.57l.31,2.27c.07.49.38.99.62,1.43l.58,1.04c.15.27.99.08,1.33,0l3.23-.68.37-.12.31-.06,11.19-2.19c1.64-1.74,2.77-3.83,2.7-6.03l.46-1.44c.03-.1.25-.25.25-.16l-.02.59c-.02.58.16,1.27.39,1.8l.72,1.69c.49.76,1.56,1.92,2.37,2.21l5.51-1.09,9.43-2.03,5.68-1.09,5.29-.91.52-.52c1.42-1.57,2.41-3.34,3.06-5.35l.16-.3c.46-.87.4-1.83.64-2.87l.25-1.1.1-.33.16-.32c.03-.06.23-.08.28-.04s.26.32.26.39l-.02,1.61c0,.82.14,1.49.25,2.32l.24,1.81c.52,1.26,1.28,2.67,2.29,3.15l4.61-.9,23.37-2.65c1.37-.15,2.4-.03,3.52-.89s2.75-1.55,3.49-2.83l1.96-3.41.19-.34c.04-.07.48.24.46.32l-.64,2.46c-.47,1.82-.54,4.55.47,4.51l4.96-.21,7.6.36c2.52.12,4.95,0,7.42.4l4.1.66,5.53,1.23c1.22.27,2,.29,3.25.12,2.24-.29,4.7.15,6.86-.79l3.71-1.61,1.14-.89,1.41-.88,1.28-.99,1.18-1.05c.11-.1.59-.28.75-.33s.54.51.49.71c-.12.49-.71,1.28-1.13,1.74l-1.87,2.09c-1.39,1.56-2.73,3.32-3.61,5.22l-1.01,2.19c-.32.7,1.14,1.85,2.09,3.99l.49,2.31c.34,1.64-.26,2.69-1.05,3.9-.85,1.3-1.67,2.59-3.05,3.36s-2.61,1.28-4.13,1.46c-2.19.25-4.25.35-6.41-.57-.11-.08-.13-.44.03-.46l1.01-.09c2.77-.25,5.45-.07,7.29-1.92,1.94-1.95,3.25-5.02,2.02-7.15-1.94-3.34-5.61-5.02-9.39-6.01l-5.22-1.36-3.71-.66-5.97-.8c-1.11-.15-1.8.27-2.45,1.12l-2.59,3.38c-.43.57-.78,1.19-1.04,1.83l-.12.3-.18.34c-.15.29-1.28-.64-.04-3.05.71-1.39-.18-4.11-1-4.12l-5.77-.06-7.08.2c-4.66.13-9.23.2-13.86.88l-.22.25c-2.12,2.25-3.38,5-3.85,8.06l-.13.3-.12.29-.14.31-.64,1.16-.15.27-.14.32c-.06.14-.37.46-.47.34s-.31-.54-.29-.71l.42-3.41c.12-1.01-.54-2.06-.87-3.04-.77-1.5-2.27-2.43-3.93-2.88l-6.9,1.14-11.89,2.25-7.22,1.26-2.55.53c-1.5.31-2.41,1.52-2.66,3.1l-.06.38c-.12.77.64,2.11-.45,3.48l-.35-.24c-.31-1.4-.76-2.7-1.69-3.79l-.2-.23c-.96-1.12-2.33-1.2-3.71-.68l-.38.02-.38.02-.34.06-.36.07-13.32,2.47-.38.06-8.7,1.6-8.2,1.46-.38.07-.31.04-.36.04-.38.04-.4.04-.39.04-.32.06-.35.06-.49.09c-.07.01-.04.11.04.11h.64s3.94.17,3.94.17l6.39.46,11.31.77c.46.03,1.1.02,1.37-.15,1.15-.73,2.02-1.51,2.38-2.71.11-.07.69-.25.68-.13l-.04.78c-.07,1.27.82,2.7,1.32,2.74l7.87.65,7.16.96c2.59.35,4.71-.57,6.72-2.15l1.63-1,1.81-1.25.07-.39.06-.34.07-.31s.15-.23.18-.26l.51-.5.22-.22.29-.29s.11-.01.12.05c0,.07.02.47,0,.57l-1.09,4.23-.03.46.2,2.32c.01.15.51.42.62.44l9.1,1.02,6.24.39,8.23.95,5.14.28c5.67.31,9.54-.02,14.51-3.05,2.86-1.74,3.41-5.47,1.52-8.32-1.07-1.62-2.92-2.39-4.89-2.55l-2.92-.24c1.06-1.13,3.54-1.4,4.85-1l2.49.76c4.49,2.75,4.88,8.47,1.46,12.38l-4.1,2.38-.7.2s-.05.24.02.24l.61.05,4.92.19,6.89.05c.6,0,1.36-.48,1.86-.76l4.19-2.41,2.21-4.19c.06-.12.57-.14.55,0l-.11.85-.23.99c-.73,1.65-.63,3.25-.28,5.01l.39.53,17.73-.05,8.46-.37,3.1-.16,1.54-.19s.22-.22.27-.27l.21-.23c.92-.98,2.18-1.99,2.51-3.35.21-.86.35-1.61.78-2.36l.37-.65c.08-.14.57.29.5.49-.6,1.83-.53,3.8.62,5.74l9.04-1.26,6.52-1.24c-.96-2.62-1.58-5.56-.25-4.44l.23.19.23.19.24.22c1.78,1.57,1.95,3.3,2.66,3.13l2.95-.7c2.14-.51,3.62-2.22,4.92-3.88s2.57-3.19,2.93-5.26c.2-1.13.33-2.86-.03-3.96-.69-2.13-1.93-4.06-3.12-5.87l-1.07-1.02c-.68-.65-1.57-1.23-2.53-1.56-1.12-.38-2.43-.86-3.62-.87l-4.39-.05c-.99-.01-3.05.91-3.54,1.7-.11.18.1.69.25.84l2.28,2.24-2.34-.15c-.51-.03-1.56.15-1.84.57-1.07,1.55-.8,3.4.61,5.02.66.76,1.8,1.86,2.21,1.99l1.63.51.33.1.57.2c.09.03-.15.23-.23.25l-.61.2c-1.88.62-3.64-.53-5-1.72-2.03-1.76-2.73-4.17-1.85-6.72.51-1.46.9-3.01,1.87-4.31,1.13-1.5,3.66-2.79,4.68-2.79l5.87-.04c.44,0,1.14.11,1.45-.08l2.1-1.28c.89-.55,1.53-1.35,2.02-2.27l.27-.31c.78-.88-.32,2.49.57,4.09.52.93.74,1.63.85,2.67.05.42.83.99,1.08,1.35l1.59,2.33,1.23,1.08c.99.87,2.5.48,3.67-.02.74,1.01-.66,1.05-.93,1.83l-.37,1.07-.37,1.3c-.17.59-.44,1.22-.88,1.7l.13,4.33v.33s-.17.4-.17.4l-.96,3.22,6.4-2.2c.27-.09.35-.21.34-.51v-.42s-.02-.41-.02-.41l.04-.36.04-.34.04-.34v-.39s.01-.41.01-.41v-.42s.01-.41.01-.41v-.39s-.05-.35-.05-.35l-.09-.31-.09-.3-.1-.32-.08-.41v-1.39c0-.11.15-.46.22-.55s.21-.02.56.07l1.26,3.19.88,1.98.43.78c.06.11.41.51.52.54l3.56-1.67,4.5-1.93c2.6-1.12,5.06-2.49,7.31-4.16l-.09-.51-.41-2.43-.03-.47-.2-2.43-.08-.42c-.05-.26-.03-1.04.23-1.02.64.05,1.29.35,1.45.71l.12.28.43.99c.54,1.25.89,2.72,2.13,3.39l6.22-4.14.26-.21.23-.18.23-.18.23-.18.23-.18.22-.17.22-.2.24-.22,3.19-2.72c.13-.11-.03-.48-.16-.63-.81-.91-1.21-2.1-1.76-3.19l-1.25-2.44-1.02-2.22c-.42-.91-1.03-1.36-2.08-1.28-2.4.18-4.6,1.15-6.58,2.45l-3.11,2.04-5.07,3.28ZM415.07,75.87l3.67-3.21c1.07-.94,1.86-2.03,2.44-3.33,1.24-2.21,2.07-4.52,2.39-7.06,1.03-1.09,1.68-2.41,1.59-3.95.59-1.88.27-3.72-.17-5.59-.26-1.1.28-2.26-.22-3.45-1.7,2.99-.34,5.33-1.24,7.23l-.97-4.44c.38-1.61.12-3.23-.63-4.72-.2-1.29-.71-2.33-1.22-3.46-.55-1.23-1.23-2.26-2.35-3.08-.41-.3-.96-1.34-1.74-.85-.95.61-1.78,1.65-2.54,2.56-.61.73-1.6,1.43-2.02,2.22l-1.16,2.2c-.64,1.22-.59,2.76-.85,4.12l-.61,3.23-.66,4.02c-.04.41.63,1.16.87,1.53l-.23,2.51-.73,3.35-.27,2.64c-.15,1.43.04,2.44.82,3.61l.82,1.24c-.15,1.26-.09,2.5.03,3.79l.3,3.16c1.45-1.57,3.01-2.82,4.68-4.28ZM516.1,96.97l4.95-2.66,6.6-3.26c.42-.21.9-.49,1.26-.74,1.97-.74,5.48-2.31,4.54-3.08-.19-.16-.68-.07-.99.02l-3.68,1.08-.07-4.67v-5.89s.18-9.6.18-9.6l.18-4.52.12-2.46.31-5.16c.05-.85.01-1.96-.49-2.63-1.04-1.41-2.11-2.68-2.68-4.34-.15-.45-.23-1.39-.62-1.54-1.01-.38-1.56-.85-2.36-1.42l-5.41-3.8-3.14,2.39c-.78.6-1.44,1.16-1.91,2.03-.88,1.61-1.86,3.3-1.94,5.19l-.15,3.51-.17,4.06-.07,3.78-.12,5.73-.16,5.03c-.29-.61-.73-1.41-.86-2.03l-.87-4.06c-1.92,3.6.64,7.04.93,10.28l.38,4.31c.15,1.7.3,3.12.86,4.7l.98,2.74,1.58,2.96c.76,1.42,1.74,2.8,2.83,4.04ZM402.12,75.32l1.05-1.42c.12-.16-.24-.87-.4-.75-1.03.74-1.49,1.9-1.16,2.01l.51.16ZM450.6,74.14c.1-.08.42-.44.35-.54l-.38-.52-1.14,1.07c.02.13.38.58.51.49l.67-.5ZM403.94,80.91c.13-.21.22-.5.17-.64s-.46-.14-.66-.07c-.29.11-.77.74-.61.97.2.27.93.01,1.09-.26ZM451.29,82.99l-.43-.3-2.05,1.64c1.25.62,2.05-.25,2.48-1.34ZM507.68,90.92c.27-.97.19-1.88-.68-2.44-.77,1.02-.59,2.74-.04,2.84.18.03.42-.16.73-.4ZM565.04,88.85c0-.13-.43-.21-.53-.13s-.25.26-.34.39l-2.21,3.02c-.18.25-.17.71.03.92.91.93,2.98-3.02,3.04-4.2Z"/>
      <path d="M247.32,107.41c-1.44-.74-3.2-.55-4.76-.65-1.92-.13-3.33.25-5.01,1.03-2.14.99-4.55,1.68-6.88,2.14-1.84.36-3.49.78-4.77,2.31-.44.53-.88,1.74-.72,2.41l.66,2.73-3.48-1.92c-.89-.49-2.07-.2-2.92.33l-3.43,2.12c-1.77,1.09-3.27,2.33-5.58,2.04-.26,2.97.89,3.46,1.04,4.36l.25,1.44c-.72-.39-1.43-.72-1.78-1.1l-1.15-1.24c-.71-.77-1.67-1.95-2.87-2.01-.99-.05-1.87.99-2.67,1.4-1.98,1.03-3.94,1.85-6,2.64l-6.39,2.46c-.48.19-1.35.41-1.66.76-.98,1.1-1.05,2.35-1.12,3.91l-2.67-1.39c-1.42-.74-3.3-.87-4.89-.65l-5.95.82-7.42.11-2.61,1.96c-.58,1.45-.98,2.68-1.89,3.87-.86-2.18,1.05-2.87-1.97-4.75l-1.58-.98-6.12-.65-2.24-.43-7.51-1.73-4.04-.9-3.47-.85-4.07-1.02c-1-.25-1.49.18-2.06.95-1.72,2.33-1.04,3.96-2.35,4.78l-.35-3.89c-3.59-5.69-5.25-3.8-8.16-4-3.15-.22-5.91.7-8.66,2.06-1.62.8-2.74,1.77-3.83,3.21s-1.91,2.74-2.03,4.62c-.08,1.3-.15,2.92,1.11,3.77.74.5,1.8,0,2.31-.61l.98-1.17c.24,1,.03,1.55-.41,2.36-.38.7-.25,2.12.39,2.69,1.86,1.67,4.98,1.15,7.31-.36,1.14-.74,1.62-1.87,1.25-3.23-.74-2.7-2.74-2.89-1.81-3.42,2.09.41,3.99,2.24,4.16,4.56.08,1.08-.41,2.49-1.16,3.26-.69.7-1.7,1.32-2.15,2.14l-.17,2.79c-.02.35-.61.76-.85.59l-1.8-1.35c-2.42-1.81-3.64-.94-5.89-2.33l-3.63-2.25-1.3-1.92c-.62-.92-.96-1.84-1.25-2.93-.24-.9-.12-1.86-.13-2.73-.01-2.66.95-4.65,2.52-6.64s3.21-3.53,5.74-4.44h-4.03s-5.52.39-5.52.39l-1.94,1.43c-1.42,1.05-2.43,3.49-3.98,4.06-.17.06-.54-.45-.54-.65l.02-4.06-4.99.98c-4.13.81-8.12,1.79-12.12,3.09l-7.48,2.42-4.47,1.68-5.06,1.93-3.22,1.12c-.97.34-1.85.84-2.86.58,1.77-1.28,3.44-2.44,5.29-3.29l5.09-2.35,9.04-4.12c4.11-1.87,8.21-3.51,12.57-4.64l3.95-1.02c-2.4-.2-4.63-.48-6.14-2.18-1.28-1.44-1.64-3.12-.96-4.96s3.17-3.95,4.08-3.24c.13.1-.05.51-.18.6-1.81,1.35-3.15,3.51-2.13,5.29,1.65,2.88,4.93,2.28,8.35,2.08l3.5-.2,3.89-.23,7.38-.66c.19-.02.81.08.88-.08l.36-.83c1.02-2.32-1.09-3.28.44-3.97l1.19,2.1c.43.77.57,1.39,1.25,1.9l1.54,1.15,4.67.92,4.09.64c1.56.25,3.05.74,4.57,1.09l5.38,1.24,5.56,1.41,3.14.75,3.44.82c.74-.21,1.91-.63,2.56-1.03l2.61-1.62c.8-.5,1.56-1.47,2.27-2.24.51,1.15-.73,1.95-.68,2.79l.23,3.65,3.12.61c2.25.44,4.52.48,6.86.41l1.73-.46c1.69-.45,3.44-.85,4.66-2.13,1.12-1.18,2.33-2.67,2.39-4.3.08-1.93-1.29-3.35-2.67-4.42-1.69-1.3-3.84-1.15-5.22.56-.18.22-1.1.24-1.04-.06.27-1.37,1.66-2.74,3.05-2.85,3.51-.28,2.49-2.01,4.24-3.73.44,1.76-1.05,3.03-.17,4.53,2.41,1.41,3.76,3.64,3.86,6.4l3.35,1.64-3.02,1.05-2.18,1.22c-.84,1.06-1.59,1.79-2.85,2.63l7.47-.02,2.59-.26,11.26-2.3c-1.73-.83-3.69-.93-5.08-2.09-1.2-1-1.99-2.55-3.05-3.71l-2.56-2.03c-.79-.63-2.01-1.66-2.46-2.54l-2.09-4.6c-.33-.74-.57-1.99-.72-2.83-.2-1.13.43-2.49.18-3.61l-.51-2.32c-.51-2.31.55-5.17.37-6.79-.2-1.77-.24-3.51.1-5.23.21-1.05-.16-1.54-.74-2.34l-2.25-3.07c-.56-.76-1.11-1.67-1.91-2.19-.95-.62-2.22-.7-3.26-1.1-2.58-1-5.16-1.56-7.97-1.66l-2.45-.08-3.88-.15-.5,3c-.63,1.68-.63,2.84-.35,4.58.17,1.02-.38,2.61-.72,3.62-.78,2.31.96,2.98.83,4.4l-.25,2.81-1.31,4.05c-.29.89.32,1.64.57,2.46.3.96.33,1.95.44,3.18l-1.65-.84c-.11-.05-.49.11-.47.23.03.16.2.53.32.65l2.81,2.76,1.66,1.22c.18.13.42.51.45.71s-.17.68-.34.81l-2.79,2.13c-1.65,1.26-3.33,2.69-4.4,4.38-.16.25-.78.51-1.02.46-.28-.06-.67-.36-.97-.63l-2.82-2.54c-.75-.68-1.24-1.5-1.77-2.36-.62-1.01-1.9-1.57-2.77-2.31-.63-.53-1.12-1.02-1.93-1.18-.55-.1-1.03-.39-1.34-.85l1.72-4.48.22-1.46c.78-2.37,1.8-4.63,2-7.13l-.07-3.43.06-6.73c0-.5.26-.89-.16-1.34l-.66,3.34-.31,5.11c-.07,1.1-.13,2.12-.37,3.28-.36-2.57-.03-4.87-.01-7.38l.06-11.45c.83-.6,1.19-1.32.88-2.39s.23-2.35.06-3.4l-.67-3.99c-.2-1.18-.13-2.74,0-3.95l2.15-3.62c.22-.38.25-.93.12-1.36l-1.06,1.46-.44-2.55c-.25-1.43.08-3.02.08-4.49,0-1.99-.31-3.95.15-5.9l1.36-3.34c.59-2.41,1.01-4.79.99-7.27-.87,2.05-.62,4-1.65,6.03-1.62-4.04-.34-7.91-.93-12.14-1.16-.32-2.26-.27-3.38.22-.78.34-2,.71-2.61,1.24l-2.67,2.3c-2.12,1.83-4.63.93-7.6,1.96.76.45,1.2.39,2.13.51-.69.63-1.43,1.35-2.3,1.67-2.51.94-5.17,1.55-7.85,1.31-1.15-.1-2.26-.23-3.34-.03-1.29,1.14-1.38,2.64-1.09,4.15l-.38,10.71-.9,2.74-.61,3.26c-.49,2.6.54,5.58-.02,8.12l.25.3c.39.48.78-2.5,1-4.1l.3-2.11-.02,10.3-.27,4.36c-.98.37-1.66.91-2.42,1.5l-4.45,3.48.03.34,5.31-2.93c.4-.22.95-.35,1.44-.42l.08,3.95c.01.54-.08.99-.17,1.53l-.54,3.23c-.6,3.54.62,2.97.95,4.55.21.98.68,1.71,1.53,1.97l-.42-2.46c-.28-1.61-1.23-1.81-.58-3.74l3.08,3.77,1.18,2.06c.62,1.08,1.87,1.64,3.13,1.4,1.6-.31,3.34-.49,4.84-1.12,2.66-1.12,4.89-2.67,7.49-4.08l1.62-3.75c.63,2.49-.15,4.87-1.75,6.54l-2.13,2.21c-.62.65-1.42,1.16-2.32,1.35-1.26.26-2.16.87-3.24,1.51l-2.18,1.29-6.8,3.5c-1.68.87-3.86,1.58-5.05,3.15s-1.68,3.7-3.22,5.26l-.36-1.52c-3.44-5.41-8.02-10.04-10.84-15.89-.31-1.34-.03-3.01-.08-4.39l-.11-2.84.33-4.37c.1-1.27-.32-2.42-.68-3.64l-1.19-4c-.1-5.24-.11-10.33.05-15.57.07-2.09.46-4.06.3-6.18-.09-1.25.09-2.37.74-3.55.67,1.23-.34,2.99.83,4.87l.58-4.5c.43-3.35-1.76-6.9-1.75-9.34.01-2.7-.18-5.56-2.36-7.54-1.05-.95-3.3-1.6-4.7-1.24l-3.78,1.6c-.4.17-.81.1-1.36-.09l2.59-1.82c.85-.6,1.8-1.57,2.87-1.77s2.3.05,3.24-.53c1.33-.82,2.37-1.97,3.48-3.1l3.96-4-.44-1.89,3.51,1.32,1.82,3.07c.82,1.38.93,3.9,2.62,5.01.42.27,1.08.69,1.36,1.06,1.32,1.77,2.66,3.17,4.53,4.38.91-.16,1.94-.5,2.72-.94l2.65-1.48c-.28,1.38-2.09,1.08-3.36,2.31,2.12-.1,4.26-.9,5.33-2.81,1.6-2.86,3.16-5.41,5.2-8.08.42.42.77.82,1.06,1.29,2.3,3.77,6.71,1.61,10.73.35.88-.56,1.95-.47,2.99-.31,1.15-.57,1.5-1.78,1.58-2.99l.37-5.6c1.54-2.27,2.86-4.59,3.93-7.16.21-.5.82-1.11,1.27-1.37,1.35-.74,2.16-1.96,3.38-2.8,3.52-2.42,10.03-4.07,14.42-4.49l.25.46c.05.08-.19.29-.27.34l-3.64,2.14c-2.01,1.18-3.3,3.28-3.88,5.51-.71,2.73-1.97,4.45-1.74,5.42.66,2.77.99,5.37.72,8.15l-.09,4.86c-.02,1.11.65,2.37.51,3.46l-.51,4.14c-.21,1.71.25,3.41.32,5.14l.16,3.88c-.15,3.1-.7,5.98.19,9.24,2.34-2.67,5.07-4.59,8.14-6.13l2.88-1.45c2.78-1.4,5.68-2.63,7.95-4.75l3.22-3,.38-.16-1.29,3.12-3.4,3.05c1.32-.13,2.24-.92,3.29-1.67s1.82-1.64,2.28-2.89l1.5-4.07c.33-.9,1.43-1.65,2.05-2.42,2.56-3.22,7.93-7.97,11.78-9.02l3.53-.97c.12.06.48.23.22.12-3.62,2.88-6.85,5.82-9.71,9.29-2.22,2.7-2.75,5.93-2.15,9.31l.21,3.23.45,2.77c.13.78-.42,1.83-.85,2.49l-1.39,2.15-1.72,2.66.21.37.78-.87,4-3.63,1.36-1.35c.49.72.63,1.52.57,2.41l-.39,6.16c-2.19,1.86-1.38,4.06-1.82,5.28-1.05,2.91-5.41,5.44-7.26,8.71-1.09,1.93-2.3,3.69-4.43,4.77,1.95.91,3.81,1.83,5.51,3.14l3.72,2.88,1.11,1.11c3.29,2.87,5.03,6.81,5.25,11.18l.07,10.04-.28.04-1.71-5.1-1.11-1.72c-.81-1.26-1.87-2.66-3.52-2.59,1.18,1.11,2.51,1.51,2.99,2.91.92,2.72,1.41,5.4,1.93,8.28.24,1.34,1.1,2.95,2.03,4s2.31,1.98,3.55,2.54l2.64,1.19c1.67.75,3.92-.36,7.56-.03.45.04,1.47-.03,1.86-.24,1.55-.97,3.13-2.28,3.7-4.06l.31-2.35.19-.41c.05-.1.41.08.43.22l.39,2.15c.25,1.38,1.69,2.87,3.1,3.18,1.07.24,2.25-.21,3.24-.54l3.99-1.37c1.92-.66,3.97-.94,5.81-1.81,3.72-1.77,7.36-3.44,11.27-4.73,1.08-.76,1.18-2.28,1.45-3.46l.58-2.5c.04-.16.38-.48.45-.35l.32.62.94,1.68,1.27,1.52c.45.27,1.37.61,1.94.82l2.95,1.1,7.77,1.81,2.83.9.48.1c-.02.06.07-.21.09-.26l-.43-2.34-.58-4.29c-.24-1.76.82-3.29,1.32-4.93s-.08-3.45-.41-5c-.5-2.39.76-2.92.72-4.75l-.06-3.27-.23-2.89-.03-2.47c-.01-1.02.58-2.45.04-3.31l-1.54-2.44.18-4.86.58-1.9c.25-.84,1.56-1.47,2.03-2.16l1.19-1.75c.8-1.18,1.72-.96,3.44-2.05l1.15-.73c-.37-.15-.47-.18-.51-.15-2.24.78-3.39-.2-4.78,1.27-.69.72-2.16.67-2.1.46l.18-.63.25-2.58.11-3.62c.34-1.27.22-2.58-.03-3.88l.96-4.5c.23-1.1.82-2.42,1.68-3.18l6.65-5.89c1.46-1.29,3.05-2.11,4.6-3.25l2.59-1.9,2.89-2.85,4.95-3.9,4-3.21,6.04-4.85,4.63-3.8,4.25-3.6,1.22-1.35c.07-.07.47-.21.48-.11l.07.46.9,4.3c.09.44,1.84,1.06,2.85,2.94.09.64-.14,1.87.14,2.43.46.93.42,1.76-.33,2.49s-1.25,1.69-1.93,2.55l-1.18,1.5-.22.33c-.05.07.52.21.58.15l2.3-2.5c1.09-.61,1.92-1.17,2.54-2.23l2.89-.88c.65-.2,1.35-.62,2.11-.28,1.78.81,3.69.6,5.36-.45,1.09-.68,2.71-.5,3.55-2.63s1.86-4.01,3.74-5.28c.1-.08.24-.17.23-.1l-.1.5c-.34,1.76-1.16,3.72-1.32,5.56-.12,1.35-.7,2.35-1.28,3.47-.64,1.23-1.38,1.93-2.52,2.68l-4.69,3.08c-.7.46-1.68.67-2.22,1.26l-2.78,3.04c-1.07,1.17-4.71.31-7.97,1.05-.47.11-1.48.54-1.92.39l-5-1.7-1.88-1.74c-.95-.88-2.58-1.4-3.85-1.5-.86-.07-1.65.21-2.41-.24-.61-.36-.96.17-1.39.48l-4.65,3.38c-1.11.8-2.29,1.76-3.14,2.81,0,1.33.55,2.82.05,3.94l-1.6,3.6-.93,1.51c-1.77,2.32-3.8,4.38-4.86,7.14l3.45-4.03,1.27-1.22c.6-.58,1.31-.72,2.22-.68l.27,2.11.04,2.47-.22,5.52v1.16c-.91,1.05-1.41,2.7-1.09,4.19.47,2.21-.51,4.94.05,6.31l1.19,2.92c-1.01,1.73-1.24,3.7-.29,5.44-.17,1.95-.28,3.84-.04,5.77.25,2.31-.15,4.54-.25,6.86-.05,1.12.16,2.48-.41,3.51l-1.14,2.05-1.92,2.81-.78,1.45-.19.4c-.04.08.39.05.45,0l1.92-1.89c.93-.92,2.26-1.22,3.6-1.27l.77,3.57,1.37,4.01,2.13,3.58c2.22,3.73,5.18,6.64,8.88,8.81,1.45.85,2.75,1.74,4.37,2.23,2.41.73,4.77,1.04,7.3.9l2.7-.15,2.82-1.75c1.11-.69,2.06-1.43,3.03-2.35l1.85-1.77c.51-.49-2.01-3.33-3.25-4.56l-3.54-3.53-2.21-2.43c-.59-1.17-1.15-1.93-2.07-2.73-1.4-1.21-1.61-3.13-1.98-4.85-.4-1.85-1.04-3.73-.54-5.61l.91-3.42.13-.74c.03-.2-.48-.43-.61-.27l-.29.37-1.12,2.28c-.12.17-.3.35-.31.32l-.17-3.91c-.06-1.39-.57-3.24-.04-4.61.49-1.25,1.27-2.49,2.09-3.62l2.03-2.78.19-.44c.02-.05.05-.21,0-.19l-.37.16s-.14.11-.22.19l-.63.57-1.74,1.83h-.4s-.63-1.82-.63-1.82l.29-3.72-.16-3.41.87-4.09.68-3.91,2.18-2.65c3.13-3.81,1.42-4.22,7.05-7.91l2.28-1.49,8.34-5.65c1.06-.71,2.4-.94,3.13.21s1.66,2.01,2.62,2.93l1.87,1.82,1.76,1.77c2.44,2.45,4.8,4.97,6.51,8.04l1.51,3.41c1.39,3.14.81,6.3.4,9.57l-.48,3.92c-.09.74-.16,1.55-.47,2.19-.5,1.04-.42,1.78-.08,2.8l.72,2.2c.87,2.66.86,5.75.14,8.48-.69.48-1.71,1.04-1.92,1.82l-.8,2.96c-.49,1.79-4.26,6.76-5.97,7.97l-4.46,3.14c-2.28,1.61-4.66,3.1-6.1,5.62l-1.46,3.18c-.35.76-.44,1.38-1.02,1.94l-4.37,4.3c-.83.81-2.2.98-3.25,1.47l-3.64,1.73-2.75,1.13-3.25,1.53c-1.23.58-2.54,1.46-3.59,2.28-.84.66-1.13.58-2.21.8l-5.73,1.16c-1,.65-1.58,1.96-2.23,2.89l-2.37,3.41c-.72,1.04-1.53,1.93-2.09,3.08-.4.82-1.62,1.09-2.27.4l-1.42-1.51c-.92-.97-2.34-2.1-3-3.24-.73-1.25-.73-2.24-2.09-3.21l-2.34-1.65c-1.66-1.17-3.77-.58-5.53.36-1.85.99-3.26,2.99-2.88,5.23.34,2.01,1.3,4.29,2.91,5.57,4.41,3.49,11.76,1.92,16.73-.68l4.41-2.78,3.7-2.27,3.52-2.21,3.33-1.97,2.56-1.15,8.37-3.58,5.91-2.33,5.01-2,11.04-5.75,4.09-2.94,1.33-1.32,2.34-2.45c1.33-1.39,2.16-3.15,3.31-4.68l.45.49-.66,3.58c-.15.82-.48,1.66-.93,2.36l-1.54,2.41-2.72,3.53c2.99-.32,5.74-.5,8.6-.38.77.03,1.67.09,2.32-.28l3.06-1.74,1.02-1.75c.04-.06.31-.17.62-.31.18,1.69-1.04,2.78,0,4.68.39.72.83,1.02,1.58,1.33l2.49,1.04,1.92,1.13c.7.41.95,1.25,1.52,1.78l1.58,1.47,1.96,1.95c1.05,1.04,1.69,2.59.88,3.26-1.52-1.31-2.39-2.71-4.36-4.1l-1.57-1.1c-4.68-3.28-13.91-3.9-19.8-3.28l-5.49.58c-1.17,1.56-1.89,3.51-1.14,5.31l-.51.37-1.34-1.18-3.35-1.65c-1.67-.82-3.85-.92-5.62-.24l-9.9,3.77-.86,2.57c-.37,1.11.22,1.08.48,2.19.05.21-.57.31-.75.17-1.65-1.18-4.87-1.8-6.27-.91l-4.03,2.57-7.43,5.72c-.95.73-1.97,1.68-2.63,2.67l-3.13,4.7c-.65.97-.75,2.07-.9,3.25l-.9,2.94-.13.8c-.04.22-.9-.16-.94-.61l-.24-2.7.86-4.86c.27-1.54.85-2.58,1.87-3.75l1.36-2.07.27-.28.29-.31c.06-.06-.28,0-.43.04-3.62,2.58-7.65,4.34-12.05,5.02-3.99.61-7.74-.02-11.1-2.41l-2.13-2.98-.14-.48c-.33-1.09-1.09-2.55-1.08-3.74v-1.09c.02-.12.02-.46-.07-.44l-.45.11-2.94.72c-1.61.39-3.11-.02-4.59-.53-1.83-.63-1.76-1.84-3.18-3.82-.07-.09.13-.46.21-.37l.37.42,1.33,1.78c.35.3,1.17.83,1.61.94l1.81.45c1.34.33,2.8-.43,4.1-.85,3.17-1.02,4.76-3.99,4.51-7.26-.22-2.83-1.37-5.36-3.27-7.42l-1.79-1.95c-.21-.23-.63-.63-.88-.68l-2.11-.44c-.41-.09-.97-.08-1.22.11-.97.72-.34,2.13-1.33,2.23-1.37.13-.46-2.28-3.75-3.97ZM327.42,92.49l-.09-1.71.86-8.13.43-2.8.85-4.29c.3-1.51-1.43-4.21-.9-5,1.48-2.21,3.59-2.87,3.62-4.4l-2.85,2.08c.2-2.44.67-4.8.27-7.14-.23-1.37-.61-2.83-1.44-3.95l-2.7-3.64c-1.84-2.47-3.72-4.86-5.03-7.67-.47-1-.86-1.73-1.9-2.31-.85-.47-2.07-1.25-3.2-.97l-3.45,1.82c-.63.33-1.59.7-1.92,1.36-.41.84-.21,1.98-.25,2.9l-.17,4.14-.82,9.65-.26,4.12-.17,5.14c-.1,3.2-.06,6.4.82,9.51l1.04,2.86,1.75,3.59,1.73,3.2,2.14,3.62,2.53,4.96c1.58-1.64,3.48-2.61,5.22-3.94l3.88-2.98ZM275.5,45.92l-.5-.57-1.01,1.67c.9.36,1-.28,1.51-1.1ZM168.46,74.22c2.07-2.12,2.88-4.58,3.01-7.41.06-1.24.5-2.46.81-3.66.96-3.69-1.85-6.75-1.53-8.5.28-1.53-.55-2.38-1.31-3.45-1.01-1.43-1.16-1.91-3.12-2.7-.88-.36-1.74-.85-2.78-.71-3.21.45-5.98,1.9-8.46,3.88-2.61,2.09-5.39,5.39-5.04,8.69.16,1.51.18,3.01,0,4.49.14,1.04,0,2.07-.04,3.13l-.24,6.86,5.15.14,8.1-.11c1.83-.03,3.56-.24,5.43-.65ZM268.11,65.12l.89-1.13c.13-.16-.13-.78-.31-.69-.48.23-1.2.94-1.45,1.4-.1.18.09.81.28.78.15-.02.48-.22.59-.36ZM266.41,70.21c.37.06.83-.08,1.14-.35.23-.19.31-.8.07-1.04-.63.13-1.19.71-1.22,1.38ZM96.47,73.82l-1.35,1.13c-.08.07-.18.34-.2.44-.13.54,2.26-.45,1.55-1.58ZM142.04,78.9l.42-.74c.06-.11-.43-.44-.55-.39-.55.22-1.47,1.16-1.35,1.87.45.22,1.23-.28,1.49-.74ZM97.03,82.58c-.95-.16-1.9.52-2,1.36.92.26,1.87-.26,2-1.36ZM267.82,113.55c.23-.02.56-.5.61-.73.04-.19-.17-.61-.38-.76-.25-.17-.86.32-.88.63-.02.26.39.89.66.86ZM267.15,118.6c-.33-.83-2.3-.46-3.69-1.34l.1,4.88c1.35-.5,2.63-.72,4.1-.8-.04-.85-.11-1.75-.51-2.73ZM273.66,121.45c-.01-.28-.5-.83-.67-.7-.45.34-.39,1.47.25,1.7.25.09.45-.45.42-1Z"/>
      <path d="M53.94,114l-2.96-4.84c-.91-1.49-.35-3.71,0-5.28.21-.92.49-1.51.11-2.42-.95,1.83-1.28,3.41-1.55,5.38l-.49-.95c-.91,2.56-2.5,4.52-4.69,6.12l-3.68,2.3-4.07,2.09c-2.78,1.15-5.49,2.26-8.08,3.85l-5.45,3.36-4.25,2.57-1.66,1.84c-.34-.43-.61-.74-.95-.98-1.56-1.09-2.09-2.82-3.11-4.33l-1.73-2.55c-.7-1.02-1.28-1.84-1.84-2.94l-2.69-5.31c-.88-1.73-2.02-3.29-2.06-5.33-.02-.78.12-1.65-.6-2.32-.11,2.05-.15,4.29.61,6.25.63,1.61,1.37,2.95,1.66,4.79l-2.13-2.33c-1.06-1.16-1.29-2.83-1.94-4.23-.91-1.93-2.12-4.46-1.81-6.38.39-2.51.48-5.11.22-7.66l-.29-2.72-.13-4.6-.18-7.23c-.07-2.89-.63-6.44.55-8.45l3.28-5.55c.71-1.21,1.24-2.6,1.17-4.11-1.1,1.88-2.01,3.48-3.8,4.72v-2.82c-.02-1.4-.28-3.01,0-4.41.39-2.01,1.42-3.76,2.04-5.71.29-.9.37-1.97.57-2.88,1.37-1.89,2.78-3.67,4.6-5.1,2.57-2.02,6.83-3.36,9.18-5.64l5.13-4.95c1.36-1.31,5.76-3.04,8.02-4.93l2.77-2.33,3.21-3.18,2.78-3c.92-1,1.85-2.14,3.09-2.74,1.51,2.22,3.27,2.41,3.47,4.53.31,3.16,2.19,4.24,4.78,5.75l2.44,1.42c1.19.7,2.25,1.37,3.2,2.37,1.47,1.53,3.09,2.93,5.05,3.77,1.48.63,3.13,1.02,4.68.71l3.66-.73c.91-.18,1.82-1.36,2.65-1.75l2.19-1.02c-.42.84-.94,1.36-1.57,2.01l-2.75,2.8c-1.13,1.15-1.93,2.5-2.32,4.06-.94,3.73-1.14,7.35-1.23,11.16-.05,2.3-.22,4.48.07,6.77.37,2.92-1.28,4.04-1.41,5.77-.15,2.05-.09,4.08.3,6.06l.57,2.95.96,6.4.52,3.33c.17,2.81.15,5.48,0,8.24l-1.61-7.78c-.28-1.34-.56-2.54-1.23-3.9-.39,1.04-.25,1.92-.19,3,.2,3.73.41,7.37.16,11.09-.09,1.34-.03,2.44.51,3.68l1.17,2.73c.62,1.44.95,3.05,1.81,4.39l1.76,2.73c.73,1.13,1.75,1.56,2.93.93,1.87-.99,3.3-2.44,4.02-4.44l.98-2.73.78-1.61c.53.32,1.33,1.05,1.34,1.71.02,2.98-1.91,6.94-4.21,8.76l-1.36,1.07c-4.08,4.46-8.17,4.43-12.21,7.78l-1.1,1.52c-.83,1.15-1.4,2.12-2.02,3.39l-.77,1.57c-1.27-1.2-1.07-2.78-1.49-4.26-.26-.94-1.29-1.99-1.4-2.97-.24-2.35-.75-4.37-1.96-6.35ZM37.19,113.37l3.53-1.96c1.53-.85,3.25-1.99,4.24-3.51.79-1.21,1.65-2.78,1.91-4.17l.83-4.54c.3-1.65-.36-3.29-.27-4.96l.14-2.59c.01-.2-.23-.76-.05-.83l.85-.31c.05-3.96.15-7.98-.08-11.94v-4.19s.22-5.86.22-5.86l.19-2.89.23-4.31.1-5.54c.79.64.89,1.46,1.22,2.39l1.26,3.61c.04.1.22.37.28.45s.29-.4.28-.52l-.29-3.18c-.2-2.2-.84-3.83-2.37-5.35-.88-.88-1.49-2.11-2.14-3.2l-2.22-3.72c-.92-1.55-2.04-2.86-3.11-4.28s-2.01-2.58-3.48-3.55-3.06-1.99-4.91-2.23-4.82.1-6.49.68c-1.34.47-2.92,1.74-3.69,2.95-1.02,1.62-.99,3.61-1.75,5.3l-2.4,5.36c-.41.91-.46,1.81-1.11,2.63-.6.75-1,1.76-1.2,2.71-.43,2.01-1.2,3.84-1.07,5.98,1.39-2.44,1.15-5.66,3.16-7.12.07,3.13-.23,5.96.36,8.83l.75,3.72c.29,1.43.27,2.93.27,4.43,0,2.4-1.39,3.7-.54,7.36.39,1.68.33,3.42.46,5.14l.49,6.23.13,5.9c.02.8.12,1.56,0,2.33-.27,1.75.04,3.4.62,5.03l-.94-.03.98.39c1.12,4.2,3.69,8.99,7.48,11.26l2.47.55,5.67-2.46ZM55.99,46.15l-1.42-2.22c-.11-.18-.72-.32-.85-.15-.66.81,1.11,3.43,2.12,3.14.15-.04.25-.63.16-.76ZM60.24,52.59c-.34-.78-.81-1.02-1.52-.83-.32.87-.16,1.54.31,2.32.24.4.98.81,1.36.34.29-.36.06-1.33-.15-1.83ZM8.08,102.85l-1.06-3.96c-.36,1.49.31,2.81,1.06,3.96ZM20.08,117.58l-.27-.48-1.58-2.46-.59.36c-.15.09.19.47.28.69,1.21,2.72,2.36,2.23,2.16,1.89Z"/>
      <path d="M381.37,34.39l4.61-4.94c.48-.52.84-1.29,1.62-1.56.32-.11.76.66.74,1-.08,2.07.31,3.89.99,5.77l1.33,3.7c.78,2.16,2.13,4.32,1.86,6.73-.22,1.98-.31,3.8-.14,5.83.19,2.22-1.64,4.53-1.57,7.1,1.08,1.99,1.28,4.06.79,6.26l.39,1.49.08,3.21c.22,1.19.21,2.3-.07,3.5.71,2.03.44,4.07.31,6.16-.15,2.58-.55,5.11-2.05,7.27-.97,1.4-1.69,3.07-2.94,4.23-1.15,1.07-2.16,2.04-3.05,3.34-.46.68-1.1,1.23-1.71,1.79l-8.22,7.59-2.09,2.04c-1.23.45-1.79,1.5-1.96,2.74-.96,1.72-1.62,3.46-2.16,5.3l-.76,2.58c-.06.2-.34.55-.54.57-.24.02-.71-.32-.8-.55l-1.38-3.61c-.43-1.13-1.45-2.29-2.32-3.18-2.59-2.61-4.8-5.28-6.99-8.24l-2.71-3.66-2.64-4.13c-1.8-2.82-2-6-2.04-9.35l-.03-2.88.57-2.8c1.05-5.17-.45-8.51-.22-12.38l.19-3.11c.08-1.37.38-2.84.03-4.14s-.29-2.47-.1-3.9c.09-.7-.36-2.06-.08-2.72l1.94-4.67c-.66.24-.93.58-1.23,1.03l-1.19,1.81-1.97-.4-1.88-3.66-.64-1.53c.36-1.25,1.56-1.65,2.29-2.52l8.65-10.43,3.41-4.64c.12-.16.38-.33.52-.39s.4.52.36.67l-.7,2.32-1.1,5.75c-.6,3.13,1.95,8.18,3.68,11.35,1.17,2.15-.58,4.53-.6,7.55l-.07,9.97-.05,4.92c-.01,1-.4,1.88-.37,2.9.05,1.48-.09,2.88-.38,4.31l-1.03,5.2.36,2.42,1.47,6.56c.44-1.56.26-2.77.31-4.43l.92,2.43,1.3,2.77c.63,1.34,1.76,2.52,2.8,3.54l2.5,2.44,2.25,2.06c.87.8,1.63,1.26,2.41,2.41l3.67-3.68.95-2.14c.57-1.29,1.01-2.73,1.14-4.16l.37-4.32c.19-2.21.42-4.16,1.25-6.24.31-.78.57-1.7,1.17-2.3,1.37-1.36,1.39-3.02,1.25-4.81l-.11-1.42.29-3.95.12-1.83-.53-5.6c-.84,1.8-.55,3.56-1.02,5.26l-1.03,3.68.48-5.87v-10.61s-.92-5.65-.92-5.65c-.21-1.34-1.23-2.61-1.93-3.77-.75-.25-2.03-.73-2.72-.59l-4.26.9c-.43.09-1.2-.17-1.79-.37l3.3-1.78c1.48-.8,2.78-1.47,4.08-2.55l1.11-.92c1.54-1.27,2.85-2.55,4.27-4.07Z"/>
      <path d="M225.07,84.4c.18-1.25-.19-2.61-.25-3.9l.58-3.26-1.12-5.64c-.21-1.07-.76-2.06-1.55-2.77l-2.63,1.17c-1.53.68-2.89,1.39-4.28,2.32l-1.32.88c-.09.06-.19.54-.08.57.14.04.42.04.59-.03l1.17-.5-.09,7.35-.11,9.19c.45.22.71.35.85.5s-.08.77-.24.9l-2.36,1.99c-.41.34-1.06-.46-1.32-.75l-1.89-2.11.72-1.3.54-4.23-.3-2.73.48-2.12-.2-2.33c-.26-3.14-.46-6.1-.22-9.24l.22-2.88.16-3.69c.1-2.34-.38-4.54.64-6.87-2.37-3.27-5.95-4.91-7.28-8.76.23-.59.32-1.38.32-2.04l-.03-3.13c0-.54-.68-1.48-.97-2.07l.39-2.59c-.2-1.67-.17-3.13-.02-4.77l.22-2.26c.19-2.02.84-3.93,2.66-5l7.36-4.32.83-.59c.21-.15.72.38.94.62,1.53,1.64,3.59,2.72,4.95,4.47.56.72.45,1.78,1.46,2.35.58.33.94,1.23,1.06,1.92l.48,2.85c-.6,2.96-1.04,5.92-.96,9,.05,1.88-.31,3.53-1.28,5.16-1.2,2.01-2.7,3.8-4.3,5.52l-2.2,2.35c-.67.72-.79,1.63-.77,2.6l.05,4.13c0,.79.46,2.04.16,2.74-.76,1.21-.98,2.53.1,3.6l-.06,2.68-1.72.65c-.1.04-.29.35-.3.46-.1.84,2.78-.49,4.39-1.22,1.98-.9,3.73-1.79,5.22-3.48.25-.28.97-.63,1.28-.48.35.17.73.7.97,1,1.67,2.12.71,2.79,1.17,5.4l.91-1.43c1.03,1.98,1.11,4.3.4,6.46l-.15,5.56-.12,6.27-.53,6.87c-.18,2.38-1.26,4.46-2.83,6.24-.37.82-1.12,1.26-2.04,1.25-1.65,1.89-4.85,4.18-6.85,2.77,4.54-1.07,7.37-4.59,7.7-8.96l.43-5.68.95-6.7ZM219.88,47.56c.41-.62.14-1.59.15-2.29l.15-7.72c.03-1.68.16-3.25-.04-4.93l-.36-3.09c-.14-1.17-.31-2.14-1.51-2.74l-1.03-1.77-3.44-1.3c-.74-.28-1.39-.34-1.98.07s-.88.88-.96,1.61l-.46,4.56-.45,4.49c-.14,1.43-.08,2.26.38,3.62.56,1.65-.19,3.76.11,5.5l1.35,2.74c.83,1.68,2.39,2.76,3.74,4.21l-1.77,2.08c.98.34,1.32-.54,1.88-1.05.8-.73,2.15-.84,4.25-3.98Z"/>
      <path d="M231.55,63.62c-.09.63.17,1.21-.67,1.59l-.33-3c-.22-1.95-.28-3.78-.16-5.76l.3-4.73.23-5.9.22-6.91.25-5.88-.02-7.19-.19-4.53c-.36-.35-1.21-.54-1.82-.58-2.52-.54-4.99-.69-7.49-.19l-.63.41c-.14.09-.66-.35-.54-.49,2.41-2.73,5.24-3.47,8.89-3.5l2.43-.02c.55,0,1.19.44,1.97.19l-2.11-1.12.47-4.13c.12-1.02,1.11-2.09,1.92-2.72l3.57-2.81,4.83-2.86c.55.9.12,1.32-.43,2.21,1.65.36,3.8.04,5.16-1.1l1.72-1.44c.09.71-.08,1.03-.38,1.51-.92,1.51-2.17,2.35-3.7,3.14-1.18.61-2.3,1.1-3.72,1s-2.44.46-3.51,1.16c-.79.52-1,.93-1.08,1.9-.16,2.03-.23,3.91.05,6.03,1.6.4,3.19.8,4.91.81,1.35,0,2.63-.85,3.8-1.41l.49-.24c.13-.06.35.5.26.64-.78,1.05-2.1,2.59-3.33,3.31-2.4,1.42-5.08,1.39-7.7.67-.51-.14-1.04-.33-1.4.39l2.22.75-.16,6.1v3.31s-.2,6.22-.2,6.22l.04,5.32c.01,1.49.27,2.9-.75,4.26l-.52-1.47c-.78.76-.33,1.62-.75,3.51l-.45,2.06-.86,5.87-.8,5.64Z"/>
      <path d="M206.23,90.73c.53-.34.45,1.32-2.89,3.39-.86.53-1.43,1.02-2.36.89-.83-.11-1.58-.55-2.08-1.35l-1.23-1.96c-1.43-1.07-1.35-2.22-1.27-3.81l.24-4.73c.04-.69-.34-1.71-.09-2.36l.63-1.67-.39-3.97v-1.87s-.23-3.21-.23-3.21l-.15-3.03c-1.72.21-3.09,1.28-3.88,1.21-.23-.02-.49-.71-.36-.95,1.24-2.4,4.51-1.15,4.33-3.64-.23-3.36,1.32-6.13,3.43-8.48,1.06-1.18,2.02-1.98,3.29-2.93l2.9-2.16c-.69,2.59-4.12,4.29-4.4,5.99l-.38,2.3-.71,3.77,1.07,3.63c1.15.47,3.17.49,4.35.29.13-.02.46.45.36.54l-.41.36c-2.04,1.81-4.26.48-6.61.65.08.91,1.26.44,2.03,1,.15.11.03.54.03.8v15.94s.47,2.81.47,2.81l.42,3.47c.06.46.83.98,1.21.73l2.33-1.46.33-.21Z"/>
      <path d="M249.4,83.87c2.09,2.61-.33,6.44-3.76,7.53l-3.46,1.09c-1.74.55-1.72,2.33-2.47,2.37-1.29.07-2.17-1.74-2.78-3.09l-2.62-3.89c-.58-.86-.61-2.19-.73-3.28l.38-2,.65-3.44-.98.97,1.1-6.59c.3-1.82,2.34-3.87,3.98-5.08l4.39-3.24,1.04-1.21,1.2,2.34c.1,1.71.68,2.92,1.49,4.32.61,1.04-.01,2.55-.08,3.66-.35,5.65-4.37,9.16-8.9,11.98-.27.17-.42.73-.3,1.05l1.23-.67c.09,1.22.61,2.5,1.45,3.27.92.85,1.82,1.04,2.92.61,2.17-.85,5.88-2.89,6.05-4.6l.21-2.09ZM237.05,85.87c2.11-1.15,3.58-2.64,5.03-4.39,1-1.3,1.94-2.72,2.4-4.36l-.22-2.89c-.12-1.63-1.26-2.91-2.1-4.22l-.96-1.5c-.9.69-2.32,1.26-2.72,2.37-.87,2.37.63,7.31.05,10.6-.23,1.31-1.25,2.38-1.75,3.54l-.22.52c-.05.11.32.29.49.34Z"/>
    </g>
  </g>
</svg>