<?xml version="1.0" encoding="UTF-8"?>
<svg id="Layer_2" data-name="Layer 2" xmlns="http://www.w3.org/2000/svg" viewBox="0 0 497.98 270.59">
  <defs>
    <style>
      .cls-1 {
        fill: #cc0404;
      }
    </style>
  </defs>
  <g id="Layer_1-2" data-name="Layer 1">
    <g>
      <path class="cls-1" d="M398.68,269.73l-14.84-4.1c9.09-24.24,27.2-46.9,45.11-66.61-6.13-.33-10.56,1.03-15.78.18-7.96-1.31-12.64-7.99-11.03-16.29-22.79,14.09-59.82,27.86-74.97,2.89-25.5,12.19-66.48,24.47-82.36-1.71-16.54,9.35-39.73,18.77-56.51,14.31-7.4-1.97-12.11-7.47-12.58-15.72-29.61,19.13-58.9,23.94-88.85,4.21-21.14,11.55-52.68,17.94-73.84,7.15-5.26-2.93-9.29-7.04-11.13-12.78-.38-1.17-1.04-1.88-1.9-2.17v-7.97c1.33-.45,1.44-1.79,1.93-3.18,2.68-7.61,8.77-12.57,16.1-15.75,10.14-4.09,20.94-4.67,31.93-3.05,13.77,1.89,25.81,7.61,37.62,15.03,13.23-11.44,24.2-23.31,34.64-36.99-15.24.44-29.21-.46-42.9-5.34-10.61-3.71-19.68-9.55-26.43-18.5-6.62-9.63-8.05-21.33-4.69-32.7,9.15-30.9,49.61-51.09,81.64-54.59l7.32,15.67c-25.56,2.92-57.64,16.24-68.19,38.77-4.57,9.77-2.41,20.16,5.65,27.21,15.19,13.3,41.26,14.39,61.48,11.19,22.67-30.78,47.64-66.05,76.89-89.7,10.13-8.19,20.89-14.44,33.35-17.79,6.1-1.64,10.99-2.34,16.86.61,4.38,2.2,8.24,5.16,9.34,10.67,3.48,17.38-10.29,38.58-22.7,52.26-26.02,28.68-61.37,51.11-99.87,58.59-13.53,18.48-27.59,36.69-45.89,51.56,35.95,21.62,66.73-6.8,92.56-33.52l14.42,11.31c-7.35,8.19-19.13,21.8-15.45,27.64,5.17,8.19,33.81-6.09,45.93-13.65,1.12-10.45,3.58-19.86,8.3-29.4,13.02-26.3,32.32-49.29,56.82-65.45,12.13-8,31.13-14.24,39.43-5.76,6.65,6.8,2.28,19.03-3.2,28.81-16.79,29.96-51.47,59.7-81.1,79.18,10.26,17.75,44.48,4.57,62.66-5.09,4.22-32.69,26.46-63.53,54.03-80.26,7.93-4.81,16.52-7.46,25.45-7.1,8.26.33,13.45,6.66,12.62,14.64-3.13,30.11-45.66,63-71.6,79.43,7.67,11.82,23.28,6.46,36.03-.01,14.86-7.55,27.65-17.48,39.8-28.69l14.69,11.67c-6.1,7.07-14.7,18.01-11.91,22.3,2.39,3.65,16.09-1.7,24.53-7.08,13.21-8.43,24.59-18.67,35.65-29.67l14.22,11.09c-26.79,25.69-53.37,50.36-75.11,80.13-8.06,11.04-14.76,22.33-19.64,34.97l-4.55-.86ZM225.65,63.19c10.06-9.25,30.13-35.25,24.68-41.23-2.24-2.45-6.3-.45-8.89.63-9.81,5.35-17.75,12.25-25.91,20.18-18.23,17.73-34.68,37.11-49.17,58.3,23.96-7.67,42.39-21.41,59.29-37.88ZM261.49,154.52c21.71-16.64,51.35-42.98,64.68-65.2,1.72-2.87,3.25-5.9,2.67-9.55-4.34-.04-7.99,2.19-11.49,4.8-17.29,12.88-31.88,28.63-44.06,46.44-5.04,7.37-9.16,14.6-11.8,23.5ZM396.05,103.28c1.12-9.87-13.81,1.47-22.64,10.24-12.71,12.98-24.11,27.13-30.16,45.21,19.71-14.12,43.1-34.21,52.8-55.46ZM70.23,175.12c-14.15-10.46-43.42-15.87-49.8-3.57-7.06,13.6,28.97,15.77,49.8,3.57Z"/>
      <ellipse class="cls-1" cx="222.13" cy="126.2" rx="12.14" ry="12.12"/>
    </g>
  </g>
</svg>