<?xml version="1.0" encoding="UTF-8"?>
<svg id="Layer_2" data-name="Layer 2" xmlns="http://www.w3.org/2000/svg" viewBox="0 0 499.37 42.47">
  <g id="Layer_1-2" data-name="Layer 1">
    <g>
      <polygon points="321.83 42.47 300.77 42.47 275.49 10.59 275.78 42.47 263.27 42.47 263.29 0 284.01 0 309.8 32.21 309.48 0 321.83 0 321.83 42.47"/>
      <polygon points="254.64 42.47 241.63 42.47 241.7 26.25 212.18 26.25 212.21 42.47 199.11 42.47 199.17 0 212.18 0 212.19 15.72 241.7 15.72 241.7 0 254.71 0 254.64 42.47"/>
      <polygon points="499.37 .1 499.37 42.47 486.28 42.47 486.36 26.25 456.84 26.25 456.87 42.47 443.83 42.47 443.83 0 456.84 0 456.85 15.72 486.36 15.72 486.36 0 499.37 .1"/>
      <path d="M393.94,42.47h-14.34s-4.09-7.63-4.09-7.63h-27.45s-3.79,7.04-3.79,7.04l-.24.6h-14.85S353.18,0,353.18,0h17.47s23.29,42.47,23.29,42.47ZM370.95,25.96l-9.17-16.81-9.05,16.82h18.22Z"/>
      <polygon points="416.49 42.47 403.45 42.47 403.46 10.54 384.42 10.54 384.43 0 435.5 0 435.49 10.54 416.46 10.55 416.49 42.47"/>
      <polygon points="67.83 42.47 62.72 42.47 62.7 4.29 35.87 42.47 31.83 42.47 5.12 4.29 5.11 42.47 0 42.47 0 0 8.28 0 34.01 36.5 59.81 0 67.83 0 67.83 42.47"/>
      <polygon points="190.88 42.47 148.06 42.47 148.11 0 190.59 0 190.59 4.3 153.21 4.3 153.21 18.42 189.24 18.42 189.24 22.43 153.21 22.43 153.21 38.18 190.9 38.18 190.88 42.47"/>
      <polygon points="139.89 42.47 131.35 42.47 101.75 22.49 94.16 22.46 94.16 42.47 89.05 42.47 89.05 .01 94.16 0 94.16 18.46 101.85 18.46 129.75 0 138.43 .04 107.33 20.5 139.89 42.47"/>
      <rect x="75.81" y="0" width="5.11" height="42.46"/>
    </g>
  </g>
</svg>