<?xml version="1.0" encoding="UTF-8"?>
<svg id="Layer_2" data-name="Layer 2" xmlns="http://www.w3.org/2000/svg" viewBox="0 0 727.67 125.9">
  <g id="Layer_1-2" data-name="Layer 1">
    <g>
      <path d="M565.72,51.88c.45-.73.71-2.67.58-3.43-.6-3.33-12.21,1.55-15.75,7.98l-13.28,24.12-9.16-.27,15.36-28.07.1-3.85c.03-1.08-3.67-.86-4.63-.14-13.95,10.48-18.19,36.93-33.46,33.46-2.24-.51-4.15-3.79-5.06-7.06-3.56,4.09-8.72,7.8-14.49,7.63-5.07-.14-8.04-4.63-8.36-10.07l-16.41,8.91c-4.32,9.6-8.78,19.02-15.09,27.56-8.46,11.44-25.28,21.42-33.06,15.49-5.05-3.85-3.32-14.47,2.9-20.64,6.24-6.18,13.67-10.49,21.61-14.27l12.98-6.18,5.63-15.5c-9.49,7.7-20.3,17.16-30.13,12.62-2.29-1.06-4.88-4.74-5.8-7.88-4.98-17.02,13.93-34.15,24.91-45.26l13.92-14.09c-21.24,2.63-35.15-9.34-52.63,5.46,4-11.22,16.17-16.18,26.75-14.07l16.84,3.37c5.66,1.13,10.9.76,17.84.04-11.7,14.03-50.76,60.19-39.14,68.47,1.81,1.29,4.94,1.38,7.73,1.03,8.63-3.95,16.15-9.48,22.53-16.38,7.59-20.25,19.13-46.95,40.19-54.39-4.96,5.26-10.21,9.17-13.55,15.09-4.36,7.72-7.95,15.57-11.02,23.85l-11.58,31.3,14.34-8.58c2.97-10.86,10.39-19.17,20.48-23.37,6.18-2.57,10.93.78,15,3.48,2.67-2.86,7.85-5.17,12.05-2.35-5.8,8.43-20.61,31.17-16.59,32.71,11.23,4.3,21.17-40.22,38.22-33.31,2.09.85,3.57,3.97,4.1,6.74,7.16-6.8,16.56-9.84,21.42-3.77,1.37,1.71,1.4,6.66.12,8.69l-11.42,18.18c2.76,7.17,20.06-10.23,22.86-15.37l20.16-36.91c5.76-10.54,23.03-24.99,31.01-18.33,4.1,3.42,4.69,8.73,2.87,13.48-1.57,4.08-6.19,7.86-11.25,7.3,5.01-4.36,9.05-8.98,8.96-15.46-.02-1.44-2.17-3.83-3.56-4.12-6.47-1.37-14.8,8.31-18.26,14.93l-17.17,32.79,6.63.68c5.6-7.31,12.45-13.31,18.64-8.97,1.71,1.2,2.77,4.92,1.51,6.76-.59.87-2.92,1.95-3.86,2.15-1.13.25-3.31-2.56-2.65-3.5l2.72-3.86c-1.49-1.51-5.59-.71-7.26,1.22l-6.73,7.77c8.39,9.01-1.7,14.93-1.22,22.76,8.6-1.26,17.99-6.41,21.62-14.39,4.25-9.34,9.01-18.17,19.26-22.08,3.86-1.47,8.76-1.11,11.16,2.52,2.08,3.13,2.09,8.33-1.09,11.77-5.58,6.04-13.25,8.59-21.26,10.21-.78,3.33-.48,7.52,1.33,9.85,4.5,5.78,19.69-2.63,22.3-10.49,3.43-10.29,9.04-19.54,19.46-23.84,3.97-1.64,8.99-.84,11.35,2.38,2.51,3.42,2.37,8.65-.88,12.24-5.12,5.63-12.79,8.17-20.79,9.59-1.38,1.46-1.4,5.56-.55,8.21.61,1.92,3.7,4.25,6.49,3.91,8.84-1.08,15.29-9.62,19.16-16.02.62-1.02,3.32-2,4.27-1.93s2.37,1.74,2.36,2.69c-.04,3.53-4.17,3.97-5.28,6.26s2.39,8.69,10.99,8.43c3.28-.1,7.68-1.83,9.03-5.57,3.34-9.29-17.65-11.97-9.86-24.04,4.81-7.45,16.27-9.67,22.79-3.04,1.9,1.93,2.1,6.1,1.09,8.46-.83,1.95-4.75,3.69-7.16,2.8-1.13-.42-2.04-4.12-1.02-4.69l4.69-2.64c.34-3.86-4.23-6.02-8.42-5.31-3.05.52-7.65,3.44-6.43,7.91.74,2.69,4.79,5.88,7.06,7.58,5.25,3.92,6.39,9.8,2.02,14.9-5.44,6.36-15.07,8.13-22.84,3.95-2.5-1.34-4.31-4.63-5.73-7.78-4.3,4.76-9.69,9.1-16.12,10.74-7.68,1.96-13.93-2.78-15.46-10.6-7.41,8.78-19.92,14.13-27.06,8.79-2.51-1.88-4.12-5.85-5.14-9.72-7.65,7.37-20.53,15.68-26.45,10.32-1.5-1.36-2.98-5.79-2.16-7.73l5.19-12.16-9.26,1.93-7.9,16.08c-1,2.04-6.2,2.93-8.42,1.67l3.38-11.32c-7.39,7.14-17.21,16.2-23.2,10.8-2.26-2.04-3.26-7.2-1.56-9.95l10.65-17.26ZM652.48,44.44c-6.53-2.31-14.92,9.69-17.94,19.04,15.19-1.82,24.07-16.87,17.94-19.04ZM684.45,44.34c-6.99-1.74-14.77,9.88-17.78,19.12,15.53-1.93,23.24-17.77,17.78-19.12ZM500.79,70.35l9.43-17.31c.76-1.39-1.12-4.68-2.64-5.12-12.99-3.81-28.25,27.31-22.36,30.69,3.97,2.28,12.28-2.21,15.57-8.26ZM421.86,123.09c14.74-7.21,21.19-20.79,26.81-35.6-12.99,7.3-29.66,16.25-34.14,29.88.38,1.9.83,4.33,1.79,5.04s3.22.67,5.54.68Z"/>
      <path d="M220.92,90.93l17.78-8.76,5.43-15.41c-9.4,8.07-21.33,17.85-30.75,12.37-2.26-1.32-4.69-5.07-5.49-8.5-3.44-14.85,12.16-32.41,23.97-43.1,5.47-4.96,10.45-9.97,15.3-15.46-20.84,3.46-34.4-9.46-52.7,5.51,4.04-11.2,16.22-15.97,26.65-13.91l13.44,2.66c7.1,1.4,13.74,1.57,21.21.87-12.2,14.8-48.06,56.8-39.89,67.43,1.48,1.93,5.36,2.4,8.2,2.04,8.94-3.94,16.75-9.59,23.07-16.86,7.49-20.43,19.29-46.46,39.63-53.84-4.8,5.26-9.69,9.05-12.93,14.59-3.92,6.7-7.3,13.62-10,20.89l-11.93,32.17c5.15-2.91,10.26-6.12,14.23-9.75,3.24-8.03,7.83-14.47,15.28-18.85,4.16-2.44,8.86-1.62,12.84.02,1.65.68,6.01.88,6.82,2.4,1.55,2.92.98,6.9-.04,10.71,6.45-.86,11.94-6.04,14.12-12.24-2.55-1.36-4.79-3.14-5.22-4.87-.68-2.74.3-6.26,3.42-7.17,1.53-.45,5.18.97,5.57,2.41.45,1.65.6,4.21.65,6.27,2.63.47,7.68,1.34,9.9,3.44,3.08,2.92,2.94,8.47.58,11.85l-9.27,13.25c-.53.76-.83,3.01-.66,3.83.67,3.3,16.25-5.17,20.61-13.33,7.55-14.1,13.73-28.15,22.71-41.28,6.69-9.8,20.43-20.81,28.33-16.02,2.72,1.65,4.11,5.01,4.36,8.37.57,7.49-4.78,13.48-12.34,12.94,7.99-5.51,12.09-15.98,6.79-19.07-11.78-6.85-29.92,33.43-36.93,48.04l7.16.59c5.31-6.29,11.02-12.53,17.56-9.66,2.01.88,4.36,4.25,3.19,6.49-.71,1.37-2.27,2.68-3.23,3.06s-3.77-.97-3.59-1.98c.26-1.4.93-3.11,1.85-5.29.42-1.04-4.21-1.16-5.3.05l-7.85,8.72c3.27,4.07,4.26,8.2,2.06,12.7l-3.19,6.55c-.29.6-.38,2.47-.14,3.04,1.79,4.14,14.49-5.78,20.81-12.02-4.02,10.53-20.05,19.33-26.03,14.2-1.42-1.22-2.98-5.49-2.22-7.31l5.4-13c-3.31,1.44-5.6,1.98-9.86,1.75l-6.63,13.81c-1.75,3.64-6.26,5.4-9.74,3.46l3.06-9.19c-8.28,6.87-18.66,13.06-23.6,6.08-1.39-1.96-1.55-6.71.23-9.28l10.23-14.71c.93-1.34,1.61-4.96.52-5.87s-4.25-1.04-6.2-.78c-3,8.81-10.6,13.37-18.48,16.46-7.39,11.16-19.71,23.76-29.55,16.64-2.77-2-4.4-6.22-4.48-10.38l-15.97,10.55c-8.68,19.46-18.98,41.36-40.95,45.84-2.07.42-5.84-.35-7.41-1.37-5.23-3.41-4.1-14.37,2.89-21.16,4.79-4.66,10.34-8.53,16.69-11.66ZM295.77,61.7c-6.8-3.49-7.07-9.14-3.59-14.49-.83-1.66-4.05-1.79-5.82-.18-9.84,8.97-16.79,26.01-10.88,29.65s16.65-6.6,20.3-14.98ZM299.02,51.89c.04-.83-1.79-2.77-2.57-2.6s-2.45,1.31-2.79,2.04c-1.2,2.58.21,6.08,3.4,7.08.8-1.47,1.88-4.81,1.96-6.52ZM209.56,122.63c14.39-7.04,21.53-20.34,26.91-35.61-9.64,5.05-17.46,10.13-25.17,16.66-9.31,7.88-9.67,17.53-6.93,18.02l5.2.93Z"/>
      <path d="M147.34,76.84c2.1,3.58,22.67-6.55,29.82-25.92,2.29-6.2.82-11.89-4.61-16.25,5.44-1.84,9.92,2.25,10.27,7.5,1.32,19.86-27.66,42.33-37.28,37.79-1.79-.84-3.69-3.86-4.74-6.15-6.56,6.28-16.32,9.73-19.45,5.29-1.21-1.71-1.99-4.7-2.57-7.5-4.94,5.55-11.72,9.9-19.45,10.07s-13.53-3.45-15.23-11.72l-10.7,7.88c-2.79,2.06-7.4,2.33-10.35.59-8.65-5.11-3.25-18.78,3.3-28.63l17.58-26.4c2.59-3.89,5.42-9.72,4.88-14.15-1.47-12.1-25.81,1.33-39.09,27.97l-20.25,40.64c-1.82,3.65-8.72,3.49-10.24-.1L58.96,6.73c-8.25,2.87-15.25,4.6-23.1,3.67l-18.7-2.24c-6.45-.77-11.79,1.85-17.16,5.46C5.89-2.7,23.43-.76,38.91,4.04c8.78,2.72,16.38,1.36,25.39-4.04l-7.13,19.01c9.37-8.88,21.84-20.58,31.35-15.47,7.69,4.13,7.15,16.09,2.05,25.55-4.87,9.03-10.56,17-16.44,25.45-5.01,7.21-11.08,16.37-7.3,20.9.82.99,4.2.89,5.25.11l11.88-8.8c1.84-13.12,13.42-22.14,26.08-22.82,2.93-.16,6.04,2.91,6.59,4.97,2.79,10.57-11.19,18.34-24.63,19.06-.39,2.33.29,6.23,1.73,7.83,2.1,2.35,6.39,3.35,9.33,2.65,9.62-2.27,14.98-9.58,19.56-17.45l9.31-16.03c2.8.3,5.43.8,8.64,1.72l-13.49,21.94c-1.55,2.52-2.55,7.53-.56,9.6,11.42.17,18.85-18.84,26.4-31.96,1.32-2.29,7.47-2.38,8.85.41l-14.41,26.03c-.43.78-.43,3.4,0,4.13ZM110.89,47.31c-4.99-3.58-15.54,8.06-18.47,17.96,13.43-.79,22.44-15.11,18.47-17.96Z"/>
    </g>
  </g>
</svg>