<?xml version="1.0" encoding="UTF-8"?>
<svg id="Layer_2" data-name="Layer 2" xmlns="http://www.w3.org/2000/svg" viewBox="0 0 484.03 203.52">
  <defs>
    <style>
      .cls-1 {
        fill: #011441;
      }

      .cls-2 {
        fill: #2bc0f0;
      }
    </style>
  </defs>
  <g id="Layer_1-2" data-name="Layer 1">
    <g>
      <g>
        <path class="cls-1" d="M0,203.52v-125.37s15.13-.06,15.13-.06l1.89,13.2c6.25-7.44,14.53-12.07,23.99-13.65,20.89-3,41.63,5.12,50.14,25.22,5.43,12.82,5.69,29.08.67,42.08s-15.43,22.5-28.73,26.25c-9.32,2.61-19.22,2.62-28.55.04-6.72-2.02-12.52-5.44-17.19-10.98l-.02,43.28H0ZM74.32,141.37c4.35-9.32,4.49-21.51.69-31.01-3.35-8.38-10.07-14.62-18.81-16.96-14.25-3.82-29.05,1.61-35.59,15.19-4.71,9.78-4.6,22.86-.09,32.67,3.7,8.04,10.58,13.85,19.25,15.8,14.06,3.17,28.29-2.28,34.55-15.69Z"/>
        <path class="cls-1" d="M241.03,148.43c7.49,8.68,19.14,11.24,30.05,8.38,8.84-2.62,14.65-9.15,16.68-18.14h18.23c-2.25,13.8-9.83,24.65-22.47,30.33-11.88,5.29-27.46,5.43-39.61,1.02-11.18-4.05-19.86-12.41-24.35-23.41-5.08-12.46-5.28-28.46-.5-41.05,4.92-12.93,15.38-22.66,28.75-26.46,10.2-2.9,21.2-2.78,31.34.27,15.38,4.98,24.2,16.86,26.87,32.54h-18.08c-1.74-8.66-6.72-15.08-15.07-18.08-5.95-1.93-12.22-2.14-18.31-.52-10.79,2.86-17.94,11.69-20.24,22.44-2.37,11.06-.82,23.97,6.7,32.69Z"/>
      </g>
      <g>
        <path class="cls-1" d="M373.68,93.65c-5.56-1.46-11.14-1.42-16.56.01-7.37,1.94-12.95,7.06-16.03,13.97-2.27,5.1-3.12,10.4-3.32,16.09v48.34s-17.29,0-17.29,0v-93.96s15.07,0,15.07,0l1.88,11.06c4.72-5.17,10.37-8.38,16.86-10.34,14.06-3.69,31.53-2.12,42.14,8.53,8.26,8.29,10.73,20.3,10.87,31.84l.02,52.89h-17.34s-.01-53.03-.01-53.03c-.31-11.37-4.51-22.28-16.3-25.38Z"/>
        <g>
          <path class="cls-2" d="M436.95,100.25c-4.04.36-7.17-2.82-7.55-6.4s2.13-7.52,6.1-7.87l40.35-3.61c4.06-.36,7.49,2.2,8.11,6.18.55,3.55-2.05,7.74-6.03,8.09l-40.97,3.61Z"/>
          <g>
            <path class="cls-2" d="M396.04,0c3.24.77,6.17,3.74,5.85,7.4l-3.58,40.95c-.35,4.01-4.19,6.61-7.87,6.22s-6.78-3.61-6.44-7.61l3.44-39.98c.31-3.56,2.62-6.22,5.96-6.98h2.64Z"/>
            <path class="cls-2" d="M424.59,69.34c-2.83,2.83-7.22,2.52-9.88.07s-3.37-7.14-.59-9.92l29.35-29.35c2.72-2.72,7.34-2.18,9.8.32,2.58,2.63,3,7.19.23,9.96l-28.9,28.91Z"/>
          </g>
        </g>
      </g>
      <path class="cls-1" d="M204.11,125.08c0,26.82-21.76,48.57-48.6,48.57s-48.6-21.74-48.6-48.57,21.76-48.57,48.6-48.57,48.6,21.74,48.6,48.57ZM182.88,140.26c3.97-9.32,4.05-20.19.31-29.63-5.78-14.59-20.95-21.15-35.88-17.36-7.92,2.01-14.36,7.25-18.15,14.47-5.16,9.83-5.36,23.07-.76,33.13,3.69,8.07,10.54,13.97,19.18,16.09,14.52,3.56,29.31-2.63,35.3-16.69Z"/>
    </g>
  </g>
</svg>