<?xml version="1.0" encoding="UTF-8"?>
<svg id="layer" xmlns="http://www.w3.org/2000/svg" version="1.1" viewBox="0 0 346.3 208.2">
  <!-- Generator: Adobe Illustrator 30.3.0, SVG Export Plug-In . SVG Version: 2.1.3 Build 182)  -->
  <defs>
    <style>
      .st0 {
        fill: #00275e;
      }

      .st1 {
        fill: #ffe800;
      }

      .st2 {
        fill: #fff;
      }

      .st3 {
        fill-rule: evenodd;
      }

      .st3, .st4 {
        fill: #d4003b;
      }
    </style>
  </defs>
  <path class="st0" d="M345.1,113.8c-1.4-1.6-10.5-9.9-18.8-17.3l1.2-.2h.2c4.6-1.2,8.3,2.2,8.4,2.3h0c.6.6,2.4,1.6,4.9.2,3.4-2,2.4-7.7,1.3-11.7-1.1-4.5-3-6.3-4.3-6.9-1-.5-2.1-.7-3.1-.3-1.8.7-2.2,2.1-2.8,3.5,0,0-.9,3.4-11.5,4.8l-1.9.2h-1.5c-2.9-2.5-4.8-4.2-4.8-4.2-.8-1.4-1.9-2.9-2.9-3.5.3-3.4-3.1-8-4.8-8.8.5-1.5-1.4-5.9-3.4-6.8-6.1-11.3-14.5-24.8-23.5-31-1.4-1-2.2-1.5-2.3-3-.4-6.9-2.2-12.9-4.2-15.4.8-1,2.4-3.6,3.4-7.3,0,0-1.2.8-2.1,1,.5-.5,1.7-1.9,2.8-7,0-.6-.5.5-1.8,1.2.2-.9,1.3-3.3.2-6.5-4.2,4.5-10.5,6.1-15.4,8-7,2.8-10.8,5.8-14.6,13.7-1.3,1.1-6.4,4.9-8,10.8,2.2,1.6,4.7,2.6,8.1,3.8v1.1c-11,22.9,6.2,37.6,27.7,48.8-1.4,2.5-2.6,4.5-2.8,7l-7.8,7.6s-2.9.1-3.6,1.8c-18.9,3.2-41,6.8-66.4,10.7-4.4.7-10,1.4-17.8,2.3-12.5,1.5-30.8,3.7-57.3,7.6-.3-.3-.5-.6-.8-.9-4.2-4.1-11.7-6.8-19-6.8s-13.5,2.8-18.9,7.6l-3.7-3.1c-.2-2.6-1.8-5-1.6-5.1,21-11.4,34.2-29.4,21.5-49.8,0-.1-.1-1-.1-1,2.7-1.1,5.3-2.6,7.5-4.4-2.7-6.4-7.5-9.2-8.9-10.2-3.5-6.5-8-9.8-15.1-11.7-4.7-1.2-11-2.5-15.6-6.4-.6,3.4.4,5.3.8,6.2-1.3-.6-1.8-1.1-1.8-1.1,1.5,4.7,2.9,6,3.4,6.7-.9-.2-2.1-.8-2.1-.8,1.5,4,3.3,6.2,4.1,6.9-2.2,3.9-3.6,9.2-3.3,14.6.1,1.8,0,2.2-.8,2.8-5.9,3.9-20.5,25.1-20.4,30.3.1-.1-4.9,5.7-3.9,8.6-2,1.2-5.8,8.3-4.5,9.4-3.8,2-4.8,7.5-8.4,11.7-1.4,1.7,1.7,1.3,3,.9-6.3,8.9-24.7,34-24.7,34-9.6,13.9,2.3,13.7,4.5,10.6,1.1,2.9,7.7,2.1,9.9.4,1.6,2.4,6.9,1.4,9.6-3l2.3-5.5c2,2.1,4.6,2.8,6.9,2.3h.1c.4,0,.7-.1,1.1-.1,0,0,13-2.9,19-4.2-.1.4-.2.8-.2,1.1-2.8,15.1-.3,28.1,6.9,36.4,2.8,3.2,13.3,13.6,31.3,12.3,5-.4,8.7-1.2,12-1.9,7-1.5,10.8-2.3,18.3,2.6l1.2.8,1.1-.9c4.6-3.6,11.8-2.5,17.6-1.2l4.5,1-2.4-4c-8.7-14.4-22.3-12-35.4-9.7-9.7,1.7-19.7,3.5-28.6-.9-6.7-3.3-11.9-11.8-12.1-19.8-.1-6.5,1-13.4,3-19.8,65.3-14.8,90.1-21.4,112.3-27.3l15.6-4.1c27.7-7.2,77.7-17.9,105.6-23.5,5.3,8.4,16.2,25.4,21.3,32,5.6,7.3,11.8,5.5,12.8.7,2.4.6,5.1-2.8,5.1-7.3,1.1,0,4.8-5.4-.7-11.9M68.2,126.3c-1,.4-1.7.9-2.1,1.7-8,1.3-16.4,2.8-25.3,4.4l3.4-8.1s12.2-4.7,13.4-5.5c1.2.4,4.2,2,6.5,1.5l6.2,5.5c-.4,0-1.5.2-2.1.5M72.1,124.9l-6.6-5.8s.3-1.4-.4-3.4c.2.3,3.1,2,6.6,2.6l3.9,3.1c-1.2,1-2.4,2.2-3.5,3.5M275.8,95.1c-1.1.3-2,.5-2.7,1.5v.2c-2.5.4-5.1.9-7.8,1.3-.3-.1-.5-.1-.8-.1s-1.5.2,0-.9l6.4-5.7c2.8,0,9.6-4.4,9.6-4.4l2.3,1-.2.4s-6.4,6.7-6.6,6.7M281.1,95.4c-.2,0-.3-.1-.5-.1-1.9-.1-2.3-.1-.5-1.7l5.1-4.6s4.6,2,9.8,3.9c-4.4.8-9,1.6-13.9,2.5"/>
  <g>
    <path class="st0" d="M197.6,139.5c0,3.9,3.1,7,7,7s7-3.1,7-7-3.2-7-7-7-7,3.2-7,7"/>
    <path class="st0" d="M332.3,180.8c-3-1.5-5.9-1.7-8.1-1.5.5-4.7-2-9.8-2.9-13.3-1.1-4.1-1.6-6.3-.3-9.7,1.2-3.4-4.1-5.8-6.4-6.9l-.9-.4-.8.3c-3,1.2-9.3,8.7-20.6,23-1.7,2.1-3.4,4.3-4.6,5.8l9.4-42.6c.5-2.6,1.2-5.6,1.2-5.6l-2.5,1.1-12.3,4.8-.2,1.8c-1,8.9-4.2,35.8-12.6,41-.2.1-.7.5-1.3.8,1-5.7,5-22.9,5.9-26.5l.6-2.4h-12.3l-.2.9c-1.7-.8-3.8-1-6.2-.5-6.4,1.2-11.2,5.5-14.3,12.8-2.4,5.6-3.1,11.5-3.5,14.3v.9c-2,2.4-3.7,2.9-4.3,2.6-.4-.1-.4-.6-.4-.9.1-2,1.1-5.4,2.2-9.1,2.6-8.8,4.1-14.9,1.6-18-1.4-1.8-3.4-2.8-5.8-2.9-2.3-.1-4.7.7-6.8,1.8l.4-1.8h-12.8l-.3,1.6c-1.6,7.6-6,23.1-9.1,26.7-.8.9-2.4,1.4-3.2,1.4.7-3.5,4.6-18.2,7.2-27.2l.7-2.5h-12.9l-.3,1.5c0,.2-4.5,19.9-8,26-1,1.8-2.1,2.4-2.6,2.2-.3-.1-.7-.6-.6-1.2.3-4.5,7.1-31.7,10.6-45.5l1-3.7-14.7,5.8-3.6,15.7c-.5-.2-1.1-.4-1.8-.5-8.6-1.4-13.2,4.9-16.3,10.6-2.3,4.2-4.7,11.6-4.9,17.2-1.4,1.6-3.3,3.2-4.1,3.1-.6-.1-.8-.3-1-.6-1.9-3.8,4-17.9,8.8-26.8l1.6-2.9h-18.9l.6-2.1h-11.1l-.4,1.5c-2.4,10.3-6.7,23.8-10.5,29.1-.8,1.1-1.4,1.4-1.6,1.4v-.2c0-1.7,6.6-30.6,6.6-30.6h-12.7l-.6,2.3c-4.3-1.7-10-1.5-14.7,3.8-6.9,7.7-9.4,16.8-7.1,24.9-1,.8-3.3,2.1-5.6,3.2l-3.3,1.6,3.1,1.9s2.5,1.6,3.9,4.5l.5,1.1h1.3c2.4-.1,4.4-1.9,5.6-3.1,4.5,2.6,9.4,2.2,13.6-1.3,3.7,2.8,8.1,3.1,9.5,3.1,11.2,0,15.6-15.1,18.8-26.1.5-1.6.9-3.1,1.3-4.4h5.1c-1.5,3.6-3.4,8.1-4.8,12.4-1.2,3.7-4.1,12.4,1.2,16.2,5.3,3.8,12.7,1.7,17.9-2.2,2.5,3,6.2,4.2,9,4.1,3-.1,5.5-.8,7.8-2.2,1.4,1.4,3.1,2.2,5,2.4,3.5.3,7.1-1.6,9.9-3.8,1.4,2.3,3.5,3.6,6.3,3.6s5-.7,7.4-2.1l-.6,2.1h13.3l4.4-16.2c2.7-10.7,5.4-11.9,5.9-12.1.4-.1.8.1.9.2.1.6-.5,2.5-1.1,4.3-.5,1.4-1,3.2-1.6,5.3l-.2.6c-1.2,4.1-3.1,10.9-.2,15,1.2,1.8,3.1,2.8,5.6,3,4.5.4,10.1-1.8,13.9-5.1,5.6,7,12.3,5.2,17.5,2.5,1.4,1.6,3.3,3,6.6,2.6,2.9-.2,5.6-2,7.9-4.1,1.7,2.7,4.3,4.2,7.4,4.1,5-.1,9.2-3.8,12.5-7.2,4,4.7,9,8.5,16.9,7.1,1.3-.2,2.5-.5,3.5-.8,3.1-.8,4.4-1.2,7.6,1.5l2.9,2.5.3-3.8s.5-3.6,6.6-7.6l2.8-1.9-3.5-1.7h-.1ZM312.2,181c-.6.6-1.7.9-2.8,1-1.4,0-2.7-.4-3.6-1.3-2.9-2.7-3.6-5-2.2-6.9,1.3-1.7,2.4-3.2,3.5-4.7,1.1-1.6,2.2-3,3.3-4.4.3,2.6,1,5,1.7,7.2,1.2,4.3,1.9,6.9,0,9.1M260.9,162.2c-1,8-3.9,18.5-7.5,18.5s-.2,0-.4-.3c-.3-.3-1.5-2.3.2-8.8,1.3-5,2.9-8.1,5-9.1.8-.4,1.7-.5,2.7-.3M173.2,171.7c-.6,2.3-1.2,4.7-1.7,7.1-.1.6-1.2,1.3-2.5,1.4-.2,0-1.5.1-1.8-.6-1.2-2.7.4-11.4,4.2-15.9,1.3-1.5,2.5-2.2,3.7-2.1.3,1.7-1,6.5-1.9,10.1M102.1,180.6c-.1,0-.2,0-.4-.2-.3-.3-1.5-2.3.2-8.8,1.2-4.9,3-8.2,5.1-9.2.7-.3,1.4-.5,2.2-.4-1,8.3-3.7,18.6-7.1,18.6"/>
    <path class="st2" d="M81.1,53.8c.5.7,1.4,1,2.3.9,1.3-.2,2.1-1.5,1.9-2.7-.2-1.3-1.5-2.1-2.7-1.9-.8.1-1.5.7-1.8,1.5,1.6-.3,2.1,1.2,2.1,1.2.9-1.4-.5-2-.5-2,.9-.2,1.8.4,2,1.4s-.5,2-1.5,2.2c-.7,0-1.3-.2-1.8-.6"/>
    <path class="st2" d="M255.3,24.7c-.5.7-1.3,1.2-2.3,1.1-1.3-.1-2.3-1.3-2.2-2.6s1.3-2.3,2.6-2.2c.9.1,1.6.6,2,1.4-1.7-.2-2.1,1.4-2.1,1.4-1.1-1.3.4-2.1.4-2.1-.9-.1-1.8.5-1.9,1.6,0,1.1.7,2,1.8,2.1.7,0,1.4-.2,1.7-.7"/>
    <path class="st4" d="M54,92.4c1.4,0,3.2-.2,5.6-1.6.2.7,2.3,1.5,3.2,1.5-4.4,5.1-20.8,15.7-28.9,19.1-1.7.7,1.7-7.3,4.9-8.7,4.6-2.4,10.9-5.9,15.2-10.3"/>
    <path class="st4" d="M52.4,92.2c-3.4,3.4-9.5,7-13.8,9.3-2.3,1.2,1.8-5.6,2.9-6.3,1.8-1.2,4-2.8,4.7-3.4,1,.4,2.4.3,4.7-1.1.2.7.4,1.3,1.5,1.5"/>
    <path class="st3" d="M24.1,150.5c-1.1-6.4.9-14.1,6.7-16.3h.2c.6-.1,1.3-.2,1.9-.3.9-1.8,1.5-2.9,1.5-2.9h1.2s-.5,1-1.3,2.7c1.6-.3,3.1-.6,4.6-.8,2-4.5,3.3-7.7,3.3-7.7-3.9,1.1-6.3,1.6-8.4,1.3,10-3,22.5-8.4,22.5-8.4,0,0-2.8-1.5-3-3.1-.1-1,1.2-3,1.9-2.8.5.3-.7,1.5-.6,2.4.2,1.7,6.3,4.4,7.7,4.6,1.2.2,2-.4,1.9-1.1-.3-2-.4-2.1-.8-3.4-.2-.7-.5-1.3-.7-1.7-.2-.4,1,.5,1.7,1.2,18.1-9.2,38.9-23.6,30-45.9-.1-.3.2,3.4-.5,6.2-1.4-4.7-6.6-11.2-12-11.1.3-1.1-.7-9.2-6-12.6,1.1.1,2.3-.2,3.4-.9.4-.2.8-.8,1.5-1.4,1.1-.8,2.5-.6,3.7-.1.7.3,4.8-.2,5.3-1.4-2.2-4.1-6.2-8.2-13.4-10.3-4.9-1.5-10.4-2.1-14.3-5.3.4,5.6,9.1,8.5,9.1,8.5-5.1-.6-8.9-3.6-8.9-3.6,2.7,5.3,8.4,7.9,8.4,7.9-1.7-.1-5.2-1.2-6.6-2.1,0,0,.9,3.3,6,6.5,0,0-2.6-.6-3.7-.9-1,2-3.8,7.9-2.8,15,.2,1.2-1,1.9-1.5,2.2-3.9,2.2-11.6,12.6-15.7,20-.4.8-1.7,3.8-1,5.6.2.4.9.9,1.8.8,2.4-.1,5.6-2.8,9.6-8.4.1-.2.2-.4.6-.4s.3.4.3.6c-1.8,4.4-6.2,7.7-6.2,7.7.6,1.3,2.3,1.1,3.9.8,5.9-1.1,8.8-8.3,9.6-10.2.2-.4.3-.5.5-.4.3,0,.4.2.4.5-.1.5-1.7,5.8-5.5,8.9-.5.4,1.8,1.4,3.2,1.2,2.4-.4,7.9-3.6,8.5-12.4,0-.1.1-.4.4-.4s.4.3.5.5c.4,9.5-6.7,13.1-8.8,13.5-3.3,4.4-17.5,14.6-31.2,20.7-4,2-4,6-7.5,10.1,5.1-.3,25.7-12.3,37.1-20.1,8.4-5.7,21.8-18.7,12.2-31.3-1.3-1.9-2.9-2.8-2.9-3.2.2-.8,1.1-1,4,2.5,10.8,14.6-4,27.2-12.8,33.4-5.7,4-25.7,16.5-34.5,19.6-5,6.7-25,35-25,35-.9,1.5-4.4,5.7-3.5,8.5.7,2.2,4.7,1.7,6.5-1.4l21.8-36.4h1.3c0,.1-21,35.3-21.5,37.5-.6,2.9,6,2.2,7.4-.1.5-.9,4.3-8.3,8.3-16.2.3-.5.3-.7.2-.9"/>
    <path class="st3" d="M24.7,153.1c-3.6,7.3-6.7,13.8-6.8,14.3-.3,1.4,3.8,4,7.2-2.6.7-1.5,1.5-3.5,2.5-5.6-1.2-1.6-2.2-3.5-2.9-6.1"/>
    <path class="st4" d="M44.9,86.6c-1.7,2.8-3.4,7.3-2.8,6.9,1-.6,2.4-1.6,3.2-2.2-.6-.2-1.2-2.2-.4-4.7"/>
    <path class="st4" d="M300.3,87.5c10.4,3.7,14.4,6.8,13.4,1.3,0-.7-.2-1.5-.5-2,0,0,28.8,24.9,31,28.4,3.9,4.5,1.3,10,0,8.4,0,0-26.2-28.1-26.1-28h-1.8c0-.1,26.2,27.9,27.5,29.9,1,1.5-1,6.5-3.5,5.3-1.4-.7-27-35-27-35h-1.8l27.2,36.2c1.2,1.8-1.7,3.9-4,3.4-1.2-.2-3.6-1.9-4.8-3.2-6.6-7.8-20.6-30.1-29.5-44.7"/>
    <path class="st4" d="M242.8,42.7c1.1-2,6.8-9.5,12.4-9.4-.4-1.1.2-7.3,5.1-12.1-1.1.2-2.5-.2-3.6-.6-.4-.2-.8-.8-1.7-1.3-1.2-.7-2.7-.4-3.8.2-.7.4-4.9.2-5.6-1,2.3-5.4,5.7-8.9,12.8-11.8,4.9-1.9,10.5-3.1,14.1-6.7,0,5.8-8.6,9.5-8.6,9.5,5.2-1.1,8.8-4.5,8.8-4.5-2.3,5.7-7.9,8.9-7.9,8.9,1.8-.3,5.2-1.7,6.6-2.8,0,0-.7,3-5.6,7.2,0,0,2.4-.5,3.8-1.5,2.4,3.2,4.1,8.8,4.1,15.4s.5,4.1,1.2,4.5c1,.5.2-1.5.5-2.3,9.7,6.2,17.1,18.4,23.7,29.9-2.2-.7-7-2.7-9.8-4.3.3-.3.3-.6.4-.9.2-2.2-1.7-3.6-2.7-4-.2-.1-.4-.1-.5,0s0,.3,0,.3c.5.3,2.3,1.5,2.2,3.4,0,.5-.7,1.2-1.7,1.2-2.4.2-6.4-1.9-11.2-7.1-.2-.1-.4-.5-.7-.3s-.3.5-.2.6c2.5,4.3,7.6,6.8,7.6,6.8-.4,1.4-2.2,1.5-3.8,1.4-6.1-.3-10.2-7.2-11.3-9-.2-.3-.5-.4-.7-.3s-.3.2-.2.6c.2.5,2.5,5.7,6.9,8.3.6.3-1.7,1.7-3.1,1.7-2.5-.1-8.5-2.6-10.4-11.5,0-.1,0-.4-.4-.3-.3.1-.3.3-.3.6,1,9.8,8.2,12.1,10.9,12.5,4.4,4.5,20.5,12.2,37.3,17.4,3.2,1,6.2,9.7,3.8,9-.9-.3-2.1-.7-3.3-1.2-8.3-2.9-20.8-8.2-34.3-15.1-9.3-4.7-25.1-15.3-17.1-29.5,1-2.1,2.1-3.1,2.3-3.3,0,0,.2-.3.2-.4-.3-.9-1.2-.9-3.7,3.1-8.5,15.6,7.8,26.2,17.7,31.3,6.4,3.3,17.6,8.3,25.6,11.7l4.3,7.2c-4.1-.9-17.2-6.3-21-8.1,0,0,1.4-1.2,1-2.4-.3-.8-.5-1.3-1.6-2.3-1.1-.7-1.4-.2-.9.3s1.4,2.1.4,3.2c-1.6,1.8-6.1,3.8-8.6,5.1-1.1.2-1.6.2-1.7-.8,0-1.2,1.6-3.7,3.6-6.8-3.7-1.7-37.7-17.2-31.3-39.7"/>
    <path class="st4" d="M280.7,62.4c-1.4.2-3.2.2-5.8-.8,0,.8-2.1,1.8-3,2,6.4,5.6,29,14.5,35.4,16.1,1,.3-.4-4.4-3.2-6.4-2.1-1.5-15.2-4.8-23.4-10.9"/>
    <path class="st4" d="M282.4,62c8.9,5.5,18.4,8.6,20.5,9.2.4-.3-.6-4.4-3.6-5.5-4.5-1.7-8.2-3.3-10.8-5-.9.5-2.3.8-4.8-.3,0,.5-.3,1.1-1.3,1.6"/>
    <path class="st4" d="M66.1,114.9c1.7-.8,4.2-2.2,4.2-2.2,1,1.3,1.2,2.5,1.5,3.3.2.6-.4.8-.7.8-1.2.1-5-1.9-5-1.9"/>
    <path class="st4" d="M113.5,120.6c-3.8-3.7-10.7-6.2-17.6-6.2s-12.1,2.3-17.4,6.9l3.3,2.8c.1,0,.3,0,.5-.1,1.1-.3,3.2-.1,3.5.2.3.1.6.3,1,.5l6-1c4.6-1.6,11.6-1.3,15.9,1.7-2.3,2.6-4.3,6.2-1,9.2,2.5,2.4,6.7,1.4,8.4-1.5,2.7-4.4.6-9.3-2.6-12.5"/>
    <path class="st4" d="M74.2,125.5c.6,0,1.3.1,1.8.2.4-.3.8-.6,1.4-.8.7-.3,1.7-.4,2.2-.5l-2.4-1.8c-1,.8-2,1.8-3,2.9"/>
    <path class="st4" d="M199.6,139.5c0-2.8,2.3-5.1,5.1-5.1s5.1,2.3,5.1,5.1-2.3,5.1-5.1,5.1-5.1-2.3-5.1-5.1"/>
    <path class="st4" d="M321.4,181.7c2.5-4.5-.8-10.8-2-15.3-1.1-4-1.8-6.8-.3-10.9.7-1.8-4.6-4.1-5.5-4.5-4.5,1.7-23.9,28.2-25.9,29.9-.9.8-3.1,2.1-1.8-3.8l9.7-44.2-10.3,4c-1.2,9.8-4.2,37.3-13.6,43-.8.5-3.7,2.6-4.5,1-.5-.9,6-28.5,6.1-28.8h-8.3l-.7,2.5c-1.4-2.5-4.8-2.5-7-2.1-15.7,2.9-15.9,26.2-16.4,27-4.5,5.6-8.6,4.2-8.5.7.2-5.9,7.4-21.8,4.2-25.8-3.5-4.4-10.6-1.3-14.2,2.6l1.1-4.8h-8.7c-1.2,6-5.8,23.2-9.5,27.6-2,2.3-7,3-6.8.5.2-2.8,7.3-28.2,7.3-28.2h-8.8s-4.5,20.1-8.2,26.5c-3.1,5.5-7.2,3.1-6.9-.1.4-5.8,10.7-45.8,10.7-45.8l-10.2,4-4.1,18s0-1.7-3.3-2.2c-7.2-1.2-11.2,4.1-14.2,9.6-2.2,4.1-4.6,11.6-4.6,17,0,0-3.6,4.7-6.3,4.3-9.5-1.2,6.3-30.3,6.3-30.3h-18.1l.6-2.1h-7c-1.9,8.3-6.3,23.5-10.8,29.8-2.4,3.4-5.2,2.5-5.2.1-.1-2.4,6.1-28.7,6.1-28.7h-8.7l-.8,3.2c-2.5-1.6-8.9-4.1-14.5,2.3-7.4,8.3-8.7,17.2-6.4,23.9.3,1.3-6.9,4.7-6.9,4.7,0,0,3,1.8,4.6,5.3,2.8-.1,5.1-3.9,5.4-3.7,4.2,3.2,9.4,3.2,13.7-1.5,2.6,2.8,6.6,3.8,9.5,3.8,11.8,0,15.3-20.7,18.6-30.4h9.4c-1.4,3.8-4.1,9.5-5.9,15-1.9,5.7-3,11.4.5,13.9,5.4,3.8,13,.3,17.2-3.5,1.8,3.5,5.5,5.1,8.5,5,3.3-.1,5.8-.9,8.2-2.9,4.6,6.3,11.5,1.5,15.4-2.1.7,2.6,2.3,4.9,5.5,4.9s7.7-2.1,10.8-5l-1.4,5h9.2l4-14.8c4.5-17.9,10-13.2,10.4-12.4,1,1.6-.7,4.6-2.5,11.2-1.3,4.6-4.7,15.4,3.5,16,4.7.4,10.9-2.5,14-6.2,4.7,7.5,10.3,7.3,17.7,3.1,1.6,2.1,2.8,3.6,5.8,3.1,3.4-.1,6.8-3.5,8.7-5.5,1,3,3.2,5.6,6.8,5.5,5-.1,9.4-4.7,12.7-8.2,4.4,5.7,8.9,9.5,16.5,8.2,5.3-.9,7.4-3.2,12.6,1.2,0,0,.4-4.4,7.4-9-3.7-1.7-7.7-1.2-9.9-.6M102.1,182.6c-2.3,0-4.3-3.1-2.2-11.5,1.5-6.1,4.8-13.1,11.3-10.6.1,0-1.8,22.1-9.1,22.1M173.5,179.2c-.6,3-6.7,4.4-8,1.2-2.3-5.3,3-22.5,10.7-20.7,2.6.7-.7,10-2.7,19.5M253.4,182.7c-2.3,0-4.3-3.1-2.1-11.5,1.5-6.1,4.6-13.2,11.8-10.4,0,0-2.2,21.9-9.7,21.9M313.7,182.3c-2,2.1-6.6,2.3-9.3-.2-5.4-5-5.3-5.7-2.4-9.5,4.2-5.4,6.9-9.9,10.6-13.3-2.3,9.5,6,17,1.1,23"/>
    <path class="st4" d="M81,196.7c-7.7-3.7-13-13-13.2-21.6-.1-6.4.9-13.1,2.8-19.5l-12.9,3.1c-2.8,13.3-2.1,27.4,6,36.8,5.2,6,15.6,12.7,29.7,11.6,15.4-1.2,19.6-6.8,31.6,1.1,5.6-4.4,14.3-2.7,19.2-1.6-14.1-23.4-41.1.8-63.2-9.9"/>
    <path class="st1" d="M91.9,59.5s-3.1,1.6-4.5-2.4c-.7-2.2.6-5.6,2.9-4.9,0,0-.6-2.3,1.1-3.3,4.8,2.3,7.3,7.2,7.3,7.2-4-.4-4.8-1.5-7.8-.9-1.1.2-1.5.8-2.3,1.5,1.3-.4,2.3-.6,3.4-.7,1.5-.2,4.7.6,6.2.6,0-.2-4.8,2.5-6.3,2.9"/>
    <path class="st1" d="M244.8,31.5s3.3,1.4,4.4-2.9c.6-2.3-1.1-5.7-3.4-4.8,0,0,.4-2.4-1.4-3.3-4.5,2.4-6.9,8-6.9,8,4.1-.8,4.8-2,7.9-1.6,1.1.1,1.6.6,2.5,1.3-1.4-.3-2.4-.4-3.5-.5-1.6-.1-4.7,1-6.3,1.1,0,.2,5.1,2.5,6.7,2.7"/>
    <path class="st1" d="M281.2,98.2c-.3-.3-.8-.5-1.4-.6-3.8.7-7.9,1.4-12.1,2.1,1.5,1.7,2.1,4.6.8,6.6,4.7-1,9.2-2,13.6-2.9.6-1.5.7-3.7-.9-5.2"/>
    <path class="st1" d="M305.3,98.6c-1.2-1.9-1.9-3-1.9-3-1.5-.4-3.1-.8-4.8-1.4-4.6.9-9.7,1.8-15.2,2.8,1.3,1.7,1.6,4.2.6,6,7.8-1.7,15.1-3.2,21.3-4.4"/>
    <path class="st0" d="M329.4,172.5h-1.1v3.1h-.8v-3.1h-1.1v-.7h3.1v.7h-.1ZM334.6,175.6h-.8v-3h0l-1.1,3h-.7l-1.1-3h0v3h-.8v-3.8h1.3l.9,2.5h0l.9-2.5h1.3v3.8h0Z"/>
    <path class="st1" d="M340.7,87.4c-1.3-5.2-3.7-6.7-5.3-6-1.5.6-1.8,2.1-1.8,2.1,0,0,.4,4.5-12.9,6.1l-1.9.2,6,5.3,2.6-.3s8.4-1.3,8.7-5.1c.6-5.9,2.6,5.6,1.1,7.8,0,0,.9,1.1,2.9,0,1.9-1.3,1.9-4.9.6-10.1"/>
    <path class="st1" d="M266,101.6c-.5-.6-1.1-1-1.7-1.3-20.3,3.5-44.7,7.4-73.1,11.9-4.4.7-10,1.4-17.9,2.3-12.3,1.5-30.3,3.6-56.2,7.4,2.2,3.4,3.3,8,.8,12.2-1.2,2-3.3,3.4-5.6,3.7-2.2.3-4.3-.4-5.8-1.8-1.8-1.6-4-5-.6-10.1-2-.9-4.4-1.3-6.7-1.3-3.3.5-6.7,1-10.2,1.6.2.2.3.4.4.6,1.2,2.2-.1,5.3-1.3,6.3,0-.8.2-.8.1-1.4-.3-1.2.4-3.2-.4-4.1-.4-.5-.8-.8-1.1-1-.6.1-1.1.2-1.7.3.5.4.9,1,1.1,2,.3,2.8-.1,3.8-1.3,5.1-.1-.8.3-1.2.1-1.4-.4-.9.1-3.3-.9-3.9-.5-.6-1-1-1.4-1.4-1,.2-2.1.3-3.1.5.3.3.6.7.7,1,1.1,2.2-.3,5.3-1.5,6.2,0-.8.2-.8.1-1.4-.2-1.1.5-3.2-.2-4.1-.6-.8-1-1.1-1.5-1.3-.5.1-1,.2-1.5.3.5.4,1,1.1,1.3,2.2.2,2.8-.2,3.8-1.5,5,0-.8.4-1.2.2-1.4-.3-.9.2-3.3-.8-4-.5-.6-1-1.1-1.5-1.5-12.5,2.1-26.7,4.7-41.8,7.5-.1,0-.6.1-.6.1-4,.8-6.3,7.5-5.1,14,1.3,6.5,5.2,11.6,9.2,10.9,4-.8,5.9-7.1,4.6-13.6-.5-2.5-.9-4.2-2-6.1,0,0,2.5,2.4,3.4,7.9.8,4.7.4,8.3-1.1,10.8h0c90.2-20.2,119.1-27.5,144.7-34.3l15.6-4.1c17.1-4.4,42.7-10.2,66.4-15.3.5-1.5.5-3.7-.6-5"/>
  </g>
</svg>